NotoSerifKhitanSmallScript-Regular.glyphspackage
{
glyphname = one;
layers = (
{
layerId = master01;
shapes = (
{
closed = 1;
nodes = (
(477,0,l),
(477,42,l),
(428,42,ls),
(383,42,o),
(346,51,o),
(346,114,cs),
(346,718,l),
(282,718,l),
(212,666,ls),
(146,617,o),
(106,599,o),
(66,589,c),
(66,557,o),
(87,535,o),
(116,535,cs),
(156,535,o),
(194,577,o),
(245,639,c),
(245,114,ls),
(245,51,o),
(208,42,o),
(163,42,cs),
(96,42,l),
(96,0,l),
(96,0,l)
);
}
);
width = 559;
}
);
unicode = 49;
}
{
glyphname = two;
layers = (
{
layerId = master01;
shapes = (
{
closed = 1;
nodes = (
(491,0,l),
(496,173,l),
(454,173,l),
(450,155,ls),
(441,116,o),
(426,80,o),
(366,80,cs),
(135,80,l),
(304,267,ls),
(409,383,o),
(471,464,o),
(471,557,cs),
(471,658,o),
(394,724,o),
(268,724,cs),
(139,724,o),
(72,667,o),
(72,590,cs),
(72,539,o),
(110,525,o),
(158,525,c),
(158,604,o),
(177,674,o),
(268,674,cs),
(338,674,o),
(370,623,o),
(370,547,cs),
(370,455,o),
(334,389,o),
(228,266,cs),
(61,73,l),
(61,0,l),
(61,0,l)
);
}
);
width = 559;
}
);
unicode = 50;
}
{
glyphname = A;
layers = (
{
layerId = master01;
shapes = (
{
closed = 1;
nodes = (
(164,134,ls),
(158.667,118,o),
(155,101.667,o),
(155,91,cs),
(155,56.333,o),
(177,42,o),
(221,42,cs),
(244,42,l),
(244,0,l),
(0,0,l),
(0,42,l),
(19,42,ls),
(58.503,42,o),
(71.428,57.141,o),
(95,120,cs),
(317,714,l),
(395,714,l),
(621,95,ls),
(637.023,54.942,o),
(650.497,42,o),
(692,42,cs),
(705,42,l),
(705,0,l),
(430,0,l),
(430,42,l),
(453,42,ls),
(493,42,o),
(513,58,o),
(513,90,cs),
(513,100.667,o),
(510.333,112.333,o),
(505,127,cs),
(465,239,l),
(202,239,l),
(202,239,l)
);
},
{
closed = 1;
nodes = (
(363.667,522.667,o),
(345.667,574,o),
(335,622,c),
(326.682,572.094,o),
(309.275,527.066,o),
(289,473,cs),
(221,289,l),
(447,289,l),
(385,464,l),
(385,464,l)
);
}
);
width = 705;
}
);
unicode = 65;
}
{
glyphname = C;
layers = (
{
layerId = master01;
shapes = (
{
closed = 1;
nodes = (
(512.867,724,o),
(580,676.519,o),
(580,612,cs),
(580,570.624,o),
(546.146,542,o),
(493,542,c),
(493,602.645,o),
(464.321,671,o),
(376,671,cs),
(300,671,o),
(248.333,642.167,o),
(215,589.5,cs),
(181.667,536.833,o),
(168,458,o),
(168,358,cs),
(168,177.356,o),
(229.478,56,o),
(376,56,cs),
(476.123,56,o),
(521.947,97.858,o),
(557,141,c),
(567.667,134.333,o),
(576,122,o),
(576,102,cs),
(576,45.072,o),
(497.155,-10,o),
(361,-10,cs),
(162.578,-10,o),
(57,137.726,o),
(57,358,cs),
(57,571.269,o),
(165.512,724,o),
(378,724,cs)
);
}
);
width = 614;
}
);
unicode = 67;
}
{
glyphname = D;
layers = (
{
layerId = master01;
shapes = (
{
closed = 1;
nodes = (
(670,134.912,o),
(560.731,0,o),
(344,0,cs),
(38,0,l),
(38,42,l),
(51,42,ls),
(94.943,42,o),
(133,50.617,o),
(133,114,cs),
(133,604,ls),
(133,662.405,o),
(95.11,672,o),
(51,672,cs),
(38,672,l),
(38,714,l),
(344,714,ls),
(548.731,714,o),
(670,587.413,o),
(670,358,cs)
);
},
{
closed = 1;
nodes = (
(478.43,51,o),
(559,158.364,o),
(559,358,cs),
(559,556.667,o),
(479.333,664,o),
(322,664,cs),
(234,664,l),
(234,51,l),
(321,51,l),
(321,51,l)
);
}
);
width = 727;
}
);
unicode = 68;
}
{
glyphname = E;
layers = (
{
layerId = master01;
shapes = (
{
closed = 1;
nodes = (
(427,50,ls),
(488.246,50,o),
(516.674,86.727,o),
(522,132,cs),
(529,175,l),
(581,175,l),
(574,0,l),
(38,0,l),
(38,42,l),
(51,42,ls),
(93.634,42,o),
(133,48.394,o),
(133,109,cs),
(133,600,ls),
(133,663.383,o),
(94.943,672,o),
(51,672,cs),
(38,672,l),
(38,714,l),
(542,714,l),
(547,539,l),
(495,539,l),
(490,582,ls),
(484.648,627.494,o),
(460.547,664,o),
(402,664,cs),
(234,664,l),
(234,398,l),
(475,398,l),
(475,349,l),
(234,349,l),
(234,50,l),
(234,50,l)
);
}
);
width = 623;
}
);
unicode = 69;
}
{
glyphname = H;
layers = (
{
layerId = master01;
shapes = (
{
closed = 1;
nodes = (
(464,42,l),
(477,42,ls),
(520.943,42,o),
(559,50.617,o),
(559,114,cs),
(559,348,l),
(234,348,l),
(234,114,ls),
(234,50.617,o),
(272.057,42,o),
(316,42,cs),
(329,42,l),
(329,0,l),
(38,0,l),
(38,42,l),
(51,42,ls),
(94.943,42,o),
(133,50.617,o),
(133,114,cs),
(133,604,ls),
(133,662.405,o),
(95.11,672,o),
(51,672,cs),
(38,672,l),
(38,714,l),
(329,714,l),
(329,672,l),
(316,672,ls),
(272.057,672,o),
(234,663.383,o),
(234,600,cs),
(234,398,l),
(559,398,l),
(559,600,ls),
(559,663.383,o),
(520.943,672,o),
(477,672,cs),
(464,672,l),
(464,714,l),
(755,714,l),
(755,672,l),
(742,672,ls),
(698.057,672,o),
(660,663.383,o),
(660,600,cs),
(660,109,ls),
(660,48.394,o),
(699.366,42,o),
(742,42,cs),
(755,42,l),
(755,0,l),
(464,0,l),
(464,0,l)
);
}
);
width = 793;
}
);
unicode = 72;
}
{
glyphname = I;
layers = (
{
layerId = master01;
shapes = (
{
closed = 1;
nodes = (
(38,42,l),
(51,42,ls),
(94.943,42,o),
(133,50.617,o),
(133,114,cs),
(133,600,ls),
(133,663.383,o),
(94.943,672,o),
(51,672,cs),
(38,672,l),
(38,714,l),
(329,714,l),
(329,672,l),
(316,672,ls),
(272.057,672,o),
(234,663.383,o),
(234,600,cs),
(234,114,ls),
(234,50.617,o),
(272.057,42,o),
(316,42,cs),
(329,42,l),
(329,0,l),
(38,0,l),
(38,0,l)
);
}
);
width = 367;
}
);
unicode = 73;
}
{
glyphname = L;
layers = (
{
layerId = master01;
shapes = (
{
closed = 1;
nodes = (
(38,42,l),
(51,42,ls),
(94.943,42,o),
(133,50.617,o),
(133,114,cs),
(133,600,ls),
(133,663.383,o),
(94.943,672,o),
(51,672,cs),
(38,672,l),
(38,714,l),
(329,714,l),
(329,672,l),
(316,672,ls),
(269.289,672,o),
(234,660.928,o),
(234,604,cs),
(234,50,l),
(431,50,ls),
(492.162,50,o),
(513.727,97.816,o),
(519,140,cs),
(529,215,l),
(581,215,l),
(574,0,l),
(38,0,l),
(38,0,l)
);
}
);
width = 623;
}
);
unicode = 76;
}
{
glyphname = O;
layers = (
{
layerId = master01;
shapes = (
{
closed = 1;
nodes = (
(685,136.439,o),
(573.05,-10,o),
(371,-10,cs),
(160.65,-10,o),
(56,135.502,o),
(56,359,cs),
(56,582.343,o),
(160.546,725,o),
(372,725,cs),
(574.002,725,o),
(685,579.574,o),
(685,358,cs)
);
},
{
closed = 1;
nodes = (
(167,259.333,o),
(180.833,180.5,o),
(213.5,126.5,cs),
(246.167,72.5,o),
(296.333,44,o),
(371,44,cs),
(445.667,44,o),
(495.833,72.5,o),
(528.5,126.5,cs),
(561.167,180.5,o),
(574,259.333,o),
(574,358,cs),
(574,456.667,o),
(561.167,535.667,o),
(528.5,589,cs),
(495.833,642.333,o),
(446.667,671,o),
(372,671,cs),
(222.416,671,o),
(167,555.948,o),
(167,358,cs)
);
}
);
width = 742;
}
);
unicode = 79;
}
{
glyphname = R;
layers = (
{
layerId = master01;
shapes = (
{
closed = 1;
nodes = (
(588.667,68.667,o),
(616.333,42,o),
(659,42,cs),
(662,42,l),
(662,0,l),
(648,0,ls),
(520.932,0,o),
(497.556,14.966,o),
(452,90,cs),
(317,315,l),
(234,315,l),
(234,109,ls),
(234,50.414,o),
(269.895,42,o),
(316,42,cs),
(329,42,l),
(329,0,l),
(38,0,l),
(38,42,l),
(51,42,ls),
(93.634,42,o),
(133,48.394,o),
(133,109,cs),
(133,604,ls),
(133,662.405,o),
(95.11,672,o),
(51,672,cs),
(38,672,l),
(38,714,l),
(307,714,ls),
(480.333,714,o),
(564,650.333,o),
(564,521,cs),
(564,414.933,o),
(488.681,363.813,o),
(417,339,c),
(554,122,l),
(554,122,l)
);
},
{
closed = 1;
nodes = (
(304,362,ls),
(420.761,362,o),
(457,412.182,o),
(457,518,cs),
(457,625.512,o),
(412.929,666,o),
(302,666,cs),
(234,666,l),
(234,362,l),
(234,362,l)
);
}
);
width = 656;
}
);
unicode = 82;
}
{
glyphname = S;
layers = (
{
layerId = master01;
shapes = (
{
closed = 1;
nodes = (
(118.568,-10,o),
(48,45.182,o),
(48,131,cs),
(48,171,o),
(73.333,198,o),
(120,198,c),
(125.422,113.964,o),
(160.433,39,o),
(255,39,cs),
(344.333,39,o),
(398,83.667,o),
(398,165,cs),
(398,237.541,o),
(357.628,274.107,o),
(243,321,cs),
(121.7,371.102,o),
(59,431.599,o),
(59,543,cs),
(59,657.355,o),
(151.329,724,o),
(278,724,cs),
(390.359,724,o),
(465,674.191,o),
(465,612,cs),
(465,569.333,o),
(434,547,o),
(386,547,c),
(386,607.481,o),
(359.458,674,o),
(274,674,cs),
(192.634,674,o),
(152,627.662,o),
(152,560,cs),
(152,477.346,o),
(190.368,446.823,o),
(307,398,cs),
(424.554,349.91,o),
(493,294.324,o),
(493,191,cs),
(493,65.105,o),
(396.792,-10,o),
(247,-10,cs)
);
}
);
width = 544;
}
);
unicode = 83;
}
{
glyphname = T;
layers = (
{
layerId = master01;
shapes = (
{
closed = 1;
nodes = (
(356,50.617,o),
(394.057,42,o),
(438,42,cs),
(461,42,l),
(461,0,l),
(150,0,l),
(150,42,l),
(173,42,ls),
(215.634,42,o),
(255,48.394,o),
(255,109,cs),
(255,664,l),
(159,664,ls),
(100.064,664,o),
(82.331,627.316,o),
(77,582,cs),
(72,539,l),
(20,539,l),
(25,714,l),
(588,714,l),
(593,539,l),
(541,539,l),
(536,582,ls),
(530.419,629.435,o),
(510.931,664,o),
(453,664,cs),
(356,664,l),
(356,114,l),
(356,114,l)
);
}
);
width = 613;
}
);
unicode = 84;
}
{
glyphname = U;
layers = (
{
layerId = master01;
shapes = (
{
closed = 1;
nodes = (
(201.891,-10,o),
(110,54.015,o),
(110,216,cs),
(110,604,ls),
(110,662.405,o),
(72.11,672,o),
(28,672,cs),
(15,672,l),
(15,714,l),
(306,714,l),
(306,672,l),
(293,672,ls),
(249.057,672,o),
(211,663.383,o),
(211,600,cs),
(211,210,ls),
(211,92.661,o),
(279.34,50,o),
(378,50,cs),
(492.01,50,o),
(546,114.965,o),
(546,206,cs),
(546,604,ls),
(546,662.405,o),
(508.11,672,o),
(464,672,cs),
(451,672,l),
(451,714,l),
(702,714,l),
(702,672,l),
(689,672,ls),
(645.057,672,o),
(607,663.383,o),
(607,600,cs),
(607,204,ls),
(607,70.384,o),
(519.966,-10,o),
(362,-10,cs)
);
}
);
width = 717;
}
);
unicode = 85;
}
{
glyphname = W;
layers = (
{
layerId = master01;
shapes = (
{
closed = 1;
nodes = (
(701,274,ls),
(719.667,207.333,o),
(734.667,144.667,o),
(744,98,c),
(753.333,146,o),
(766.667,198,o),
(784,262,cs),
(872,571,ls),
(876.778,585.334,o),
(883,604.485,o),
(883,623,cs),
(883,657.667,o),
(861,672,o),
(817,672,cs),
(794,672,l),
(794,714,l),
(1038,714,l),
(1038,672,l),
(1019,672,ls),
(978.899,672,o),
(961.346,659.522,o),
(943,594,cs),
(774,0,l),
(684,0,l),
(521,560,l),
(368,0,l),
(276,0,l),
(93,619,ls),
(80.028,660.509,o),
(62.694,672,o),
(22,672,cs),
(9,672,l),
(9,714,l),
(284,714,l),
(284,672,l),
(261,672,ls),
(221,672,o),
(201,657.333,o),
(201,624,cs),
(201,618.667,o),
(201.833,613,o),
(203.5,607,cs),
(205.167,601,o),
(207,594.333,o),
(209,587,cs),
(301,267,ls),
(317,207,o),
(333.333,146,o),
(344,98,c),
(354.667,150,o),
(367.667,212.667,o),
(385,278,cs),
(504,707,l),
(576,707,l),
(576,707,l)
);
}
);
width = 1047;
}
);
unicode = 87;
}
{
glyphname = X;
layers = (
{
layerId = master01;
shapes = (
{
closed = 1;
nodes = (
(466,666.1,o),
(445.619,672,o),
(412,672,cs),
(409,672,l),
(409,714,l),
(628,714,l),
(628,672,l),
(619,672,ls),
(579.552,672,o),
(554.1,651.15,o),
(520,600,cs),
(375,391,l),
(559,95,l),
(588.333,56.333,o),
(613.667,42,o),
(639,42,cs),
(652,42,l),
(652,0,l),
(382,0,l),
(382,42,l),
(387,42,ls),
(427,42,o),
(447,53,o),
(447,75,cs),
(447,93.352,o),
(437.523,104.011,o),
(414,144,cs),
(315,303,l),
(204,139,ls),
(193.664,123.495,o),
(178,96.723,o),
(178,73,cs),
(178,50.333,o),
(199,42,o),
(243,42,cs),
(246,42,l),
(246,0,l),
(8,0,l),
(8,42,l),
(14,42,ls),
(62.862,42,o),
(82.112,60.732,o),
(118,112,cs),
(285,351,l),
(120,619,ls),
(96,657.667,o),
(64.667,672,o),
(34,672,cs),
(21,672,l),
(21,714,l),
(292,714,l),
(292,672,l),
(289,672,ls),
(246.149,672,o),
(232,660.301,o),
(232,643,cs),
(232,626.458,o),
(235.205,617.792,o),
(256,584,cs),
(346,438,l),
(441,582,ls),
(455.667,604.667,o),
(466,624.333,o),
(466,643,cs)
);
}
);
width = 660;
}
);
unicode = 88;
}
{
glyphname = Y;
layers = (
{
layerId = master01;
shapes = (
{
closed = 1;
nodes = (
(159,42,l),
(182,42,ls),
(227.068,42,o),
(264,48.589,o),
(264,109,cs),
(264,298,l),
(79,619,ls),
(56.912,657.653,o),
(42.315,672,o),
(8,672,cs),
(-5,672,l),
(-5,714,l),
(270,714,l),
(270,672,l),
(233,672,ls),
(193.987,672,o),
(189,655.471,o),
(189,640,cs),
(189,621.333,o),
(199,601.667,o),
(207,587,cs),
(281,453,ls),
(303.667,411.667,o),
(320.333,369.667,o),
(331,339,c),
(341.799,368.698,o),
(364.993,409.654,o),
(391,453,cs),
(455,568,ls),
(468.333,590.667,o),
(473,612,o),
(473,628,cs),
(473,657.333,o),
(451.667,672,o),
(413,672,cs),
(384,672,l),
(384,714,l),
(628,714,l),
(628,672,l),
(616,672,ls),
(584.784,672,o),
(564.363,649.488,o),
(533,594,cs),
(365,298,l),
(365,114,ls),
(365,50.617,o),
(403.057,42,o),
(447,42,cs),
(470,42,l),
(470,0,l),
(159,0,l),
(159,0,l)
);
}
);
width = 625;
}
);
unicode = 89;
}
{
glyphname = Z;
layers = (
{
layerId = master01;
shapes = (
{
closed = 1;
nodes = (
(158,50,l),
(410,50,ls),
(469.314,50,o),
(487.566,85.81,o),
(493,132,cs),
(498,175,l),
(550,175,l),
(545,0,l),
(36,0,l),
(36,40,l),
(411,664,l),
(194,664,ls),
(136.435,664,o),
(117.341,627.4,o),
(112,582,cs),
(107,539,l),
(55,539,l),
(60,714,l),
(534,714,l),
(534,673,l),
(534,673,l)
);
}
);
width = 592;
}
);
unicode = 90;
}
{
glyphname = a;
layers = (
{
layerId = master01;
shapes = (
{
closed = 1;
nodes = (
(147,82.333,o),
(173.333,52,o),
(228,52,cs),
(308.434,52,o),
(361,103.936,o),
(361,191,cs),
(361,272,l),
(297,269,ls),
(183.163,263.705,o),
(147,222.939,o),
(147,145,cs)
);
},
{
closed = 1;
nodes = (
(191.537,496,o),
(177,450.717,o),
(177,387,c),
(121,387,o),
(92,404.667,o),
(92,450,cs),
(92,518.864,o),
(170.264,546,o),
(272,546,cs),
(394.103,546,o),
(455,500.544,o),
(455,373,cs),
(455,114,ls),
(455,59.176,o),
(472.067,42,o),
(517,42,cs),
(520,42,l),
(520,0,l),
(385,0,l),
(369,86,l),
(361,86,l),
(318.121,29.722,o),
(288.424,-10,o),
(205,-10,cs),
(118.034,-10,o),
(50,38.181,o),
(50,150,cs),
(50,255.333,o),
(124.667,306,o),
(278,310,cs),
(361,313,l),
(361,373,ls),
(361,445.448,o),
(349.734,496,o),
(268,496,cs)
);
}
);
width = 563;
}
);
unicode = 97;
}
{
glyphname = b;
layers = (
{
layerId = master01;
shapes = (
{
closed = 1;
nodes = (
(559,77.382,o),
(486.555,-10,o),
(355,-10,cs),
(277.438,-10,o),
(232.108,25.996,o),
(202,78,c),
(196,78,l),
(178,0,l),
(18,0,l),
(18,42,l),
(26,42,ls),
(69.943,42,o),
(108,50.617,o),
(108,114,cs),
(108,650,ls),
(108,708.405,o),
(70.11,718,o),
(26,718,cs),
(18,718,l),
(18,760,l),
(202,760,l),
(202,576,ls),
(202,553.333,o),
(201.333,522,o),
(200,494,cs),
(199.333,478.667,o),
(198.667,462.667,o),
(198,446,c),
(202,446,l),
(231.99,508.707,o),
(279.355,546,o),
(355,546,cs),
(485.896,546,o),
(559,459.028,o),
(559,269,cs)
);
},
{
closed = 1;
nodes = (
(233.7,482,o),
(202,412.279,o),
(202,269,cs),
(202,130.397,o),
(233.598,54,o),
(339,54,cs),
(427.05,54,o),
(462,132.329,o),
(462,270,cs),
(462,413.963,o),
(425.595,482,o),
(338,482,cs)
);
}
);
width = 614;
}
);
unicode = 98;
}
{
glyphname = d;
layers = (
{
layerId = master01;
shapes = (
{
closed = 1;
nodes = (
(506,50.776,o),
(542.809,42,o),
(588,42,cs),
(596,42,l),
(596,0,l),
(427,0,l),
(416,90,l),
(412,90,l),
(382.01,27.293,o),
(334.645,-10,o),
(259,-10,cs),
(192.333,-10,o),
(141.5,11.667,o),
(107.5,57,cs),
(73.5,102.333,o),
(55,171,o),
(55,267,cs),
(55,363,o),
(73.5,433.667,o),
(107.5,479,cs),
(141.5,524.333,o),
(192.333,546,o),
(259,546,cs),
(337.213,546,o),
(383.049,510.639,o),
(412,458,c),
(418,458,l),
(417.333,474,o),
(416.333,489.333,o),
(415,504,cs),
(413.667,528,o),
(412,556,o),
(412,568,cs),
(412,650,ls),
(412,706.928,o),
(376.711,718,o),
(330,718,cs),
(322,718,l),
(322,760,l),
(506,760,l),
(506,110,l),
(506,110,l)
);
},
{
closed = 1;
nodes = (
(380.3,54,o),
(412,123.721,o),
(412,267,cs),
(412,408.128,o),
(378.665,482,o),
(275,482,cs),
(185.8,482,o),
(152,403.655,o),
(152,266,cs),
(152,124.667,o),
(186.667,54,o),
(276,54,cs)
);
}
);
width = 614;
}
);
unicode = 100;
}
{
glyphname = e;
layers = (
{
layerId = master01;
shapes = (
{
closed = 1;
nodes = (
(200.333,492,o),
(160.667,431,o),
(154,315,c),
(384,315,l),
(384,422.062,o),
(354.867,492,o),
(275,492,cs)
);
},
{
closed = 1;
nodes = (
(142.971,-10,o),
(55,89.449,o),
(55,264,cs),
(55,450.667,o),
(134.333,546,o),
(277,546,cs),
(404.733,546,o),
(485,466.333,o),
(485,307,cs),
(485,261,l),
(152,261,l),
(154.674,116.579,o),
(204.537,53,o),
(301,53,cs),
(366.373,53,o),
(419.626,85.085,o),
(444,123,c),
(453.333,119,o),
(463,106.333,o),
(463,89,cs),
(463,44.105,o),
(396.217,-10,o),
(287,-10,cs)
);
}
);
width = 535;
}
);
unicode = 101;
}
{
glyphname = f;
layers = (
{
layerId = master01;
shapes = (
{
closed = 1;
nodes = (
(336,0,l),
(27,0,l),
(27,42,l),
(40,42,ls),
(83.943,42,o),
(122,50.617,o),
(122,114,cs),
(122,489,l),
(31,489,l),
(31,536,l),
(122,536,l),
(122,586,ls),
(122,706.249,o),
(190.073,770,o),
(299,770,cs),
(394.41,770,o),
(439,745.749,o),
(439,700,cs),
(439,665.408,o),
(406.974,644,o),
(357,644,c),
(357,681.799,o),
(342.789,724,o),
(291,724,cs),
(235.626,724,o),
(216,683.925,o),
(216,595,cs),
(216,536,l),
(357,536,l),
(357,489,l),
(216,489,l),
(216,114,ls),
(216,50.617,o),
(254.057,42,o),
(298,42,cs),
(336,42,l),
(336,42,l)
);
}
);
width = 369;
}
);
unicode = 102;
}
{
glyphname = g;
layers = (
{
layerId = master01;
shapes = (
{
closed = 1;
nodes = (
(526,485.921,o),
(510.931,463,o),
(473,463,c),
(473,480.896,o),
(464.828,497,o),
(440,497,cs),
(422.667,497,o),
(410.333,493,o),
(397,485,c),
(419.667,457,o),
(436,421.333,o),
(436,364,cs),
(436,265.865,o),
(378.624,192,o),
(256,192,cs),
(243.538,192,o),
(225.756,189.561,o),
(204,195,c),
(178.176,182.088,o),
(156,163.388,o),
(156,134,cs),
(156,103.07,o),
(179.045,96,o),
(218,96,cs),
(331,96,ls),
(451.41,96,o),
(496,31.631,o),
(496,-53,cs),
(496,-110.333,o),
(474.833,-158,o),
(431.5,-190,cs),
(388.167,-222,o),
(321.667,-240,o),
(231,-240,cs),
(91,-240,o),
(23,-186,o),
(23,-94,cs),
(23,-20.218,o),
(77.454,22.713,o),
(148,34,c),
(122.558,46.721,o),
(93,71.731,o),
(93,116,cs),
(93,156,o),
(112.667,182,o),
(158,210,c),
(100.102,234.813,o),
(68,294.825,o),
(68,361,cs),
(68,475.27,o),
(127.837,546,o),
(256,546,cs),
(300.215,546,o),
(350.737,532.263,o),
(370,513,c),
(389.956,535.807,o),
(424.299,567,o),
(467,567,cs),
(508.85,567,o),
(526,541.03,o),
(526,515,cs)
);
},
{
closed = 1;
nodes = (
(104,-147.89,o),
(133.296,-191,o),
(233,-191,cs),
(370.408,-191,o),
(414,-143.417,o),
(414,-70,cs),
(414,-9.285,o),
(379.357,7,o),
(312,7,cs),
(214,7,ls),
(159.295,7,o),
(104,-7.384,o),
(104,-88,cs)
);
},
{
closed = 1;
nodes = (
(162,278.667,o),
(189,240,o),
(253,240,cs),
(319.776,240,o),
(342,281.137,o),
(342,365,cs),
(342,455.667,o),
(317.333,497,o),
(252,497,cs),
(188,497,o),
(162,453.333,o),
(162,364,cs)
);
}
);
width = 538;
}
);
unicode = 103;
}
{
glyphname = h;
layers = (
{
layerId = master01;
shapes = (
{
closed = 1;
nodes = (
(287,0,l),
(18,0,l),
(18,42,l),
(26,42,ls),
(69.943,42,o),
(108,50.617,o),
(108,114,cs),
(108,650,ls),
(108,708.405,o),
(70.11,718,o),
(26,718,cs),
(18,718,l),
(18,760,l),
(202,760,l),
(202,540,ls),
(202,521.333,o),
(201.333,501.333,o),
(200,484,cs),
(199.333,474,o),
(198.667,464.333,o),
(198,455,c),
(203,455,l),
(233,515.667,o),
(282,546,o),
(350,546,cs),
(463.671,546,o),
(527,485.257,o),
(527,350,cs),
(527,114,ls),
(527,52.22,o),
(558.17,42,o),
(604,42,cs),
(607,42,l),
(607,0,l),
(433,0,l),
(433,345,ls),
(433,433.862,o),
(403.491,482,o),
(323,482,cs),
(240.815,482,o),
(202,416.999,o),
(202,320,cs),
(202,109,ls),
(202,48.394,o),
(241.366,42,o),
(284,42,cs),
(287,42,l),
(287,42,l)
);
}
);
width = 635;
}
);
unicode = 104;
}
{
glyphname = j;
layers = (
{
layerId = master01;
shapes = (
{
closed = 1;
nodes = (
(202,-8,ls),
(202,-187.738,o),
(119.897,-240,o),
(4,-240,cs),
(-12,-240,l),
(-12,-193,l),
(-5,-193,ls),
(66.66,-193,o),
(108,-150.074,o),
(108,-9,cs),
(108,426,ls),
(108,484.405,o),
(70.11,494,o),
(26,494,cs),
(23,494,l),
(23,536,l),
(202,536,l),
(202,536,l)
);
},
{
closed = 1;
nodes = (
(94,745.457,o),
(119.731,760,o),
(151,760,cs),
(182.269,760,o),
(208,745.457,o),
(208,698,cs),
(208,653.758,o),
(183.924,636,o),
(151,636,cs),
(118.076,636,o),
(94,653.758,o),
(94,698,cs)
);
}
);
width = 300;
}
);
unicode = 106;
}
{
glyphname = l;
layers = (
{
layerId = master01;
shapes = (
{
closed = 1;
nodes = (
(69.943,42,o),
(108,50.617,o),
(108,114,cs),
(108,650,ls),
(108,708.405,o),
(70.11,718,o),
(26,718,cs),
(13,718,l),
(13,760,l),
(202,760,l),
(202,114,ls),
(202,50.617,o),
(240.057,42,o),
(284,42,cs),
(297,42,l),
(297,0,l),
(13,0,l),
(13,42,l),
(26,42,l),
(26,42,l)
);
}
);
width = 310;
}
);
unicode = 108;
}
{
glyphname = m;
layers = (
{
layerId = master01;
shapes = (
{
closed = 1;
nodes = (
(297,0,l),
(28,0,l),
(28,42,l),
(41,42,ls),
(87.619,42,o),
(118,52.277,o),
(118,114,cs),
(118,426,ls),
(118,482.808,o),
(87.437,494,o),
(41,494,cs),
(38,494,l),
(38,536,l),
(195,536,l),
(208,455,l),
(213,455,l),
(253.2,530.041,o),
(299.696,546,o),
(364,546,cs),
(427.825,546,o),
(485.345,520.708,o),
(509,455,c),
(517,455,l),
(557.237,530.11,o),
(609.867,546,o),
(674,546,cs),
(777.086,546,o),
(837,483.66,o),
(837,350,cs),
(837,114,ls),
(837,52.22,o),
(868.17,42,o),
(914,42,cs),
(917,42,l),
(917,0,l),
(743,0,l),
(743,345,ls),
(743,433.703,o),
(715.039,482,o),
(638,482,cs),
(554.744,482,o),
(527,413.995,o),
(527,333,cs),
(527,114,ls),
(527,52.22,o),
(558.17,42,o),
(604,42,cs),
(607,42,l),
(607,0,l),
(433,0,l),
(433,345,ls),
(433,433.703,o),
(405.039,482,o),
(328,482,cs),
(241.309,482,o),
(212,410.184,o),
(212,320,cs),
(212,109,ls),
(212,50.414,o),
(247.895,42,o),
(294,42,cs),
(297,42,l),
(297,42,l)
);
}
);
width = 945;
}
);
unicode = 109;
}
{
glyphname = n;
layers = (
{
layerId = master01;
shapes = (
{
closed = 1;
nodes = (
(297,0,l),
(28,0,l),
(28,42,l),
(36,42,ls),
(79.943,42,o),
(118,50.617,o),
(118,114,cs),
(118,426,ls),
(118,484.112,o),
(81.565,494,o),
(36,494,cs),
(33,494,l),
(33,536,l),
(195,536,l),
(208,455,l),
(213,455,l),
(256.978,531.961,o),
(304.449,546,o),
(369,546,cs),
(476.039,546,o),
(537,485.17,o),
(537,350,cs),
(537,114,ls),
(537,52.277,o),
(567.381,42,o),
(614,42,cs),
(617,42,l),
(617,0,l),
(443,0,l),
(443,345,ls),
(443,433.716,o),
(412.685,482,o),
(333,482,cs),
(242.551,482,o),
(212,408.756,o),
(212,320,cs),
(212,109,ls),
(212,50.414,o),
(247.895,42,o),
(294,42,cs),
(297,42,l),
(297,42,l)
);
}
);
width = 645;
}
);
unicode = 110;
}
{
glyphname = t;
layers = (
{
layerId = master01;
shapes = (
{
closed = 1;
nodes = (
(289,43,o),
(307.667,46,o),
(329,50,c),
(329,6,l),
(311.876,-2.562,o),
(267.383,-10,o),
(240,-10,cs),
(138.78,-10,o),
(95,29.185,o),
(95,145,cs),
(95,479,l),
(19,479,l),
(19,519,l),
(43,519,o),
(75.667,528.333,o),
(97,551,cs),
(119.667,575,o),
(132.333,608.333,o),
(143,659,c),
(189,659,l),
(189,536,l),
(320,536,l),
(320,479,l),
(189,479,l),
(189,142,ls),
(189,74,o),
(218.333,43,o),
(265,43,cs)
);
}
);
width = 352;
}
);
unicode = 116;
}
{
glyphname = u;
layers = (
{
layerId = master01;
shapes = (
{
closed = 1;
nodes = (
(527,50.414,o),
(562.895,42,o),
(609,42,cs),
(612,42,l),
(612,0,l),
(453,0,l),
(440,81,l),
(435,81,l),
(396.11,8.404,o),
(337.682,-10,o),
(273,-10,cs),
(166.581,-10,o),
(108,51.62,o),
(108,186,cs),
(108,426,ls),
(108,484.405,o),
(70.11,494,o),
(26,494,cs),
(23,494,l),
(23,536,l),
(202,536,l),
(202,191,ls),
(202,101.509,o),
(227.079,54,o),
(307,54,cs),
(394.722,54,o),
(433,119.846,o),
(433,216,cs),
(433,422,ls),
(433,483.89,o),
(396.892,494,o),
(351,494,cs),
(348,494,l),
(348,536,l),
(527,536,l),
(527,109,l),
(527,109,l)
);
}
);
width = 635;
}
);
unicode = 117;
}
{
glyphname = v;
layers = (
{
layerId = master01;
shapes = (
{
closed = 1;
nodes = (
(4,536,l),
(254,536,l),
(254,494,l),
(241,494,ls),
(201,494,o),
(181,479.333,o),
(181,446,cs),
(181,435.333,o),
(183.667,423.667,o),
(189,409,cs),
(257,220,ls),
(273.211,174.07,o),
(296.27,100.742,o),
(301,70,c),
(304,70,l),
(311.56,97.719,o),
(331.228,148.444,o),
(354,207,cs),
(426,402,ls),
(432.667,418,o),
(435,434.333,o),
(435,445,cs),
(435,479.667,o),
(413,494,o),
(369,494,cs),
(362,494,l),
(362,536,l),
(576,536,l),
(576,494,l),
(564,494,ls),
(524.497,494,o),
(511.572,478.859,o),
(488,416,cs),
(330,0,l),
(239,0,l),
(78,441,ls),
(62.203,483.125,o),
(45.301,494,o),
(7,494,cs),
(4,494,l),
(4,494,l)
);
}
);
width = 579;
}
);
unicode = 118;
}
{
glyphname = uni4E39;
layers = (
{
layerId = master01;
shapes = (
{
closed = 1;
nodes = (
(743.333,-72,o),
(723,-125.333,o),
(699,-152,cs),
(697,-154.667,o),
(694.333,-156,o),
(691,-156,cs),
(687,-156,o),
(683.667,-154.333,o),
(681,-151,cs),
(630.333,-91,o),
(556.333,-33.667,o),
(499,1,c),
(515,31,l),
(653,-32,ls),
(658.333,-34.667,o),
(662.667,-36,o),
(666,-36,cs),
(670,-36,o),
(672,-31,o),
(672,-23,cs),
(675.333,13,o),
(677,143.667,o),
(677,369,cs),
(677,513.667,o),
(676.333,604,o),
(675,640,cs),
(675,646.667,o),
(671.333,649.333,o),
(664,648,cs),
(315,614,l),
(311,663,l),
(560,688,ls),
(624,694.667,o),
(647.333,701,o),
(686,737,cs),
(690.667,741.667,o),
(695,742,o),
(699,738,cs),
(765,684,ls),
(767.667,681.333,o),
(767.333,677.667,o),
(764,673,cs),
(748,652,ls),
(742.667,645.333,o),
(740,638.333,o),
(740,631,cs),
(737.333,523,o),
(736,426.333,o),
(736,341,cs),
(736,205.667,o),
(738,81.333,o),
(742,-32,cs)
);
},
{
closed = 1;
nodes = (
(272.667,649.333,o),
(260.667,695,o),
(230,735,c),
(241,747,l),
(352,661,l),
(347.333,645.667,o),
(344.333,622,o),
(343,590,cs),
(341.667,562.667,o),
(341,511.667,o),
(341,437,cs),
(341,243.667,o),
(317.167,119.333,o),
(236.5,6,cs),
(196.167,-50.667,o),
(138,-105,o),
(62,-157,c),
(41,-128,l),
(182.333,-17.333,o),
(242.667,104.167,o),
(260,215.5,cs),
(268.667,271.167,o),
(273.667,340,o),
(275,422,cs),
(275,472,ls),
(275,520.667,o),
(274.667,558,o),
(274,584,cs)
);
},
{
closed = 1;
nodes = (
(201.667,250.667,o),
(161.333,244.333,o),
(122,235,c),
(46,294,l),
(51,307,l),
(81.667,303.667,o),
(114.333,302,o),
(149,302,cs),
(162.333,302,o),
(182.333,302.667,o),
(209,304,cs),
(383.667,313.333,o),
(551.667,326.333,o),
(713,343,cs),
(774.333,347,o),
(808,353.667,o),
(840,371,cs),
(843.333,373,o),
(846.667,373,o),
(850,371,cs),
(942,320,l),
(939,305,l),
(769.667,295,o),
(537.667,278,o),
(243,254,cs)
);
},
{
closed = 1;
nodes = (
(494.333,503,o),
(530,458,o),
(566,408,cs),
(568.667,404.667,o),
(569,400.333,o),
(567,395,cs),
(535,311,ls),
(533,305,o),
(530.333,302,o),
(527,302,cs),
(524.333,302,o),
(522,305.667,o),
(520,313,cs),
(502.667,382.333,o),
(472.333,466.667,o),
(439,528,c),
(459,543,l),
(459,543,l)
);
}
);
width = 1000;
}
);
unicode = 20025;
}
{
glyphname = uni5C0F;
layers = (
{
layerId = master01;
shapes = (
{
closed = 1;
nodes = (
(249.667,256.333,o),
(154,113.333,o),
(114,68,c),
(98,69,l),
(72,166,ls),
(71.333,167.333,o),
(71,169,o),
(71,171,cs),
(71,176.333,o),
(73,179.333,o),
(77,180,c),
(91.667,186.667,o),
(106,195.667,o),
(120,207,c),
(157.333,232.333,o),
(228,331,o),
(252,403,cs),
(259.333,423.667,o),
(263,457.667,o),
(263,505,c),
(286,507,l),
(294,455,o),
(298,419.333,o),
(298,400,cs),
(298,362.953,o),
(283.56,334.973,o),
(275,315,cs)
);
},
{
closed = 1;
nodes = (
(472.667,659,o),
(459,719.333,o),
(431,750,c),
(442,762,l),
(551,676,l),
(543,642.667,o),
(540,622.333,o),
(540,573,cs),
(540,311,o),
(543.333,124,o),
(550,12,cs),
(550.667,-8.667,o),
(549.333,-30.333,o),
(546,-53,cs),
(536.667,-99.667,o),
(526,-124.667,o),
(510,-150,cs),
(505.333,-156.667,o),
(500.333,-157.333,o),
(495,-152,cs),
(435,-93.333,o),
(352.667,-30,o),
(274,18,c),
(287,43,l),
(456,-29,ls),
(460,-30.333,o),
(462.333,-31,o),
(463,-31,cs),
(469.667,-31,o),
(473.667,-24.667,o),
(475,-12,cs),
(478.333,18.667,o),
(480,87.333,o),
(480,194,cs),
(480,355.333,o),
(476.667,556.333,o),
(474,615,cs)
);
},
{
closed = 1;
nodes = (
(777.667,416,o),
(845.667,329.333,o),
(935,208,cs),
(937,205.333,o),
(937.333,201.667,o),
(936,197,cs),
(904,72,l),
(887,71,l),
(845.667,205.667,o),
(756.333,370.333,o),
(667,489,c),
(687,508,l),
(687,508,l)
);
}
);
width = 1000;
}
);
unicode = 23567;
}
{
glyphname = u18B01;
layers = (
{
layerId = master01;
shapes = (
{
closed = 1;
nodes = (
(207.667,270.667,o),
(165.667,264.667,o),
(121,256,c),
(42,319,l),
(47,332,l),
(81,329.333,o),
(114.667,328,o),
(148,328,cs),
(176,328,o),
(197,328.667,o),
(211,330,cs),
(355.667,338.667,o),
(525,351.667,o),
(719,369,cs),
(785.667,374.333,o),
(818.667,380,o),
(852,400,cs),
(854.667,401.333,o),
(856.667,401.5,o),
(858,400.5,cs),
(859.333,399.5,o),
(860.333,399,o),
(861,399,c),
(956,343,l),
(954,326,l),
(778,315.333,o),
(542.333,298,o),
(247,274,cs)
);
}
);
width = 1000;
}
);
unicode = 101121;
}
{
glyphname = u18B1A;
layers = (
{
layerId = master01;
shapes = (
{
closed = 1;
nodes = (
(453.333,221.667,o),
(360.333,124.667,o),
(255,50,c),
(240,70,l),
(341.333,159.333,o),
(438.667,280.333,o),
(488,427,c),
(500,307,l),
(500,307,l)
);
},
{
closed = 1;
nodes = (
(552.333,440.667,o),
(695.333,451.667,o),
(716,455,cs),
(763.333,464.333,o),
(798.333,480.333,o),
(821,503,cs),
(824.333,506.333,o),
(827.667,506.333,o),
(831,503,cs),
(890,440,l),
(893.333,437.333,o),
(893.333,434.333,o),
(890,431,cs),
(865,408,ls),
(857,401.333,o),
(855,399,o),
(855,391,cs),
(855,135,o),
(846.333,32.333,o),
(825,-65,cs),
(817.667,-97,o),
(806,-120.667,o),
(790,-136,cs),
(788,-138,o),
(786,-139,o),
(784,-139,cs),
(780.667,-139,o),
(777.667,-137.333,o),
(775,-134,cs),
(749,-102.667,o),
(700,-61.333,o),
(628,-10,c),
(639,10,l),
(747,-38,ls),
(751,-40,o),
(754,-41,o),
(756,-41,cs),
(759.333,-41,o),
(761.667,-37.333,o),
(763,-30,cs),
(779,31.333,o),
(790,150,o),
(790,294,cs),
(790,316,o),
(789.333,351,o),
(788,399,cs),
(788,408.333,o),
(784.667,411.333,o),
(778,410,c),
(723.333,405.333,o),
(637.667,398.667,o),
(521,390,cs),
(353.667,377.333,o),
(247.667,368.667,o),
(203,364,c),
(199,416,l),
(287,422,l),
(287,422,l)
);
},
{
closed = 1;
nodes = (
(220.667,385,o),
(218,350.667,o),
(218,310,cs),
(218,-133,l),
(204,-139,l),
(143,-71,ls),
(141,-69,o),
(141,-66,o),
(143,-62,cs),
(153,-41.333,o),
(158,-19.667,o),
(158,3,cs),
(159.333,75,o),
(160,134.667,o),
(160,182,cs),
(160,231.333,o),
(159.333,290.667,o),
(158,360,cs),
(156.667,400,o),
(142.667,454,o),
(116,486,c),
(128,497,l),
(226,413,l),
(226,413,l)
);
},
{
closed = 1;
nodes = (
(236.333,607.333,o),
(194.667,601.333,o),
(156,594,c),
(77,652,l),
(82,665,l),
(114,661.667,o),
(147.667,660,o),
(183,660,cs),
(210.333,660,o),
(230.667,660.333,o),
(244,661,cs),
(378,672,ls),
(477.333,679.333,o),
(581.333,688,o),
(690,698,cs),
(754,703.333,o),
(788,709.667,o),
(820,727,cs),
(822.667,728.333,o),
(825.667,728,o),
(829,726,cs),
(923,673,l),
(920,659,l),
(742.667,648.333,o),
(529.667,632.667,o),
(281,612,cs)
);
},
{
closed = 1;
nodes = (
(532.333,564.333,o),
(529,530,o),
(529,490,cs),
(528,175,ls),
(526.667,31,o),
(526,-74.333,o),
(526,-141,c),
(513,-147,l),
(450,-79,ls),
(448.667,-77.667,o),
(448.667,-74.667,o),
(450,-70,cs),
(458,-52,o),
(462.667,-30.333,o),
(464,-5,cs),
(467.333,73.667,o),
(469,185.667,o),
(469,331,cs),
(469,414.333,o),
(468,486.333,o),
(466,547,cs),
(464.667,585,o),
(455.333,618.333,o),
(438,647,c),
(456,661,l),
(539,593,l),
(539,593,l)
);
},
{
closed = 1;
nodes = (
(582.667,275.667,o),
(673.333,228.667,o),
(728,194,c),
(732,190,o),
(734,186.667,o),
(734,184,cs),
(739,95,l),
(723,86,l),
(655,167.333,o),
(595.667,220.333,o),
(493,287,c),
(504,309,l),
(504,309,l)
);
}
);
width = 1000;
}
);
unicode = 101146;
}
{
glyphname = u18B1D;
layers = (
{
layerId = master01;
shapes = (
{
closed = 1;
nodes = (
(540,567,l),
(536.667,564.333,o),
(525.333,553.333,o),
(506,534,cs),
(430,456.667,o),
(396,424.667,o),
(324,382,c),
(306,401,l),
(364.667,457.667,o),
(411.333,514.333,o),
(446,571,cs),
(468.667,607,o),
(480.333,637,o),
(481,661,c),
(503,665,l),
(503,665,l)
);
},
{
closed = 1;
nodes = (
(402.333,431.667,o),
(671,455.667,o),
(703,461,cs),
(750.333,470.333,o),
(785.333,486.333,o),
(808,509,cs),
(811.333,512.333,o),
(814.667,512.333,o),
(818,509,cs),
(878,446,l),
(881.333,443.333,o),
(881.333,440.333,o),
(878,437,cs),
(853,414,ls),
(845,407.333,o),
(843,405,o),
(843,397,cs),
(843,259.667,o),
(841,159.5,o),
(837,96.5,cs),
(833,33.5,o),
(825.667,-22,o),
(815,-70,cs),
(807,-104.667,o),
(795.333,-129.333,o),
(780,-144,cs),
(778,-146,o),
(776,-147,o),
(774,-147,cs),
(771.333,-147,o),
(768.333,-145.333,o),
(765,-142,cs),
(706.333,-83.333,o),
(638.667,-30.667,o),
(562,16,c),
(573,36,l),
(740,-43,ls),
(744,-45,o),
(747,-46,o),
(749,-46,cs),
(752.333,-46,o),
(754.667,-42.333,o),
(756,-35,cs),
(770.667,19,o),
(778,113,o),
(778,247,cs),
(778,296.333,o),
(777,349,o),
(775,405,cs),
(775,414.333,o),
(771.667,417.333,o),
(765,416,cs),
(743.667,414,o),
(719,411.667,o),
(691,409,cs),
(663,406.333,o),
(631,403.667,o),
(595,401,cs),
(393,383,o),
(265.667,371,o),
(213,365,c),
(209,417,l),
(209,417,l)
);
},
{
closed = 1;
nodes = (
(238.667,385,o),
(236,350.667,o),
(236,310,cs),
(236,-133,l),
(222,-139,l),
(159,-71,ls),
(157,-69,o),
(157,-66,o),
(159,-62,cs),
(169,-41.333,o),
(174,-19.667,o),
(174,3,cs),
(175.333,75,o),
(176,134.667,o),
(176,182,cs),
(176,231.333,o),
(175.333,290.667,o),
(174,360,cs),
(172.667,400,o),
(159,454,o),
(131,486,c),
(143,497,l),
(244,413,l),
(244,413,l)
);
},
{
closed = 1;
nodes = (
(231.333,604.333,o),
(189.667,598.333,o),
(151,591,c),
(72,649,l),
(77,662,l),
(114.333,658,o),
(147,656,o),
(175,656,cs),
(197,656,o),
(218.333,657,o),
(239,659,cs),
(265.667,661,o),
(289.667,662.667,o),
(311,664,cs),
(332.333,665.333,o),
(351.333,666.667,o),
(368,668,cs),
(495.333,677.333,o),
(603,686,o),
(691,694,cs),
(753.667,699.333,o),
(787.667,706.667,o),
(821,724,cs),
(823.667,725.333,o),
(826.667,725,o),
(830,723,cs),
(924,670,l),
(921,656,l),
(722.333,644.667,o),
(507.333,629,o),
(276,609,cs)
);
},
{
closed = 1;
nodes = (
(453.667,280,o),
(563.333,229.667,o),
(638,187,cs),
(642,184.333,o),
(644.333,181,o),
(645,177,cs),
(658,84,l),
(643,74,l),
(551,158,o),
(479.333,211.667,o),
(350,289,c),
(359,312,l),
(359,312,l)
);
}
);
width = 1000;
}
);
unicode = 101149;
}
{
glyphname = u18B37;
layers = (
{
layerId = master01;
shapes = (
{
closed = 1;
nodes = (
(499.333,649.333,o),
(496,615,o),
(496,575,cs),
(495,210,ls),
(493.667,44.667,o),
(493,-77.333,o),
(493,-156,c),
(480,-162,l),
(415,-94,ls),
(413.667,-92.667,o),
(413.667,-89.667,o),
(415,-85,cs),
(423,-67,o),
(427.667,-45.333,o),
(429,-20,cs),
(432.333,72,o),
(434,202.333,o),
(434,371,cs),
(434,476.333,o),
(433,563.333,o),
(431,632,cs),
(429.667,673.333,o),
(417.333,720,o),
(388,752,c),
(399,764,l),
(506,678,l),
(506,678,l)
);
},
{
closed = 1;
nodes = (
(648,185,o),
(738,148,o),
(824,104,cs),
(826.667,102.667,o),
(829,99,o),
(831,93,cs),
(857,-8,l),
(843,-18,l),
(763.667,58,o),
(664,128,o),
(544,192,c),
(554,215,l),
(554,215,l)
);
},
{
closed = 1;
nodes = (
(574,522,o),
(669.667,596.667,o),
(715,658,c),
(735.667,690.667,o),
(746.333,720.667,o),
(747,748,c),
(762,750,l),
(799,631,l),
(787,621.667,o),
(778,614.333,o),
(772,609,cs),
(745,587,ls),
(665,528.333,o),
(576.667,477.667,o),
(480,435,c),
(466,462,l),
(466,462,l)
);
},
{
closed = 1;
nodes = (
(191.667,294.333,o),
(151,288.333,o),
(115,281,c),
(37,336,l),
(42,349,l),
(72,346.333,o),
(102,345,o),
(132,345,cs),
(156,345,o),
(179.333,346,o),
(202,348,cs),
(409.333,362.667,o),
(585.667,376.667,o),
(731,390,cs),
(800.333,398,o),
(829,401.333,o),
(861,420,cs),
(863.667,421.333,o),
(866.667,421.333,o),
(870,420,cs),
(962,372,l),
(959,357,l),
(651.667,334.333,o),
(411,315,o),
(237,299,cs)
);
}
);
width = 1000;
}
);
unicode = 101175;
}
{
glyphname = u18B3A;
layers = (
{
layerId = master01;
shapes = (
{
closed = 1;
nodes = (
(530.333,649.333,o),
(527,615,o),
(527,575,cs),
(526,210,ls),
(524.667,44.667,o),
(524,-77.333,o),
(524,-156,c),
(511,-162,l),
(446,-94,ls),
(444.667,-92.667,o),
(444.667,-89.667,o),
(446,-85,cs),
(454,-67,o),
(458.667,-45.333,o),
(460,-20,cs),
(463.333,72,o),
(465,202.333,o),
(465,371,cs),
(465,476.333,o),
(464,563.333,o),
(462,632,cs),
(460.667,673.333,o),
(448.333,720,o),
(419,752,c),
(430,764,l),
(537,678,l),
(537,678,l)
);
},
{
closed = 1;
nodes = (
(863.667,337,o),
(860.333,310.667,o),
(859,280,cs),
(857,226.667,o),
(852.333,178,o),
(845,134,cs),
(838.333,102,o),
(822.333,66.333,o),
(809,53,cs),
(805,49,o),
(802,49,o),
(800,53,cs),
(748,160,l),
(760,156.667,o),
(768.5,153.667,o),
(773.5,151,cs),
(778.5,148.333,o),
(781.333,147,o),
(782,147,cs),
(784.667,147,o),
(785,153.667,o),
(785,155,cs),
(795.667,215,o),
(797,249.333,o),
(797,316,cs),
(797,350.667,o),
(781.333,394,o),
(752,426,c),
(763,438,l),
(869,359,l),
(869,359,l)
);
},
{
closed = 1;
nodes = (
(317.667,147.333,o),
(443.667,156,o),
(603,168,cs),
(671,174.667,o),
(701,178.333,o),
(733,197,cs),
(735.667,198.333,o),
(738.667,198,o),
(742,196,cs),
(834,143,l),
(831,128,l),
(720,122,ls),
(570,114.667,o),
(420,105.333,o),
(270,94,cs),
(236.667,91.333,o),
(215.667,86.667,o),
(207,80,cs),
(176,57,ls),
(171.333,53.667,o),
(168,53.667,o),
(166,57,cs),
(121,120,ls),
(118.333,124,o),
(118.333,127.333,o),
(121,130,cs),
(138.333,143.333,o),
(153.333,172.333,o),
(156,211,cs),
(157.333,231,o),
(158,255.667,o),
(158,285,cs),
(158,315.667,o),
(139.667,358.667,o),
(113,388,c),
(124,400,l),
(226,327,l),
(222,314.333,o),
(219.333,298,o),
(218,278,cs),
(216.667,258,o),
(215.333,217.667,o),
(214,157,cs),
(214,145,o),
(215.667,142,o),
(225,142,cs)
);
},
{
closed = 1;
nodes = (
(264,487.667,o),
(238.333,482.667,o),
(185,472,c),
(107,530,l),
(112,543,l),
(139.333,539.667,o),
(169.333,538,o),
(202,538,cs),
(226,538,o),
(249.333,539,o),
(272,541,cs),
(317.333,543.667,o),
(426,551.333,o),
(598,564,cs),
(688,571,ls),
(753.333,576.333,o),
(786,582.333,o),
(818,601,cs),
(820.667,602.333,o),
(823.667,602,o),
(827,600,cs),
(920,548,l),
(917,533,l),
(849,529,ls),
(610.333,514.333,o),
(510.667,507.667,o),
(308,489,c)
);
}
);
width = 1000;
}
);
unicode = 101178;
}
{
glyphname = u18B44;
layers = (
{
layerId = master01;
shapes = (
{
closed = 1;
nodes = (
(592.333,399.667,o),
(701.667,411,o),
(711,413,cs),
(739.667,419,o),
(761.333,429.667,o),
(776,445,c),
(780,447.667,o),
(783.667,447.667,o),
(787,445,cs),
(839,402,ls),
(841.667,400,o),
(841.667,397,o),
(839,393,cs),
(825,374,ls),
(821.667,369.333,o),
(819.333,364.333,o),
(818,359,cs),
(812.667,329.667,o),
(799.333,220.667,o),
(794,166,c),
(732,157,l),
(741.333,229,o),
(750.333,317,o),
(753,353,cs),
(753,357,ls),
(753,359.667,o),
(750.667,361,o),
(746,361,cs),
(635.333,351.667,o),
(308,320.667,o),
(252,314,c),
(253,366,l),
(383,379,l),
(383,379,l)
);
},
{
closed = 1;
nodes = (
(284,337,o),
(281,302.667,o),
(281,260,cs),
(280,50,l),
(267,44,l),
(205,112,ls),
(203,114,o),
(203,117,o),
(205,121,cs),
(215,142.333,o),
(220,164,o),
(220,186,cs),
(220,317,ls),
(220,355.667,o),
(207,405,o),
(179,437,c),
(189,449,l),
(290,363,l),
(290,363,l)
);
},
{
closed = 1;
nodes = (
(468,491.333,o),
(467.667,604.667,o),
(467,632,cs),
(465.667,670.667,o),
(451.333,720,o),
(422,752,c),
(433,764,l),
(537,678,l),
(531,646.667,o),
(528,612.333,o),
(528,575,cs),
(528,-54,l),
(468,-61,l),
(468,292,l),
(468,292,l)
);
},
{
closed = 1;
nodes = (
(368.667,162,o),
(493.333,173,o),
(622,185,cs),
(686,191.667,o),
(719,198.333,o),
(751,217,cs),
(753.667,218.333,o),
(756.667,218,o),
(760,216,cs),
(853,167,l),
(850,152,l),
(610,134.667,o),
(493.333,126,o),
(252,102,c),
(248,152,l),
(248,152,l)
);
},
{
closed = 1;
nodes = (
(181.667,-112.333,o),
(141,-118,o),
(103,-126,c),
(28,-67,l),
(33,-54,l),
(73,-58,o),
(108.333,-60,o),
(139,-60,cs),
(151,-60,o),
(168.333,-59.333,o),
(191,-58,cs),
(331,-52,o),
(515.333,-41,o),
(744,-25,cs),
(810.667,-21,o),
(842.333,-15.667,o),
(873,3,cs),
(875.667,4.333,o),
(877.667,4.5,o),
(879,3.5,cs),
(880.333,2.5,o),
(881.333,2,o),
(882,2,c),
(973,-52,l),
(970,-67,l),
(725.333,-77.667,o),
(477,-91.667,o),
(225,-109,cs)
);
},
{
closed = 1;
nodes = (
(274,523,o),
(233.333,516.333,o),
(194,507,c),
(117,564,l),
(122,577,l),
(152,575,o),
(178.667,574,o),
(202,574,cs),
(228.667,574,o),
(254.667,575,o),
(280,577,cs),
(429.333,588.333,o),
(551.667,599,o),
(647,609,cs),
(708.333,614.333,o),
(743,621,o),
(775,641,cs),
(777.667,642.333,o),
(779.667,642.5,o),
(781,641.5,cs),
(782.333,640.5,o),
(783.333,640,o),
(784,640,c),
(876,590,l),
(873,575,l),
(746.333,566.333,o),
(560.667,550.333,o),
(316,527,cs)
);
}
);
width = 1000;
}
);
unicode = 101188;
}
{
glyphname = u18B4F;
layers = (
{
layerId = master01;
shapes = (
{
closed = 1;
nodes = (
(182.667,-91.333,o),
(142,-97,o),
(104,-105,c),
(29,-46,l),
(34,-33,l),
(74,-37,o),
(109.333,-39,o),
(140,-39,cs),
(152,-39,o),
(169.333,-38.333,o),
(192,-37,cs),
(330,-31,o),
(514.667,-20,o),
(746,-4,cs),
(812.667,0,o),
(844.333,5.333,o),
(875,24,cs),
(877.667,25.333,o),
(879.667,25.5,o),
(881,24.5,cs),
(882.333,23.5,o),
(883.333,23,o),
(884,23,c),
(975,-31,l),
(972,-46,l),
(725.333,-56.667,o),
(476.667,-70.667,o),
(226,-88,cs)
);
},
{
closed = 1;
nodes = (
(562,501,o),
(561.667,612.667,o),
(561,640,cs),
(559.667,678.667,o),
(545.333,728,o),
(516,760,c),
(527,772,l),
(631,686,l),
(625,654.667,o),
(622,620.333,o),
(622,583,cs),
(622,-35,l),
(562,-42,l),
(562,305,l),
(562,305,l)
);
},
{
closed = 1;
nodes = (
(372,501.333,o),
(371.667,614.667,o),
(371,642,cs),
(369.667,680.667,o),
(355.333,730,o),
(326,762,c),
(337,774,l),
(441,688,l),
(435,656.667,o),
(432,622.333,o),
(432,585,cs),
(432,-44,l),
(372,-51,l),
(372,302,l),
(372,302,l)
);
},
{
closed = 1;
nodes = (
(246.333,477,o),
(205.333,471.333,o),
(160,462,c),
(83,520,l),
(88,533,l),
(118.667,529.667,o),
(151.667,528,o),
(187,528,cs),
(201,528,o),
(221.333,528.667,o),
(248,530,cs),
(309.333,533.333,o),
(428.667,541.667,o),
(606,555,cs),
(644,558,ls),
(712,564.667,o),
(742,568.333,o),
(774,587,cs),
(776.667,588.333,o),
(779.667,588,o),
(783,586,cs),
(875,533,l),
(872,518,l),
(628,504.667,o),
(523,497.667,o),
(283,479,cs)
);
},
{
closed = 1;
nodes = (
(666.333,208,o),
(741.333,293.667,o),
(776,359,cs),
(788.667,385.667,o),
(795,411.333,o),
(795,436,cs),
(795,443.333,o),
(794.667,448.667,o),
(794,452,c),
(809,456,l),
(863,344,l),
(855.667,337.333,o),
(848,329,o),
(840,319,cs),
(829.333,307,o),
(821,298.333,o),
(815,293,cs),
(738.333,216.333,o),
(666.333,155.667,o),
(599,111,c),
(581,140,l),
(581,140,l)
);
},
{
closed = 1;
nodes = (
(187,333,o),
(246,251.333,o),
(286,186,c),
(287.333,182.667,o),
(287.667,179,o),
(287,175,cs),
(266,55,l),
(248,53,l),
(217.333,167.667,o),
(175.333,271.333,o),
(110,382,c),
(131,397,l),
(131,397,l)
);
}
);
width = 1000;
}
);
unicode = 101199;
}
{
glyphname = u18B59;
layers = (
{
layerId = master01;
shapes = (
{
closed = 1;
nodes = (
(588.333,80.333,o),
(624,35.667,o),
(660,-17,c),
(662,-21,o),
(662.333,-25.333,o),
(661,-30,cs),
(631,-131,l),
(608,-131,l),
(594.667,-59,o),
(568,27.667,o),
(532,105,c),
(553,117,l),
(553,117,l)
);
},
{
closed = 1;
nodes = (
(218.667,242,o),
(178,236.333,o),
(134,227,c),
(58,285,l),
(63,298,l),
(93.667,294.667,o),
(126.333,293,o),
(161,293,cs),
(174.333,293,o),
(194.333,293.667,o),
(221,295,cs),
(423,306.333,o),
(594,318.333,o),
(734,331,cs),
(800.667,336.333,o),
(831,341.333,o),
(863,360,cs),
(865.667,361.333,o),
(867.667,361.5,o),
(869,360.5,cs),
(870.333,359.5,o),
(871.333,359,o),
(872,359,c),
(963,306,l),
(960,291,l),
(728.667,279,o),
(494,263.333,o),
(256,244,cs)
);
},
{
closed = 1;
nodes = (
(483,441.333,o),
(481.667,557,o),
(479,631,cs),
(477.667,672.333,o),
(465.333,719,o),
(436,751,c),
(447,763,l),
(561,677,l),
(554.333,648.333,o),
(551,614,o),
(551,574,cs),
(551,291,l),
(483,284,l),
(483,284,l)
);
},
{
closed = 1;
nodes = (
(291,488.667,o),
(250.333,482.667,o),
(207,474,c),
(131,529,l),
(136,542,l),
(166.667,538.667,o),
(199.333,537,o),
(234,537,cs),
(247.333,537,o),
(267.333,537.667,o),
(294,539,cs),
(431,548,ls),
(545,555.333,o),
(615.667,560.333,o),
(643,563,cs),
(707,568.333,o),
(740,574.333,o),
(772,593,cs),
(774.667,594.333,o),
(776.667,594.5,o),
(778,593.5,cs),
(779.333,592.5,o),
(780.333,592,o),
(781,592,c),
(872,542,l),
(869,527,l),
(672.333,517,o),
(492.333,505.333,o),
(329,492,cs)
);
},
{
closed = 1;
nodes = (
(775.333,98,o),
(835.667,39.333,o),
(881,-12,c),
(884.333,-17.333,o),
(885.667,-22,o),
(885,-26,cs),
(874,-128,l),
(852,-135,l),
(800,-31,o),
(743.333,63.333,o),
(682,148,c),
(700,164,l),
(700,164,l)
);
},
{
closed = 1;
nodes = (
(413.333,82,o),
(437.667,38,o),
(463,-16,cs),
(472,-34,l),
(472,-37,ls),
(472,-39.667,o),
(471.333,-43,o),
(470,-47,c),
(420,-141,l),
(397,-138,l),
(398.333,-66,o),
(388,24.333,o),
(368,107,c),
(390,116,l),
(390,116,l)
);
},
{
closed = 1;
nodes = (
(248,-22.667,o),
(189.667,-118.333,o),
(151,-165,c),
(133,-163,l),
(101,-73,l),
(100.333,-69,o),
(101.333,-66.667,o),
(104,-66,cs),
(120,-62,o),
(134.667,-54.333,o),
(148,-43,cs),
(201.333,5,o),
(240.667,82,o),
(234,158,c),
(260,161,l),
(267.333,125.667,o),
(271,97.333,o),
(271,76,cs),
(271,58,o),
(268.667,42,o),
(264,28,cs)
);
}
);
width = 1000;
}
);
unicode = 101209;
}
{
glyphname = u18B5F;
layers = (
{
layerId = master01;
shapes = (
{
closed = 1;
nodes = (
(522,70,l),
(259,-70,ls),
(213.667,-94,o),
(180,-114,o),
(158,-130,c),
(63,-96,l),
(63,-83,l),
(112.333,-69,o),
(157,-53.333,o),
(197,-36,cs),
(509,98,l),
(509,98,l)
);
},
{
closed = 1;
nodes = (
(560,659,o),
(545,702.333,o),
(517,737,c),
(528,749,l),
(634,662,l),
(627.333,636.667,o),
(624,602.667,o),
(624,560,cs),
(624,-8,ls),
(624,-49.333,o),
(629.667,-60.667,o),
(659,-62,cs),
(692.333,-63.333,o),
(718.333,-64,o),
(737,-64,cs),
(791.667,-64,o),
(835,-61.333,o),
(867,-56,c),
(888.333,-54.667,o),
(892.667,-48.333,o),
(894,-27,cs),
(902,160,l),
(926,160,l),
(934,68,o),
(949.667,-35,o),
(967,-87,c),
(967.667,-87.667,o),
(968,-89,o),
(968,-91,cs),
(968,-94.333,o),
(966.333,-96.667,o),
(963,-98,cs),
(938.333,-108.667,o),
(901,-116.333,o),
(851,-121,cs),
(815,-125,o),
(778.667,-127,o),
(742,-127,cs),
(711.333,-127,o),
(679.333,-126,o),
(646,-124,cs),
(584.667,-121.333,o),
(560,-91.667,o),
(560,-21,cs),
(560,615,l),
(560,615,l)
);
},
{
closed = 1;
nodes = (
(205.667,289.667,o),
(174.667,284.333,o),
(144,277,c),
(76,324,l),
(81,336,l),
(102.333,334,o),
(121.333,333,o),
(138,333,cs),
(145.333,333,o),
(167,334,o),
(203,336,cs),
(226.333,338,o),
(240,339.333,o),
(244,340,cs),
(303.333,344,o),
(340.333,347.667,o),
(355,351,cs),
(369.667,354.333,o),
(381.833,358.333,o),
(391.5,363,cs),
(401.167,367.667,o),
(407.333,370.667,o),
(410,372,cs),
(412.667,373.333,o),
(415.667,373.333,o),
(419,372,cs),
(502,333,l),
(499,316,l),
(432.333,312,o),
(301,299.667,o),
(237,293,cs)
);
},
{
closed = 1;
nodes = (
(271,586,o),
(256,629.333,o),
(228,664,c),
(239,676,l),
(343,589,l),
(336.333,563.667,o),
(333,529.667,o),
(333,487,cs),
(333,3,l),
(271,-29,l),
(271,542,l),
(271,542,l)
);
},
{
closed = 1;
nodes = (
(684.667,389,o),
(787.667,345.667,o),
(857,311,cs),
(860.333,309.667,o),
(862,306.667,o),
(862,302,cs),
(863,206,l),
(848,199,l),
(788,260.333,o),
(688,337,o),
(588,393,c),
(594,421,l),
(594,421,l)
);
}
);
width = 1000;
}
);
unicode = 101215;
}
{
glyphname = u18B73;
layers = (
{
layerId = master01;
shapes = (
{
closed = 1;
nodes = (
(487,186.667,o),
(483.333,186.667,o),
(480,190,c),
(427,259,ls),
(424.333,263,o),
(424.333,266.333,o),
(427,269,cs),
(457.667,297,o),
(463.333,323,o),
(478,395,cs),
(491.333,467,o),
(515,615,o),
(515,663,cs),
(515,691.667,o),
(508.667,714,o),
(496,730,c),
(508,741,l),
(592,666,l),
(584,650.667,o),
(578,629.667,o),
(574,603,cs),
(549.333,457.667,o),
(532.333,351.667,o),
(523,285,cs),
(522,279,ls),
(522,272.333,o),
(526,269.333,o),
(534,270,cs),
(600,274.667,o),
(650.333,279.667,o),
(685,285,cs),
(725,291.667,o),
(757,307,o),
(781,331,cs),
(784.333,334.333,o),
(787.333,334.333,o),
(790,331,cs),
(852,271,ls),
(855.333,268.333,o),
(855.333,265.333,o),
(852,262,cs),
(827,237,ls),
(819.266,229.266,o),
(817,224.351,o),
(817,220,c),
(786.333,56,o),
(772.333,-5.333,o),
(735,-88,cs),
(721.667,-117.333,o),
(694,-148,o),
(670,-160,cs),
(667.333,-161.333,o),
(665.333,-162,o),
(664,-162,cs),
(661.333,-162,o),
(659,-160.333,o),
(657,-157,cs),
(633,-113,o),
(590.333,-70.667,o),
(521,-12,c),
(534,7,l),
(658,-59,l),
(664.667,-61.667,o),
(668,-63,o),
(668,-63,c),
(671.333,-63,o),
(674.667,-59.667,o),
(678,-53,cs),
(714,19,o),
(730.333,96,o),
(753,232,cs),
(753,234,ls),
(753,240,o),
(749.333,242.667,o),
(742,242,cs),
(542,222,ls),
(534,221.333,o),
(527,218.333,o),
(521,213,cs),
(491,190,l),
(491,190,l)
);
},
{
closed = 1;
nodes = (
(309,397.333,o),
(284.333,282.833,o),
(215,183.5,cs),
(180.333,133.833,o),
(132,90,o),
(70,52,c),
(54,75,l),
(162,156.333,o),
(214.5,257,o),
(236.5,373,cs),
(247.5,431,o),
(255.333,503.667,o),
(260,591,cs),
(262.667,645.667,o),
(253.667,682.667,o),
(223,724,c),
(235,736,l),
(339,651,l),
(331.667,630.333,o),
(327,606.667,o),
(325,580,cs)
);
},
{
closed = 1;
nodes = (
(199,418,o),
(158.667,412.333,o),
(114,403,c),
(39,461,l),
(44,474,l),
(74,470.667,o),
(106.333,469,o),
(141,469,cs),
(155,469,o),
(174.667,469.667,o),
(200,471,cs),
(287.333,476.333,o),
(378.167,483.167,o),
(472.5,491.5,cs),
(566.833,499.833,o),
(626.333,505,o),
(651,507,cs),
(739,515,ls),
(804.333,520.333,o),
(835,525.333,o),
(867,544,cs),
(869.667,545.333,o),
(872.333,544.333,o),
(875,543,cs),
(965,490,l),
(962,475,l),
(817.333,467.667,o),
(624,453.333,o),
(382,432,cs),
(235,420,l),
(235,420,l)
);
}
);
width = 1000;
}
);
unicode = 101235;
}
{
glyphname = u18B76;
layers = (
{
layerId = master01;
shapes = (
{
closed = 1;
nodes = (
(229,360.333,o),
(188.333,354.333,o),
(147,345,c),
(71,403,l),
(76,416,l),
(105.333,413.333,o),
(135,412,o),
(165,412,cs),
(180.333,412,o),
(203.333,412.667,o),
(234,414,cs),
(410,425.333,o),
(567.667,437.667,o),
(707,451,cs),
(776.333,459,o),
(804,462.333,o),
(836,481,cs),
(838,482.333,o),
(841,482,o),
(845,480,cs),
(936,428,l),
(933,413,l),
(737.667,401,o),
(516.333,384.333,o),
(269,363,cs)
);
},
{
closed = 1;
nodes = (
(605.667,244,o),
(687,121.333,o),
(753,34,cs),
(809,-40.667,o),
(854.333,-66.333,o),
(953,-89,c),
(952,-116,l),
(758,-125,ls),
(750.667,-125,o),
(746,-122.667,o),
(744,-118,cs),
(696.667,-18.667,o),
(614,133.333,o),
(496,338,c),
(509,402,l),
(509,402,l)
);
},
{
closed = 1;
nodes = (
(245.333,-34.333,o),
(362.167,90.167,o),
(417.5,265.5,cs),
(445.167,353.167,o),
(459,458,o),
(459,580,cs),
(459,596.781,o),
(463.554,636.97,o),
(449.5,688.5,cs),
(442.5,714.167,o),
(432.333,734.667,o),
(419,750,c),
(430,762,l),
(545,676,l),
(537,650,o),
(532.667,626.333,o),
(532,605,cs),
(522.667,330.333,o),
(467.5,148.5,o),
(333.5,10.5,cs),
(266.5,-58.5,o),
(174.667,-118.667,o),
(58,-170,c),
(44,-141,l),
(44,-141,l)
);
}
);
width = 1000;
}
);
unicode = 101238;
}
{
glyphname = u18B79;
layers = (
{
layerId = master01;
shapes = (
{
closed = 1;
nodes = (
(574.667,685.333,o),
(556.333,714,o),
(515,738,c),
(521,754,l),
(632,725,l),
(631,709,ls),
(631,691.667,o),
(636.667,668.667,o),
(646,634,cs),
(672,545.333,o),
(712.333,435.333,o),
(767,304,cs),
(803,217.333,o),
(825.333,169,o),
(872,125,cs),
(895.333,103,o),
(923.667,88.667,o),
(957,82,c),
(958,60,l),
(808,47,l),
(806,47,ls),
(798,47,o),
(791.667,52.667,o),
(789,58,c),
(723,244,o),
(656,439.333,o),
(588,644,cs)
);
},
{
closed = 1;
nodes = (
(344,357,o),
(225.333,149,o),
(80,9,c),
(59,29,l),
(199,194.333,o),
(308.333,419.667,o),
(359,617,cs),
(362.333,631.667,o),
(364,647,o),
(364,663,cs),
(364,695,o),
(358.333,722.667,o),
(347,746,c),
(361,755,l),
(453,638,l),
(439.667,616.667,o),
(428,589,o),
(412,545,cs)
);
},
{
closed = 1;
nodes = (
(219.333,432.333,o),
(178.667,426,o),
(144,418,c),
(66,475,l),
(71,488,l),
(103,486,o),
(131.667,485,o),
(157,485,cs),
(174.333,485,o),
(199,485.667,o),
(231,487,cs),
(277.667,491,o),
(319,494,o),
(355,496,cs),
(457.667,503.333,o),
(573.333,512.667,o),
(702,524,cs),
(763.333,529.333,o),
(798.667,537,o),
(832,557,cs),
(834.667,558.333,o),
(837.667,558,o),
(841,556,cs),
(934,504,l),
(931,489,l),
(893,485.667,o),
(817.667,480,o),
(705,472,cs),
(485,455.333,o),
(338.667,443.667,o),
(266,437,cs)
);
},
{
closed = 1;
nodes = (
(294.667,-44.667,o),
(394.667,85,o),
(444,213,cs),
(450,229.667,o),
(453,247.667,o),
(453,267,cs),
(453,283.667,o),
(451.333,297.667,o),
(448,309,c),
(461,315,l),
(533,210,l),
(520.333,194.667,o),
(507.333,175.667,o),
(494,153,cs),
(422,31.667,o),
(318.333,-83,o),
(193,-171,c),
(172,-146,l),
(172,-146,l)
);
},
{
closed = 1;
nodes = (
(571.667,72.333,o),
(640.667,21.333,o),
(722,-56,c),
(725.333,-58,o),
(726.333,-61,o),
(725,-65,c),
(709,-164,l),
(691,-166,l),
(629.667,-67.333,o),
(539,39.667,o),
(439,125,c),
(461,147,l),
(461,147,l)
);
}
);
width = 1000;
}
);
unicode = 101241;
}
{
glyphname = u18B96;
layers = (
{
layerId = master01;
shapes = (
{
closed = 1;
nodes = (
(663,396.333,o),
(666,98.667,o),
(670,-4,cs),
(671.333,-28,o),
(670.333,-49.667,o),
(667,-69,cs),
(659,-113,o),
(651,-132,o),
(635,-156,cs),
(630.333,-164,o),
(625.667,-168,o),
(621,-168,cs),
(617.667,-168,o),
(613.667,-165.667,o),
(609,-161,cs),
(541.667,-99,o),
(469.667,-45.667,o),
(393,-1,c),
(406,24,l),
(582,-55,ls),
(586,-56.333,o),
(588.333,-57,o),
(589,-57,cs),
(595.667,-57,o),
(599.667,-50.667,o),
(601,-38,cs),
(603.667,-8,o),
(605,61,o),
(605,169,cs),
(605,341,o),
(602.667,553.333,o),
(600,616,cs),
(598.667,658.667,o),
(584,719,o),
(556,751,c),
(568,763,l),
(672,677,l),
(666,645.667,o),
(663,611.667,o),
(663,575,cs)
);
},
{
closed = 1;
nodes = (
(403.333,502.333,o),
(400,468,o),
(400,424,cs),
(394,115,l),
(382,108,l),
(321,178,ls),
(318.333,180.667,o),
(318.333,183.667,o),
(321,187,c),
(329.667,202.333,o),
(334.667,222.333,o),
(336,247,cs),
(338.667,308.333,o),
(340,368.667,o),
(340,428,cs),
(339,481,ls),
(339,521,o),
(327,568.667,o),
(299,602,c),
(310,614,l),
(410,527,l),
(410,527,l)
);
}
);
width = 1000;
}
);
unicode = 101270;
}
{
glyphname = u18B98;
layers = (
{
layerId = master01;
shapes = (
{
closed = 1;
nodes = (
(569,556,o),
(568.667,621.333,o),
(568,640,cs),
(566.667,677.333,o),
(553.333,725.333,o),
(528,756,c),
(539,768,l),
(641,686,l),
(634.333,657.333,o),
(631,623,o),
(631,583,cs),
(630,-54,l),
(568,-61,l),
(569,444,l),
(569,444,l)
);
},
{
closed = 1;
nodes = (
(194.333,-110,o),
(153.333,-115.667,o),
(108,-125,c),
(31,-67,l),
(36,-54,l),
(66.667,-57.333,o),
(99.667,-59,o),
(135,-59,cs),
(149,-59,o),
(169.333,-58.333,o),
(196,-57,cs),
(376,-47.667,o),
(558.333,-34,o),
(741,-18,cs),
(809,-11.333,o),
(839,-7.667,o),
(871,11,cs),
(873.667,12.333,o),
(876.667,12,o),
(880,10,cs),
(972,-43,l),
(969,-58,l),
(755,-68.667,o),
(509,-85.333,o),
(231,-108,cs)
);
},
{
closed = 1;
nodes = (
(364.333,47.333,o),
(365,205,o),
(365,399,cs),
(365,514.333,o),
(364.333,591.333,o),
(363,630,cs),
(361.667,667.333,o),
(348.333,715.333,o),
(323,746,c),
(334,758,l),
(436,676,l),
(429.333,647.333,o),
(426,613,o),
(426,573,cs),
(425,-70,l),
(363,-74,l),
(363,-74,l)
);
},
{
closed = 1;
nodes = (
(195.333,413.333,o),
(245.667,358.667,o),
(299,292,cs),
(301.667,288.667,o),
(303,284,o),
(303,278,cs),
(294,141,l),
(276,138,l),
(230.667,255.333,o),
(176.333,358.333,o),
(91,477,c),
(110,492,l),
(110,492,l)
);
},
{
closed = 1;
nodes = (
(679,465,o),
(743,537,o),
(771,593,cs),
(783.667,619.667,o),
(790,645,o),
(790,669,cs),
(790,676.333,o),
(789.667,682,o),
(789,686,c),
(805,690,l),
(862,574,l),
(851.333,564.667,o),
(834,548.667,o),
(810,526,cs),
(743.333,464,o),
(674.333,410.333,o),
(603,365,c),
(603,405,l),
(603,405,l)
);
},
{
closed = 1;
nodes = (
(685.667,293.333,o),
(777.333,244.333,o),
(870,185,c),
(873.333,181.667,o),
(875.333,178,o),
(876,174,cs),
(887,63,l),
(874,56,l),
(799.333,141.333,o),
(696.333,231.667,o),
(583,309,c),
(595,332,l),
(595,332,l)
);
}
);
width = 1000;
}
);
unicode = 101272;
}
{
glyphname = u18B99;
layers = (
{
layerId = master01;
shapes = (
{
closed = 1;
nodes = (
(643.333,646.333,o),
(640,612,o),
(640,572,cs),
(640,493.333,o),
(639.333,371.333,o),
(638,206,cs),
(636,81.333,o),
(635,-41,o),
(635,-161,c),
(622,-167,l),
(557,-98,ls),
(555.667,-96.667,o),
(555.667,-93.667,o),
(557,-89,cs),
(565,-71,o),
(569.667,-49.333,o),
(571,-24,cs),
(575.667,117.333,o),
(578,261.667,o),
(578,409,cs),
(578,493,o),
(577,566.333,o),
(575,629,cs),
(573.667,670.333,o),
(561.333,717,o),
(532,749,c),
(543,761,l),
(650,675,l),
(650,675,l)
);
},
{
closed = 1;
nodes = (
(433.333,637.333,o),
(430,603,o),
(430,563,cs),
(430,485.667,o),
(429.333,365,o),
(428,201,cs),
(426,78.333,o),
(425,-42.333,o),
(425,-161,c),
(412,-167,l),
(347,-98,ls),
(345.667,-96.667,o),
(345.667,-93.667,o),
(347,-89,cs),
(355,-71,o),
(359.667,-49.333,o),
(361,-24,cs),
(365.667,116,o),
(368,258.667,o),
(368,404,cs),
(368,486,o),
(367,558,o),
(365,620,cs),
(363.667,661.333,o),
(351.333,708,o),
(322,740,c),
(333,752,l),
(440,666,l),
(440,666,l)
);
},
{
closed = 1;
nodes = (
(180,513.667,o),
(241.333,468,o),
(306,416,cs),
(311.333,411.333,o),
(313.667,406,o),
(313,400,cs),
(298,296,l),
(282,292,l),
(229.333,386,o),
(171,466.667,o),
(107,534,c),
(122,553,l),
(122,553,l)
);
},
{
closed = 1;
nodes = (
(503,272,l),
(233,62,ls),
(184.333,24,o),
(154.333,-1.333,o),
(143,-14,c),
(43,17,l),
(41,30,l),
(88.333,48.667,o),
(131.333,70.333,o),
(170,95,cs),
(486,298,l),
(486,298,l)
);
},
{
closed = 1;
nodes = (
(798,162.667,o),
(829,168.333,o),
(861,187,cs),
(863.667,188.333,o),
(866.667,188,o),
(870,186,cs),
(961,136,l),
(958,121,l),
(874.667,115.667,o),
(756.333,107,o),
(603,95,c),
(603,144,l),
(734,156,l),
(734,156,l)
);
},
{
closed = 1;
nodes = (
(751,352.667,o),
(782,358.333,o),
(814,377,cs),
(816.667,378.333,o),
(819.667,378,o),
(823,376,cs),
(906,326,l),
(903,311,l),
(855.667,308.333,o),
(791.667,303.667,o),
(711,297,cs),
(605,289,l),
(605,338,l),
(687,346,l),
(687,346,l)
);
},
{
closed = 1;
nodes = (
(650.333,522.667,o),
(659.333,523.333,o),
(670,524,cs),
(680.667,524.667,o),
(693,526,o),
(707,528,cs),
(775,536,o),
(803,540.333,o),
(835,559,cs),
(838.333,561,o),
(841.333,561,o),
(844,559,cs),
(926,507,l),
(924,492,l),
(840,486.667,o),
(734.333,479,o),
(607,469,c),
(607,519,l),
(643,522,l),
(643,522,l)
);
}
);
width = 1000;
}
);
unicode = 101273;
}
{
glyphname = u18B9A;
layers = (
{
layerId = master01;
shapes = (
{
closed = 1;
nodes = (
(643.333,646.333,o),
(640,612,o),
(640,572,cs),
(640,493.333,o),
(639.333,371.333,o),
(638,206,cs),
(636,81.333,o),
(635,-41,o),
(635,-161,c),
(622,-167,l),
(557,-98,ls),
(555.667,-96.667,o),
(555.667,-93.667,o),
(557,-89,cs),
(565,-71,o),
(569.667,-49.333,o),
(571,-24,cs),
(575.667,117.333,o),
(578,261.667,o),
(578,409,cs),
(578,493,o),
(577,566.333,o),
(575,629,cs),
(573.667,670.333,o),
(561.333,717,o),
(532,749,c),
(543,761,l),
(650,675,l),
(650,675,l)
);
},
{
closed = 1;
nodes = (
(433.333,637.333,o),
(430,603,o),
(430,563,cs),
(430,485.667,o),
(429.333,365,o),
(428,201,cs),
(426,78.333,o),
(425,-42.333,o),
(425,-161,c),
(412,-167,l),
(347,-98,ls),
(345.667,-96.667,o),
(345.667,-93.667,o),
(347,-89,cs),
(355,-71,o),
(359.667,-49.333,o),
(361,-24,cs),
(365.667,116,o),
(368,258.667,o),
(368,404,cs),
(368,486,o),
(367,558,o),
(365,620,cs),
(363.667,661.333,o),
(351.333,708,o),
(322,740,c),
(333,752,l),
(440,666,l),
(440,666,l)
);
},
{
closed = 1;
nodes = (
(527,188,l),
(238,42,ls),
(188.667,17.333,o),
(154.333,-2.667,o),
(135,-18,c),
(40,29,l),
(41,42,l),
(91.667,51.333,o),
(138,64.333,o),
(180,81,cs),
(515,216,l),
(515,216,l)
);
},
{
closed = 1;
nodes = (
(798,162.667,o),
(829,168.333,o),
(861,187,cs),
(863.667,188.333,o),
(866.667,188,o),
(870,186,cs),
(961,136,l),
(958,121,l),
(874.667,115.667,o),
(756.333,107,o),
(603,95,c),
(603,144,l),
(734,156,l),
(734,156,l)
);
},
{
closed = 1;
nodes = (
(751,352.667,o),
(782,358.333,o),
(814,377,cs),
(816.667,378.333,o),
(819.667,378,o),
(823,376,cs),
(906,326,l),
(903,311,l),
(855.667,308.333,o),
(791.667,303.667,o),
(711,297,cs),
(605,289,l),
(605,338,l),
(687,346,l),
(687,346,l)
);
},
{
closed = 1;
nodes = (
(650.333,522.667,o),
(659.333,523.333,o),
(670,524,cs),
(680.667,524.667,o),
(693,526,o),
(707,528,cs),
(775,536,o),
(803,540.333,o),
(835,559,cs),
(838.333,561,o),
(841.333,561,o),
(844,559,cs),
(926,507,l),
(924,492,l),
(840,486.667,o),
(734.333,479,o),
(607,469,c),
(607,519,l),
(643,522,l),
(643,522,l)
);
},
{
closed = 1;
nodes = (
(200.333,264.667,o),
(169.333,258.667,o),
(144,252,c),
(83,298,l),
(87,310,l),
(109.667,308.667,o),
(124.667,308,o),
(132,308,cs),
(142.667,308,o),
(162.667,309.333,o),
(192,312,cs),
(225.333,316,o),
(251,319.667,o),
(269,323,cs),
(297,328.333,o),
(313.333,335,o),
(332,347,cs),
(335.333,349,o),
(338.333,349,o),
(341,347,c),
(416,309,l),
(414,293,l),
(364.667,288.333,o),
(305.667,280.667,o),
(237,270,cs)
);
},
{
closed = 1;
nodes = (
(181,443.333,o),
(149.667,438.667,o),
(129,434,c),
(70,482,l),
(74,494,l),
(96,491.333,o),
(116.667,490,o),
(136,490,cs),
(143.333,490,o),
(157.667,490.667,o),
(179,492,cs),
(212.333,494,o),
(241.333,496.667,o),
(266,500,cs),
(290,504,o),
(311,511.333,o),
(329,522,cs),
(331.667,523.333,o),
(334.667,523,o),
(338,521,cs),
(412,481,l),
(409,465,l),
(335,459.667,o),
(273,454,o),
(223,448,cs)
);
}
);
width = 1000;
}
);
unicode = 101274;
}
{
glyphname = u18BA8;
layers = (
{
layerId = master01;
shapes = (
{
closed = 1;
nodes = (
(460,550.667,o),
(459.667,610.333,o),
(459,629,cs),
(457.667,666.333,o),
(444.333,714.333,o),
(419,745,c),
(430,757,l),
(532,675,l),
(525.333,646.333,o),
(522,612,o),
(522,572,cs),
(521,1,l),
(459,-6,l),
(460,450,l),
(460,450,l)
);
},
{
closed = 1;
nodes = (
(600.333,264,o),
(705,381.667,o),
(749,467,c),
(761,496.333,o),
(767,522,o),
(767,544,cs),
(767,551.333,o),
(766.667,556.667,o),
(766,560,c),
(781,564,l),
(838,443,l),
(816.667,424.333,o),
(800,408.333,o),
(788,395,cs),
(697.333,298.333,o),
(602,217.333,o),
(502,152,c),
(483,176,l),
(483,176,l)
);
},
{
closed = 1;
nodes = (
(233,437.667,o),
(305,381.667,o),
(355,337,c),
(357.667,335.667,o),
(358.667,332,o),
(358,326,cs),
(346,208,l),
(333,205,l),
(273,311.667,o),
(218.667,386,o),
(120,486,c),
(139,505,l),
(139,505,l)
);
},
{
closed = 1;
nodes = (
(194.667,-50.333,o),
(154,-56,o),
(116,-64,c),
(40,-9,l),
(45,4,l),
(72.333,1.333,o),
(101,0,o),
(131,0,cs),
(146.333,0,o),
(170,0.667,o),
(202,2,cs),
(351.333,11.333,o),
(498.333,22,o),
(643,34,cs),
(755,43,ls),
(805.667,47,o),
(844,56.333,o),
(884,75,cs),
(888.667,77,o),
(892,77,o),
(894,75,cs),
(958,15,ls),
(960.667,13,o),
(960.667,10.667,o),
(958,8,cs),
(936.667,-17.333,o),
(824,-123.333,o),
(780,-158,c),
(759,-138,l),
(803,-92.667,o),
(850,-31.667,o),
(862,-9,cs),
(865.333,-3.667,o),
(864.333,-1,o),
(859,-1,cs),
(733.667,-7.667,o),
(534,-22.333,o),
(260,-45,cs),
(238,-47,l),
(238,-47,l)
);
}
);
width = 1000;
}
);
unicode = 101288;
}
{
glyphname = u18BAC;
layers = (
{
layerId = master01;
shapes = (
{
closed = 1;
nodes = (
(471,558.333,o),
(470.667,623,o),
(470,641,cs),
(468.667,678.333,o),
(456.333,725,o),
(431,757,c),
(442,769,l),
(541,687,l),
(534.333,658.333,o),
(531,624,o),
(531,584,cs),
(531,452,l),
(471,447,l),
(471,447,l)
);
},
{
closed = 1;
nodes = (
(246.667,670.667,o),
(301.667,632,o),
(367,582,cs),
(372.333,578,o),
(375,570,o),
(375,558,cs),
(373,474,l),
(358,471,l),
(322,533.667,o),
(248.333,624.333,o),
(187,679,c),
(202,698,l),
(202,698,l)
);
},
{
closed = 1;
nodes = (
(624.667,527.333,o),
(688.333,606,o),
(715,662,cs),
(729,693.333,o),
(735,721,o),
(733,745,c),
(748,749,l),
(805,648,l),
(788.333,634.667,o),
(769.333,617.333,o),
(748,596,cs),
(686.667,536,o),
(633.667,488.333,o),
(563,443,c),
(546,462,l),
(546,462,l)
);
},
{
closed = 1;
nodes = (
(189.333,390.667,o),
(148.333,384.333,o),
(107,375,c),
(29,431,l),
(34,444,l),
(66,442,o),
(94.667,441,o),
(120,441,cs),
(137.333,441,o),
(162,441.667,o),
(194,443,cs),
(396.667,456.333,o),
(580,471.667,o),
(744,489,cs),
(813.333,497,o),
(842,501.333,o),
(874,520,cs),
(876.667,521.333,o),
(879.667,521,o),
(883,519,cs),
(976,468,l),
(973,453,l),
(707.667,435.667,o),
(460,416,o),
(230,394,cs)
);
},
{
closed = 1;
nodes = (
(424.333,350,o),
(413.667,341,o),
(405,333,cs),
(384,315,ls),
(280.667,229.667,o),
(167.667,157.333,o),
(45,98,c),
(30,126,l),
(172.667,202,o),
(298.667,300,o),
(352,380,cs),
(364,399.333,o),
(372,418.333,o),
(376,437,c),
(407,439,l),
(437,360,l),
(437,360,l)
);
},
{
closed = 1;
nodes = (
(505.667,160,o),
(592.333,143.667,o),
(647,125,cs),
(651.667,123.667,o),
(654.333,121,o),
(655,117,c),
(681,40,l),
(670,27,l),
(571.333,81.667,o),
(503.333,112.667,o),
(382,150,c),
(387,174,l),
(387,174,l)
);
},
{
closed = 1;
nodes = (
(533.667,289,o),
(681,301.333,o),
(709,306,cs),
(756.333,315.333,o),
(791.333,331.333,o),
(814,354,cs),
(817.333,357.333,o),
(820.667,357.333,o),
(824,354,cs),
(880,291,l),
(883.333,288.333,o),
(883.333,285.333,o),
(880,282,cs),
(855,259,ls),
(845.667,251,o),
(846.333,251.333,o),
(845,242,cs),
(839,165,ls),
(833.667,89,o),
(829.5,34.833,o),
(826.5,2.5,cs),
(823.5,-29.833,o),
(819,-59.333,o),
(813,-86,cs),
(806.333,-116.667,o),
(789,-151.333,o),
(773,-166,cs),
(771,-168,o),
(769,-169,o),
(767,-169,cs),
(764.333,-169,o),
(761.333,-167.333,o),
(758,-164,cs),
(702,-113.333,o),
(634.667,-71.333,o),
(532,-22,c),
(541,-1,l),
(734,-64,l),
(742,-66,l),
(747.333,-66,o),
(751,-61.667,o),
(753,-53,cs),
(765,3.667,o),
(774.667,104.333,o),
(782,249,cs),
(782,258.333,o),
(778.667,261.333,o),
(772,260,cs),
(726.667,256,o),
(683.667,252.5,o),
(643,249.5,cs),
(602.333,246.5,o),
(566,243.667,o),
(534,241,cs),
(428.667,234.333,o),
(341.333,227.667,o),
(272,221,c),
(267,269,l),
(267,269,l)
);
},
{
closed = 1;
nodes = (
(299.667,244,o),
(297,209.667,o),
(297,169,cs),
(297,-156,l),
(283,-162,l),
(222,-94,ls),
(220,-92,o),
(220,-89,o),
(222,-85,cs),
(232,-64.333,o),
(237,-42.667,o),
(237,-20,cs),
(238.333,28,o),
(239,68,o),
(239,100,cs),
(239,132.667,o),
(238.333,172.333,o),
(237,219,cs),
(237,223,o),
(236.333,231.667,o),
(235,245,c),
(283,290,l),
(305,272,l),
(305,272,l)
);
}
);
width = 1000;
}
);
unicode = 101292;
}
{
glyphname = u18BB2;
layers = (
{
layerId = master01;
shapes = (
{
closed = 1;
nodes = (
(188.667,609,o),
(186,574.667,o),
(186,534,cs),
(186,-145,l),
(172,-151,l),
(115,-85,ls),
(113,-83,o),
(113,-80,o),
(115,-76,cs),
(125,-55.333,o),
(130,-33.667,o),
(130,-11,cs),
(132,106.333,o),
(133,206.667,o),
(133,290,cs),
(133,373.333,o),
(132,473,o),
(130,589,cs),
(128.667,631.667,o),
(116,684,o),
(88,716,c),
(99,727,l),
(194,637,l),
(194,637,l)
);
},
{
closed = 1;
nodes = (
(514.667,672,o),
(709.333,687.667,o),
(744,693,cs),
(784,698.333,o),
(809,711.667,o),
(833,737,cs),
(836.333,740.333,o),
(839.667,740.333,o),
(843,737,cs),
(901,678,ls),
(904.333,675.333,o),
(904.333,672.333,o),
(901,669,cs),
(876,646,ls),
(868,639.333,o),
(866,637,o),
(866,629,cs),
(864.667,458.333,o),
(864,314.333,o),
(864,197,cs),
(864,96.333,o),
(864.667,32.667,o),
(866,6,cs),
(867.333,-18,o),
(866.333,-39.667,o),
(863,-59,cs),
(855,-103,o),
(847,-122,o),
(831,-146,cs),
(826.333,-154,o),
(822,-158,o),
(818,-158,cs),
(814.667,-158,o),
(810.667,-155.667,o),
(806,-151,cs),
(761.333,-107,o),
(697.667,-62,o),
(615,-16,c),
(628,9,l),
(779,-48,ls),
(781,-48.667,o),
(783.333,-49,o),
(786,-49,cs),
(792.667,-49,o),
(796.667,-43,o),
(798,-31,cs),
(802.667,27.667,o),
(805,250.333,o),
(805,637,cs),
(805,646.333,o),
(801.667,649.333,o),
(795,648,cs),
(736.333,642,o),
(641.333,634,o),
(510,624,cs),
(337.333,610,o),
(220.667,600,o),
(160,594,c),
(160,646,l),
(160,646,l)
);
},
{
closed = 1;
nodes = (
(548,491.667,o),
(618,461.333,o),
(692,422,cs),
(696.667,419.333,o),
(699.667,416,o),
(701,412,cs),
(718,326,l),
(701,314,l),
(649,370,o),
(556,441.667,o),
(472,491,c),
(482,513,l),
(482,513,l)
);
},
{
closed = 1;
nodes = (
(561.333,210,o),
(641.667,177,o),
(695,149,cs),
(699.667,146.333,o),
(702.667,143,o),
(704,139,cs),
(721,53,l),
(704,41,l),
(652,94.333,o),
(563.333,161.333,o),
(482,208,c),
(492,230,l),
(492,230,l)
);
},
{
closed = 1;
nodes = (
(337.667,64.667,o),
(400.833,131,o),
(433.5,191,cs),
(449.833,221,o),
(460,247.667,o),
(464,271,cs),
(466,280.333,o),
(467,292,o),
(467,306,cs),
(467,328.667,o),
(463,348.333,o),
(455,365,c),
(468,373,l),
(550,290,l),
(544,282,o),
(534.667,264.667,o),
(522,238,cs),
(513,219,ls),
(462.333,120.333,o),
(394.667,46.667,o),
(256,-8,c),
(243,18,l),
(243,18,l)
);
},
{
closed = 1;
nodes = (
(544.333,568.667,o),
(537,557,o),
(529,541,cs),
(521,525,o),
(515.667,514.667,o),
(513,510,cs),
(462.333,411.333,o),
(392.333,337.667,o),
(255,283,c),
(242,309,l),
(371.333,371.667,o),
(437.333,464.667,o),
(464,562,cs),
(466.667,572.667,o),
(468,583,o),
(468,593,cs),
(468,609.667,o),
(465,627,o),
(459,645,c),
(484,646,l),
(551,576,l),
(551,576,l)
);
}
);
width = 1000;
}
);
unicode = 101298;
}
{
glyphname = u18BB4;
layers = (
{
layerId = master01;
shapes = (
{
closed = 1;
nodes = (
(514.667,672,o),
(709.333,687.667,o),
(744,693,cs),
(784,698.333,o),
(809,711.667,o),
(833,737,cs),
(836.333,740.333,o),
(839.667,740.333,o),
(843,737,cs),
(901,678,ls),
(904.333,675.333,o),
(904.333,672.333,o),
(901,669,cs),
(876,646,ls),
(868,639.333,o),
(866,637,o),
(866,629,cs),
(864.667,458.333,o),
(864,314.333,o),
(864,197,cs),
(864,96.333,o),
(864.667,32.667,o),
(866,6,cs),
(867.333,-18,o),
(866.333,-39.667,o),
(863,-59,cs),
(855,-103,o),
(847,-122,o),
(831,-146,cs),
(826.333,-154,o),
(822.333,-158,o),
(819,-158,cs),
(815.667,-158,o),
(811.333,-155.667,o),
(806,-151,cs),
(754.667,-105.667,o),
(692,-61,o),
(618,-17,c),
(630,8,l),
(779,-48,ls),
(781,-48.667,o),
(783.333,-49,o),
(786,-49,cs),
(792.667,-49,o),
(796.667,-43,o),
(798,-31,cs),
(802.667,27.667,o),
(805,250.333,o),
(805,637,cs),
(805,646.333,o),
(801.667,649.333,o),
(795,648,cs),
(736.333,642,o),
(641.333,634,o),
(510,624,cs),
(337.333,610,o),
(220.667,600,o),
(160,594,c),
(160,646,l),
(160,646,l)
);
},
{
closed = 1;
nodes = (
(189.667,609,o),
(187,574.667,o),
(187,534,cs),
(187,-145,l),
(173,-151,l),
(112,-85,ls),
(110,-83,o),
(110,-80,o),
(112,-76,cs),
(122,-55.333,o),
(127,-33.667,o),
(127,-11,cs),
(129,106.333,o),
(130,206.667,o),
(130,290,cs),
(130,373.333,o),
(129,473,o),
(127,589,cs),
(125.667,631.667,o),
(113,684,o),
(85,716,c),
(96,727,l),
(195,637,l),
(195,637,l)
);
},
{
closed = 1;
nodes = (
(631.667,292.667,o),
(689.333,231,o),
(738,173,cs),
(740.667,170.333,o),
(741.333,165.333,o),
(740,158,cs),
(719,58,l),
(701,54,l),
(659,158,o),
(607.333,254.667,o),
(546,344,c),
(565,358,l),
(565,358,l)
);
},
{
closed = 1;
nodes = (
(332,100,o),
(310.333,93.667,o),
(295,87,cs),
(291,85.667,o),
(287.667,87,o),
(285,91,cs),
(242,152,ls),
(240.667,153.333,o),
(240,155,o),
(240,157,cs),
(240,161,o),
(242,163.333,o),
(246,164,cs),
(283.333,170.667,o),
(301.333,180,o),
(320,200,cs),
(364,248,o),
(435,374.333,o),
(459,433,cs),
(471,463,o),
(477,490.667,o),
(477,516,cs),
(477,526,o),
(476,535.333,o),
(474,544,c),
(491,552,l),
(560,444,l),
(549.333,434.667,o),
(536.667,419.333,o),
(522,398,cs),
(459.333,305.333,o),
(400.333,225.333,o),
(345,158,c),
(668,207,l),
(679,174,l),
(360,106,l),
(360,106,l)
);
}
);
width = 1000;
}
);
unicode = 101300;
}
{
glyphname = u18BC1;
layers = (
{
layerId = master01;
shapes = (
{
closed = 1;
nodes = (
(276,109.333,o),
(178,16.667,o),
(46,-70,c),
(27,-44,l),
(161.667,60,o),
(285.333,211,o),
(328,323,c),
(352,220,l),
(352,220,l)
);
},
{
closed = 1;
nodes = (
(468.667,662.667,o),
(537.667,671,o),
(563,675,cs),
(603,680.333,o),
(628,693.667,o),
(652,719,cs),
(655.333,722.333,o),
(658.667,722.333,o),
(662,719,cs),
(720,660,ls),
(723.333,657.333,o),
(723.333,654.333,o),
(720,651,cs),
(695,628,ls),
(687,621.333,o),
(685,619,o),
(685,611,cs),
(683.667,444.333,o),
(683,304.667,o),
(683,192,cs),
(683,94.667,o),
(683.667,33,o),
(685,7,cs),
(686.333,-17,o),
(685.333,-38.667,o),
(682,-58,cs),
(672.667,-104.667,o),
(664.667,-128.333,o),
(650,-151,cs),
(645.333,-157.667,o),
(641,-161,o),
(637,-161,cs),
(633,-161,o),
(628,-158.333,o),
(622,-153,cs),
(567.333,-103,o),
(518.333,-63,o),
(475,-33,c),
(487,-11,l),
(598,-56,ls),
(600,-56.667,o),
(602.333,-57,o),
(605,-57,cs),
(611.667,-57,o),
(615.667,-51,o),
(617,-39,cs),
(621.667,18.333,o),
(624,237.667,o),
(624,619,cs),
(624,628.333,o),
(620.667,631.333,o),
(614,630,cs),
(402,608,l),
(361,603,l),
(356,650,l),
(356,650,l)
);
},
{
closed = 1;
nodes = (
(380.667,605,o),
(378,570.667,o),
(378,530,cs),
(378,-153,l),
(364,-159,l),
(303,-93,ls),
(301,-91,o),
(301,-88,o),
(303,-84,cs),
(313,-63.333,o),
(318,-41.667,o),
(318,-19,cs),
(320,98.333,o),
(321,199.333,o),
(321,284,cs),
(321,368.667,o),
(320,469,o),
(318,585,cs),
(316.667,627.667,o),
(304,680,o),
(276,712,c),
(287,723,l),
(386,633,l),
(386,633,l)
);
},
{
closed = 1;
nodes = (
(191.333,340,o),
(150.333,334.333,o),
(105,325,c),
(28,383,l),
(33,396,l),
(63.667,392.667,o),
(96.667,391,o),
(132,391,cs),
(146,391,o),
(166.333,391.667,o),
(193,393,cs),
(405.667,403.667,o),
(589.333,416,o),
(744,430,cs),
(812,436.667,o),
(842,440.333,o),
(874,459,cs),
(876.667,460.333,o),
(879.667,460,o),
(883,458,cs),
(975,405,l),
(972,390,l),
(715.333,377.333,o),
(467.333,361.333,o),
(228,342,cs)
);
},
{
closed = 1;
nodes = (
(746,218.333,o),
(844.333,123,o),
(911,51,cs),
(913.667,48.333,o),
(915,44.667,o),
(915,40,cs),
(909,-83,l),
(887,-91,l),
(835,21,o),
(744.667,153.333,o),
(642,268,c),
(658,289,l),
(658,289,l)
);
}
);
width = 1000;
}
);
unicode = 101313;
}
{
glyphname = u18BC3;
layers = (
{
layerId = master01;
shapes = (
{
closed = 1;
nodes = (
(499.667,659.333,o),
(634.333,672.667,o),
(665,678,cs),
(705,683.333,o),
(730,696.667,o),
(754,722,cs),
(757.333,725.333,o),
(760.667,725.333,o),
(764,722,cs),
(822,663,ls),
(825.333,660.333,o),
(825.333,657.333,o),
(822,654,cs),
(797,631,ls),
(789,624.333,o),
(787,622,o),
(787,614,cs),
(785.667,450,o),
(785,311.333,o),
(785,198,cs),
(785,100.667,o),
(785.667,39,o),
(787,13,cs),
(788.333,-11,o),
(787.333,-32.667,o),
(784,-52,cs),
(776,-96,o),
(768,-115,o),
(752,-139,cs),
(747.333,-147,o),
(743,-151,o),
(739,-151,cs),
(735.667,-151,o),
(731.667,-148.667,o),
(727,-144,cs),
(674.333,-92.667,o),
(612.333,-45.333,o),
(541,-2,c),
(554,23,l),
(698,-38,ls),
(702,-39.333,o),
(704.333,-40,o),
(705,-40,cs),
(711.667,-40,o),
(715.667,-33.667,o),
(717,-21,cs),
(721.667,35.667,o),
(724,249,o),
(724,619,cs),
(724,628.333,o),
(720.667,631.333,o),
(714,630,c),
(270,589,l),
(261,638,l),
(261,638,l)
);
},
{
closed = 1;
nodes = (
(306,243.667,o),
(279.333,108.167,o),
(210,-4.5,cs),
(175.333,-60.833,o),
(128,-113.333,o),
(68,-162,c),
(49,-139,l),
(153,-39,o),
(204.5,65.667,o),
(226.5,199,cs),
(237.5,265.667,o),
(243,347,o),
(243,443,cs),
(243,591,ls),
(243,632.333,o),
(230.333,680,o),
(201,712,c),
(212,724,l),
(317,638,l),
(311.509,610.544,o),
(306,603.11,o),
(306,547,cs),
(306,437,l),
(306,437,l)
);
},
{
closed = 1;
nodes = (
(511,317.333,o),
(517,371.667,o),
(517,381,cs),
(517,385,ls),
(517,387.667,o),
(514.667,389,o),
(510,389,cs),
(455.333,385,o),
(339.333,374,o),
(270,366,c),
(271,416,l),
(335,422.667,o),
(458.333,437,o),
(477,441,cs),
(505.667,447,o),
(527.333,457.667,o),
(542,473,c),
(546,475.667,o),
(549.667,475.667,o),
(553,473,cs),
(608,430,ls),
(611.333,428,o),
(611.333,425,o),
(608,421,cs),
(594,402,ls),
(590.667,397.333,o),
(588.333,392.333,o),
(587,387,cs),
(581.667,367,o),
(560.667,239.333,o),
(558,210,c),
(499,218,l),
(499,218,l)
);
},
{
closed = 1;
nodes = (
(381,223,ls),
(446.333,231,o),
(475,235.333,o),
(511,254,cs),
(513.667,255.333,o),
(516.667,255,o),
(520,253,cs),
(607,203,l),
(604,188,l),
(466,178.667,o),
(349,169,o),
(253,159,c),
(261,211,l),
(341,219,l),
(341,219,l)
);
}
);
width = 1000;
}
);
unicode = 101315;
}
{
glyphname = u18BD8;
layers = (
{
layerId = master01;
shapes = (
{
closed = 1;
nodes = (
(371,533,l),
(393,531,o),
(415.333,530.333,o),
(438,531,cs),
(531.333,535.667,o),
(630.333,544.667,o),
(735,558,cs),
(773,562.667,o),
(805,578,o),
(831,604,cs),
(834.333,607.333,o),
(837.333,607.333,o),
(840,604,c),
(903,544,ls),
(906.333,541.333,o),
(906.333,538.333,o),
(903,535,cs),
(878,510,ls),
(873.149,505.149,o),
(868,502.398,o),
(868,493,c),
(845.333,266.333,o),
(800.667,23,o),
(754,-85,cs),
(739.333,-121,o),
(716.333,-150.667,o),
(695,-160,cs),
(693.667,-160.667,o),
(692,-161,o),
(690,-161,cs),
(686.667,-161,o),
(683.333,-159.333,o),
(680,-156,cs),
(610.667,-82.667,o),
(555.667,-29.333,o),
(515,4,c),
(528,27,l),
(674,-55,ls),
(676,-56.333,o),
(678.333,-57,o),
(681,-57,cs),
(687,-57,o),
(691.333,-53,o),
(694,-45,cs),
(743.333,71,o),
(783.333,307.667,o),
(798,501,cs),
(798,503,ls),
(798,509,o),
(794.333,511.667,o),
(787,511,cs),
(455,477,ls),
(413,472.333,o),
(388.333,468.667,o),
(381,466,c),
(340,501,l),
(340,501,l)
);
},
{
closed = 1;
nodes = (
(190,360.667,o),
(310.667,521.667,o),
(368,659,cs),
(374,673.667,o),
(377,690.667,o),
(377,710,cs),
(377,725.333,o),
(375,740.333,o),
(371,755,c),
(385,759,l),
(460,654,l),
(446,636,o),
(432.333,617,o),
(419,597,cs),
(319,446.333,o),
(209.667,319,o),
(59,199,c),
(38,222,l),
(38,222,l)
);
},
{
closed = 1;
nodes = (
(583,316,l),
(326,66,ls),
(288,30,o),
(261,1.667,o),
(245,-19,c),
(143,4,l),
(140,16,l),
(188.667,41.333,o),
(229,67.333,o),
(261,94,cs),
(563,340,l),
(563,340,l)
);
}
);
width = 1000;
}
);
unicode = 101336;
}
{
glyphname = u18BF0;
layers = (
{
layerId = master01;
shapes = (
{
closed = 1;
nodes = (
(395.333,651,o),
(615,666,o),
(651,670,cs),
(691,674,o),
(715.333,689.667,o),
(742,719,cs),
(745.333,722.333,o),
(748.333,722.333,o),
(751,719,c),
(811,661,ls),
(813.667,658.333,o),
(813.667,655,o),
(811,651,cs),
(788,622,ls),
(784,616,o),
(782,609.333,o),
(782,602,cs),
(782,392,ls),
(782,234.667,o),
(788,137.333,o),
(816,56,cs),
(830,15.333,o),
(850.667,-16.667,o),
(878,-40,cs),
(883.333,-44,o),
(887.333,-46,o),
(890,-46,cs),
(894.667,-46,o),
(897.333,-42,o),
(898,-34,cs),
(923,147,l),
(948,144,l),
(945.333,82.667,o),
(944,39,o),
(944,13,cs),
(944,-49,o),
(947,-100,o),
(953,-140,cs),
(953,-141,ls),
(953,-145.667,o),
(949.333,-148,o),
(942,-148,cs),
(938,-148,o),
(935,-147.667,o),
(933,-147,cs),
(869,-131,o),
(821.333,-98,o),
(790,-48,cs),
(732.667,44,o),
(718,169.667,o),
(718,367,cs),
(718,610,ls),
(718,620.667,o),
(714.333,626,o),
(707,626,cs),
(671.667,622.667,o),
(628.5,619.333,o),
(577.5,616,cs),
(526.5,612.667,o),
(488.333,610,o),
(463,608,cs),
(365,601.333,o),
(292,596,o),
(244,592,c),
(242,643,l),
(242,643,l)
);
},
{
closed = 1;
nodes = (
(268,243.667,o),
(243.833,110.167,o),
(180.5,-2.5,cs),
(148.833,-58.833,o),
(105.667,-111,o),
(51,-159,c),
(32,-136,l),
(124,-36,o),
(170.167,68,o),
(189.5,200,cs),
(199.167,266,o),
(204,347,o),
(204,443,cs),
(204,591,ls),
(204,632.333,o),
(191.333,680,o),
(162,712,c),
(173,724,l),
(279,638,l),
(273.509,610.544,o),
(268,603.11,o),
(268,547,cs),
(268,437,l),
(268,437,l)
);
},
{
closed = 1;
nodes = (
(534.333,453.333,o),
(531,419,o),
(531,375,cs),
(529,253,o),
(527.333,118,o),
(526,-30,cs),
(525,-101,l),
(513,-108,l),
(453,-38,ls),
(450.333,-35.333,o),
(450.333,-32.333,o),
(453,-29,c),
(461.667,-13.667,o),
(466.667,6.333,o),
(468,31,cs),
(470.667,128.333,o),
(472,223.333,o),
(472,316,cs),
(472,370,o),
(471.667,408.667,o),
(471,432,cs),
(471,472,o),
(459,519.667,o),
(431,553,c),
(442,565,l),
(541,478,l),
(541,478,l)
);
},
{
closed = 1;
nodes = (
(408.333,252.667,o),
(367.667,246.333,o),
(323,237,c),
(247,290,l),
(252,303,l),
(281.333,300.333,o),
(311,299,o),
(341,299,cs),
(364.333,299,o),
(387.333,300,o),
(410,302,cs),
(459.333,305.333,o),
(493,308.333,o),
(511,311,cs),
(571,319,o),
(605.667,327.333,o),
(639,346,cs),
(642.333,347.333,o),
(645.333,347,o),
(648,345,c),
(740,297,l),
(737,282,l),
(659,276,o),
(591.333,270,o),
(534,264,cs),
(445,256,l),
(445,256,l)
);
}
);
width = 1000;
}
);
unicode = 101360;
}
{
glyphname = u18BFB;
layers = (
{
layerId = master01;
shapes = (
{
closed = 1;
nodes = (
(203.667,491.333,o),
(169.333,486.333,o),
(144,481,c),
(67,536,l),
(72,549,l),
(100,545,o),
(128.333,543,o),
(157,543,cs),
(165,543,o),
(190,544,o),
(232,546,cs),
(346.667,555.333,o),
(520.667,574,o),
(550,578,cs),
(598,587.333,o),
(633.333,603.333,o),
(656,626,cs),
(659.333,629.333,o),
(662.333,629.333,o),
(665,626,cs),
(720,562,ls),
(723.333,558.667,o),
(723.333,555.333,o),
(720,552,cs),
(695,531,ls),
(685.667,523,o),
(686.333,523.333,o),
(685,514,cs),
(681.667,478.667,o),
(679,446.333,o),
(677,417,cs),
(655.667,165,o),
(636,-4.333,o),
(592,-91,cs),
(578.667,-119,o),
(558,-141.667,o),
(542,-151,cs),
(539.333,-153,o),
(536.333,-154,o),
(533,-154,cs),
(529.667,-154,o),
(527.333,-153,o),
(526,-151,cs),
(482,-87,o),
(438,-33.333,o),
(374,16,c),
(387,36,l),
(522,-40,ls),
(526,-42,o),
(529,-43,o),
(531,-43,cs),
(535.667,-43,o),
(540,-39.667,o),
(544,-33,cs),
(581.333,28.333,o),
(608,285.333,o),
(620,520,cs),
(620,528.667,o),
(616.667,532.667,o),
(610,532,cs),
(458,517,ls),
(439.333,515,o),
(407.333,512,o),
(362,508,cs),
(316.667,504,o),
(278.333,500,o),
(247,496,cs)
);
},
{
closed = 1;
nodes = (
(148.333,-2.667,o),
(215.333,136.667,o),
(250,306,cs),
(267.333,390.667,o),
(280,491,o),
(288,607,cs),
(288.667,613,o),
(289,624,o),
(289,640,cs),
(289,693.333,o),
(278,733,o),
(256,759,c),
(266,770,l),
(372,685,l),
(365.333,663,o),
(360.333,639,o),
(357,613,cs),
(327.667,342.333,o),
(294.667,182.333,o),
(216,41,cs),
(176.667,-29.667,o),
(122.667,-94.333,o),
(54,-153,c),
(31,-128,l),
(31,-128,l)
);
},
{
closed = 1;
nodes = (
(334.333,271,o),
(410,235.667,o),
(496,187,cs),
(502.667,183,o),
(504,181.333,o),
(504,172,cs),
(504,82,l),
(492,77,l),
(438.667,137,o),
(337.333,225,o),
(264,269,c),
(269,293,l),
(269,293,l)
);
},
{
closed = 1;
nodes = (
(361.333,429.667,o),
(436,411.333,o),
(522,384,c),
(527.709,378.291,o),
(530.037,382.854,o),
(533,371,cs),
(553,286,l),
(542,279,l),
(486,325.667,o),
(377.333,383.667,o),
(292,413,c),
(298,439,l),
(298,439,l)
);
},
{
closed = 1;
nodes = (
(892.333,655.333,o),
(889,621,o),
(889,581,cs),
(889,502.333,o),
(888.333,379,o),
(887,211,cs),
(885,85,o),
(884,-38.667,o),
(884,-160,c),
(871,-166,l),
(808,-98,ls),
(806.667,-96.667,o),
(806.667,-93.667,o),
(808,-89,cs),
(816,-71,o),
(820.667,-49.333,o),
(822,-24,cs),
(826.667,119.333,o),
(829,265.667,o),
(829,415,cs),
(829,499.667,o),
(828,574,o),
(826,638,cs),
(824.667,679.333,o),
(812.333,726,o),
(783,758,c),
(794,770,l),
(899,684,l),
(899,684,l)
);
}
);
width = 1000;
}
);
unicode = 101371;
}
{
glyphname = u18C07;
layers = (
{
layerId = master01;
shapes = (
{
closed = 1;
nodes = (
(158.667,358.333,o),
(223.667,523.667,o),
(237,661,cs),
(237.667,665,o),
(238,671.333,o),
(238,680,cs),
(238,706.667,o),
(231.667,730,o),
(219,750,c),
(229,760,l),
(322,683,l),
(314.667,669.667,o),
(306.667,646.333,o),
(298,613,cs),
(254,449,o),
(194.333,330.333,o),
(77,193,c),
(52,213,l),
(52,213,l)
);
},
{
closed = 1;
nodes = (
(481.667,350.667,o),
(616.667,367.667,o),
(666,377,cs),
(714,386.333,o),
(749,402,o),
(771,424,cs),
(774.333,427.333,o),
(777.333,427.333,o),
(780,424,cs),
(842,364,ls),
(845.333,361.333,o),
(845.333,358.333,o),
(842,355,cs),
(817,329,ls),
(809.266,321.266,o),
(807,316.351,o),
(807,312,c),
(776.333,178.667,o),
(719,6.667,o),
(675,-72,cs),
(657.667,-102.667,o),
(632,-132.333,o),
(608,-143,cs),
(606.667,-143.667,o),
(605,-144,o),
(603,-144,cs),
(599.667,-144,o),
(597,-142.333,o),
(595,-139,cs),
(564.333,-91,o),
(506,-20.333,o),
(442,37,c),
(456,55,l),
(600,-38,ls),
(603.333,-40,o),
(606.333,-41,o),
(609,-41,cs),
(612.333,-41,o),
(616,-38.333,o),
(620,-33,cs),
(661.333,31,o),
(720.333,211.667,o),
(743,325,cs),
(744,329,l),
(744,333.667,o),
(741,335.333,o),
(735,334,cs),
(422,295,l),
(435,348,l),
(435,348,l)
);
},
{
closed = 1;
nodes = (
(270.333,18.667,o),
(400.667,219.333,o),
(450,454,cs),
(456.667,489.333,o),
(460,516.667,o),
(460,536,cs),
(460,556.667,o),
(456.333,577,o),
(449,597,c),
(464,603,l),
(546,527,l),
(532.667,491.667,o),
(521,455.333,o),
(511,418,cs),
(436.333,159.333,o),
(290.333,-29.333,o),
(117,-152,c),
(97,-128,l),
(97,-128,l)
);
},
{
closed = 1;
nodes = (
(398.667,605,o),
(547.667,617.667,o),
(703,633,cs),
(767,639.667,o),
(801,646,o),
(833,666,cs),
(835.667,667.333,o),
(838.667,667,o),
(842,665,cs),
(935,613,l),
(932,598,l),
(756.667,586,o),
(560,570,o),
(342,550,cs),
(243,541,l),
(256,595,l),
(256,595,l)
);
}
);
width = 1000;
}
);
unicode = 101383;
}
{
glyphname = u18C13;
layers = (
{
layerId = master01;
shapes = (
{
closed = 1;
nodes = (
(750,305.333,o),
(747,271,o),
(747,227,cs),
(747,156.333,o),
(748.333,60.333,o),
(751,-1,cs),
(752.333,-25,o),
(751.333,-46.667,o),
(748,-66,cs),
(740,-110,o),
(732,-129,o),
(716,-153,cs),
(711.333,-161,o),
(707,-165,o),
(703,-165,cs),
(699.667,-165,o),
(695.667,-162.667,o),
(691,-158,cs),
(651,-116.667,o),
(592.333,-71.667,o),
(515,-23,c),
(526,0,l),
(664,-54,ls),
(666,-54.667,o),
(668.333,-55,o),
(671,-55,cs),
(677.667,-55,o),
(681.667,-49,o),
(683,-37,cs),
(684.333,-22.333,o),
(685,27,o),
(685,111,cs),
(685,213,o),
(684.667,265.667,o),
(684,269,c),
(682.667,303.667,o),
(672.667,351.667,o),
(654,385,c),
(684,389,l),
(756,330,l),
(756,330,l)
);
},
{
closed = 1;
nodes = (
(582.333,600.333,o),
(551.333,595.333,o),
(524,590,c),
(456,639,l),
(461,651,l),
(485.667,649,o),
(507.333,648,o),
(526,648,cs),
(541.333,648,o),
(560.333,648.667,o),
(583,650,cs),
(631,653.333,o),
(684.333,658.667,o),
(743,666,cs),
(762.333,668,o),
(782,674.667,o),
(802,686,cs),
(805.333,687.333,o),
(808.333,687.667,o),
(811,687,c),
(893,643,l),
(890,626,l),
(772.667,620,o),
(681.667,613,o),
(617,605,cs)
);
},
{
closed = 1;
nodes = (
(559.333,359.333,o),
(518.667,353,o),
(470,343,c),
(394,398,l),
(399,411,l),
(437.667,407.667,o),
(468.333,406,o),
(491,406,cs),
(513,406,o),
(535,407,o),
(557,409,cs),
(605.667,411.667,o),
(652.333,415.333,o),
(697,420,cs),
(742,424,ls),
(806,429.333,o),
(839.333,435,o),
(870,455,c),
(873.333,456.333,o),
(876.333,456,o),
(879,454,c),
(971,405,l),
(968,390,l),
(901.333,386.667,o),
(843.333,383,o),
(794,379,cs),
(744.667,375,o),
(691,370.667,o),
(633,366,cs),
(624.333,364.667,o),
(610.667,363.333,o),
(592,362,cs)
);
},
{
closed = 1;
nodes = (
(139.333,404.667,o),
(243.667,545.333,o),
(301,652,cs),
(313.667,675.333,o),
(320,701.667,o),
(320,731,cs),
(320,741.667,o),
(319.667,749.333,o),
(319,754,c),
(333,759,l),
(396,651,l),
(383.333,639.667,o),
(367.667,622,o),
(349,598,cs),
(267.667,486,o),
(149,359.667,o),
(57,289,c),
(38,310,l),
(38,310,l)
);
},
{
closed = 1;
nodes = (
(301,457.667,o),
(297.667,423.333,o),
(297,380,cs),
(293.667,218,o),
(292,39.333,o),
(292,-156,c),
(279,-162,l),
(213,-94,ls),
(211.667,-92.667,o),
(211.667,-89.667,o),
(213,-85,c),
(221,-68.333,o),
(226,-46.667,o),
(228,-20,cs),
(233.333,51.333,o),
(236,156,o),
(236,294,cs),
(236,334.667,o),
(235.333,382.333,o),
(234,437,cs),
(232.667,457.667,o),
(229.333,477.667,o),
(224,497,c),
(256,524,l),
(307,483,l),
(307,483,l)
);
}
);
width = 1000;
}
);
unicode = 101395;
}
{
glyphname = u18C21;
layers = (
{
layerId = master01;
shapes = (
{
closed = 1;
nodes = (
(543,231.333,o),
(520,103.667,o),
(460,-3,cs),
(430,-56.333,o),
(389,-105.667,o),
(337,-151,c),
(318,-128,l),
(406,-33.333,o),
(450.333,64.667,o),
(469,190,cs),
(478.333,252.667,o),
(483,329.333,o),
(483,420,cs),
(483,563,ls),
(483,601.667,o),
(471.667,647.333,o),
(445,678,c),
(456,690,l),
(554,600,l),
(544.667,580,o),
(543,564.333,o),
(543,519,cs),
(543,414,l),
(543,414,l)
);
},
{
closed = 1;
nodes = (
(667.333,621.667,o),
(705.333,634.667,o),
(732,664,cs),
(735.333,668,o),
(739,668,o),
(743,664,cs),
(803,608,ls),
(807.667,603.333,o),
(807.667,598.667,o),
(803,594,cs),
(781,572,ls),
(777,568,o),
(774.333,561.333,o),
(773,552,cs),
(766.333,440.667,o),
(761.333,259.667,o),
(758,9,cs),
(758,-27,o),
(766.667,-43.667,o),
(788,-45,cs),
(802.667,-46.333,o),
(813.667,-47,o),
(821,-47,cs),
(839.667,-47,o),
(858.333,-45,o),
(877,-41,cs),
(890.333,-38.333,o),
(897,-28.667,o),
(897,-12,cs),
(904,174,l),
(926,174,l),
(938,44.667,o),
(948,-16.667,o),
(968,-62,cs),
(969.333,-66,o),
(970,-68.333,o),
(970,-69,cs),
(970,-72.333,o),
(968.333,-75,o),
(965,-77,cs),
(947.667,-89,o),
(917.333,-97.667,o),
(874,-103,cs),
(854,-105,o),
(835.333,-106,o),
(818,-106,cs),
(807.333,-106,o),
(791.333,-105.333,o),
(770,-104,cs),
(721.333,-100,o),
(697,-66.333,o),
(697,-3,cs),
(697,163.667,o),
(700.333,351.667,o),
(707,561,cs),
(707,564,ls),
(707,573.333,o),
(703,577.333,o),
(695,576,cs),
(631,570,o),
(570.333,563.333,o),
(513,556,c),
(513,604,l),
(638,619,l),
(638,619,l)
);
},
{
closed = 1;
nodes = (
(289,409.667,o),
(285.667,375.333,o),
(285,332,cs),
(281.667,185.333,o),
(280,23,o),
(280,-155,c),
(267,-161,l),
(201,-93,ls),
(199.667,-91.667,o),
(199.667,-88.667,o),
(201,-84,c),
(209,-67.333,o),
(214,-45.667,o),
(216,-19,cs),
(221.333,65,o),
(224,162.667,o),
(224,274,cs),
(224,305.333,o),
(223.333,343.667,o),
(222,389,cs),
(220.667,415.667,o),
(215.667,440,o),
(207,462,c),
(231,487,l),
(295,435,l),
(295,435,l)
);
},
{
closed = 1;
nodes = (
(138.333,374.667,o),
(248.667,538.333,o),
(302,661,cs),
(312,684.333,o),
(317,708,o),
(317,732,cs),
(317,743.333,o),
(316,754,o),
(314,764,c),
(326,769,l),
(397,666,l),
(383.667,650.667,o),
(369.333,632,o),
(354,610,cs),
(264.667,466,o),
(141.667,315.667,o),
(51,237,c),
(29,260,l),
(29,260,l)
);
}
);
width = 1000;
}
);
unicode = 101409;
}
{
glyphname = u18C22;
layers = (
{
layerId = master01;
shapes = (
{
closed = 1;
nodes = (
(758,598.333,o),
(755,600.333,o),
(749,599,c),
(705,595,l),
(553,579,ls),
(510.333,574.333,o),
(476,568.667,o),
(450,562,c),
(381,615,l),
(388,628,l),
(412,623.333,o),
(437,621,o),
(463,621,cs),
(481.667,621,o),
(506.333,622.333,o),
(537,625,cs),
(631.667,634.333,o),
(682.667,639.667,o),
(690,641,cs),
(734,646.333,o),
(769.667,662.667,o),
(797,690,cs),
(800.333,693.333,o),
(803.333,693.333,o),
(806,690,cs),
(858,629,ls),
(861.333,625.667,o),
(861.333,622.333,o),
(858,619,cs),
(834,598,ls),
(828,592.667,o),
(823.333,586.333,o),
(820,579,cs),
(741,385,ls),
(740.333,383.667,o),
(740,382,o),
(740,380,cs),
(740,376,o),
(742.333,374.333,o),
(747,375,cs),
(759,376.333,o),
(768,377.667,o),
(774,379,cs),
(796,382,ls),
(841.333,388.667,o),
(849.667,393.333,o),
(879,424,cs),
(882.333,428,o),
(886.333,428.333,o),
(891,425,c),
(948,373,ls),
(952,369.667,o),
(952,366,o),
(948,362,cs),
(931,345,ls),
(923.667,337.667,o),
(919.333,330.333,o),
(918,323,cs),
(911,282,ls),
(883,112.667,o),
(864.667,14.667,o),
(830,-68,cs),
(814.667,-105.333,o),
(794,-134,o),
(768,-154,cs),
(764.667,-157.333,o),
(760.667,-159,o),
(756,-159,cs),
(750,-159,o),
(745.333,-156.333,o),
(742,-151,c),
(688.667,-84.333,o),
(658.333,-49.667,o),
(609,-3,c),
(625,19,l),
(743,-53,ls),
(746.333,-55,o),
(749.667,-56,o),
(753,-56,cs),
(760.333,-56,o),
(765.333,-52.667,o),
(768,-46,cs),
(802.667,22,o),
(819,112.667,o),
(843,274,cs),
(850,322,l),
(850,327,ls),
(850,334.333,o),
(845.667,337.667,o),
(837,337,cs),
(813,335.667,o),
(782.667,331.333,o),
(746,324,cs),
(730.667,320.667,o),
(717.333,316,o),
(706,310,cs),
(703.333,308,o),
(700.667,307,o),
(698,307,cs),
(695.333,307,o),
(693,308.333,o),
(691,311,cs),
(656,362,ls),
(655.333,363.333,o),
(654.5,364.833,o),
(653.5,366.5,cs),
(652.5,368.167,o),
(652,369.667,o),
(652,371,cs),
(652,373.667,o),
(654,376,o),
(658,378,cs),
(674,387.333,o),
(687,405,o),
(697,431,cs),
(756,584,l),
(758,593,l),
(758,593,l)
);
},
{
closed = 1;
nodes = (
(427,30.667,o),
(501.667,251.667,o),
(507,461,cs),
(507,530.333,o),
(502.333,569,o),
(481,601,c),
(495,610,l),
(586,540,l),
(580.667,522.667,o),
(577.167,502.833,o),
(575.5,480.5,cs),
(573.833,458.167,o),
(572.667,443.667,o),
(572,437,cs),
(552,213,o),
(461.667,-8,o),
(331,-156,c),
(307,-136,l),
(307,-136,l)
);
},
{
closed = 1;
nodes = (
(263,409.667,o),
(259.667,375.333,o),
(259,332,cs),
(255.667,184,o),
(254,20.667,o),
(254,-158,c),
(241,-164,l),
(175,-96,ls),
(173.667,-94.667,o),
(173.667,-91.667,o),
(175,-87,c),
(183,-70.333,o),
(188,-48.667,o),
(190,-22,cs),
(195.333,62,o),
(198,160.333,o),
(198,273,cs),
(198,305,o),
(197.333,343.667,o),
(196,389,cs),
(194.667,415.667,o),
(189.667,440,o),
(181,462,c),
(205,487,l),
(269,435,l),
(269,435,l)
);
},
{
closed = 1;
nodes = (
(116.333,379,o),
(224,539.667,o),
(276,661,cs),
(286,684.333,o),
(291,708,o),
(291,732,cs),
(291,743.333,o),
(290,754,o),
(288,764,c),
(300,769,l),
(371,666,l),
(357.667,650.667,o),
(343.333,632,o),
(328,610,cs),
(240,468.667,o),
(119.667,320,o),
(33,244,c),
(11,267,l),
(11,267,l)
);
}
);
width = 1000;
}
);
unicode = 101410;
}
{
glyphname = u18C2F;
layers = (
{
layerId = master01;
shapes = (
{
closed = 1;
nodes = (
(172,350.333,o),
(281.333,500.333,o),
(308,583,cs),
(314,603.667,o),
(317,623.333,o),
(317,642,cs),
(317,652,o),
(316,661,o),
(314,669,c),
(330,677,l),
(403,569,l),
(396.333,561.667,o),
(383.333,545.333,o),
(364,520,cs),
(342,490,ls),
(266,391.333,o),
(183,308.667,o),
(63,214,c),
(40,241,l),
(40,241,l)
);
},
{
closed = 1;
nodes = (
(631.333,641.667,o),
(732,546,o),
(864,406,c),
(867.333,403.333,o),
(868.333,400.333,o),
(867,397,c),
(848,285,l),
(832,284,l),
(736,437.333,o),
(634.667,566.333,o),
(500,705,c),
(522,727,l),
(522,727,l)
);
},
{
closed = 1;
nodes = (
(418,378,o),
(403,421.333,o),
(375,456,c),
(386,468,l),
(492,381,l),
(485.333,355.667,o),
(482,321.667,o),
(482,279,cs),
(482,45,ls),
(482,2.333,o),
(497,-17.667,o),
(537,-23,cs),
(567,-26.333,o),
(597.667,-28,o),
(629,-28,cs),
(697,-28,o),
(771,-22.333,o),
(819,-13,cs),
(844.333,-9,o),
(849.667,-1,o),
(851,23,cs),
(858,209,l),
(882,209,l),
(890,123.667,o),
(911.667,5.333,o),
(929,-48,c),
(929.667,-48.667,o),
(930,-50,o),
(930,-52,cs),
(930,-55.333,o),
(928.333,-57.667,o),
(925,-59,cs),
(900.333,-69.667,o),
(863,-77.333,o),
(813,-82,cs),
(757.667,-87.333,o),
(699.333,-90,o),
(638,-90,cs),
(595.333,-90,o),
(558.333,-88.667,o),
(527,-86,cs),
(454.333,-79.333,o),
(418,-41,o),
(418,29,cs),
(418,334,l),
(418,334,l)
);
},
{
closed = 1;
nodes = (
(299,109,o),
(266.667,99.333,o),
(228,86,cs),
(206,78,l),
(122,123,l),
(125,136,l),
(191,142,o),
(243.333,149.667,o),
(282,159,cs),
(348.667,175,o),
(398.667,187,o),
(432,195,cs),
(465.333,203,o),
(492.333,209.667,o),
(513,215,cs),
(517.667,215.667,o),
(529,218.333,o),
(547,223,cs),
(613.667,240.333,o),
(640.333,248,o),
(667,272,c),
(670.333,273.333,o),
(673.333,273.333,o),
(676,272,cs),
(775,235,l),
(775,220,l),
(607,184,o),
(509,161.667,o),
(325,115,cs)
);
}
);
width = 1000;
}
);
unicode = 101423;
}
{
glyphname = u18C38;
layers = (
{
layerId = master01;
shapes = (
{
closed = 1;
nodes = (
(512.333,612.667,o),
(565.333,575,o),
(646,517,cs),
(694,482,ls),
(803.333,402,o),
(862.333,369,o),
(961,357,c),
(961,335,l),
(801,317,l),
(790,316,ls),
(784,316,o),
(779.333,318,o),
(776,322,cs),
(672,427.333,o),
(583.667,501,o),
(465,597,c),
(487,630,l),
(487,630,l)
);
},
{
closed = 1;
nodes = (
(228.667,382.667,o),
(397.667,555,o),
(463,683,cs),
(471.667,700.333,o),
(476,718.333,o),
(476,737,cs),
(476,747,o),
(474.667,756.333,o),
(472,765,c),
(486,770,l),
(556,661,l),
(522,623.667,o),
(491.333,588.667,o),
(464,556,cs),
(373.333,450.667,o),
(211.667,316.667,o),
(65,226,c),
(46,256,l),
(46,256,l)
);
},
{
closed = 1;
nodes = (
(463,32.333,o),
(466,135.667,o),
(466,239,cs),
(466,271,o),
(465.667,293.667,o),
(465,307,cs),
(463.667,344.333,o),
(453.667,380.333,o),
(435,415,c),
(450,426,l),
(535,353,l),
(529,327.667,o),
(525.667,293.333,o),
(525,250,cs),
(522.333,130,o),
(521,23,o),
(521,-71,c),
(457,-71,l),
(457,-71,l)
);
},
{
closed = 1;
nodes = (
(301.667,-103.667,o),
(260.667,-109,o),
(220,-117,c),
(146,-59,l),
(152,-46,l),
(190,-50.667,o),
(226.333,-53,o),
(261,-53,cs),
(282.333,-53,o),
(298.333,-52.667,o),
(309,-52,cs),
(464,-44,ls),
(493.333,-42.667,o),
(515,-41.333,o),
(529,-40,cs),
(637.477,-34.437,o),
(706.189,-30.393,o),
(735,-24.5,cs),
(749.667,-21.5,o),
(762.333,-16.667,o),
(773,-10,c),
(776.333,-8.667,o),
(779.333,-9,o),
(782,-11,cs),
(873,-63,l),
(870,-78,l),
(624.667,-83.333,o),
(555,-86.333,o),
(343,-101,cs)
);
},
{
closed = 1;
nodes = (
(420.333,137.333,o),
(379.667,131,o),
(331,121,c),
(255,175,l),
(260,188,l),
(298.667,184.667,o),
(329.333,183,o),
(352,183,cs),
(374,183,o),
(396,184,o),
(418,186,cs),
(457.333,188,o),
(491.333,190.667,o),
(520,194,cs),
(582.667,199.333,o),
(616,206,o),
(648,226,c),
(651.333,227.333,o),
(654.333,227,o),
(657,225,c),
(749,176,l),
(746,161,l),
(642,157,o),
(576.333,151,o),
(487,143,cs),
(453,140,l),
(453,140,l)
);
}
);
width = 1000;
}
);
unicode = 101432;
}
{
glyphname = u18C40;
layers = (
{
layerId = master01;
shapes = (
{
closed = 1;
nodes = (
(443,7.333,o),
(447,147.667,o),
(447,249,cs),
(447,304,ls),
(445.667,340,o),
(434.667,381.667,o),
(412,419,c),
(424,430,l),
(517,345,l),
(511,319.667,o),
(507.667,285.333,o),
(507,242,cs),
(504.333,124.667,o),
(503,20.333,o),
(503,-71,c),
(439,-66,l),
(439,-66,l)
);
},
{
closed = 1;
nodes = (
(301.667,-103.667,o),
(260.667,-109,o),
(220,-117,c),
(146,-59,l),
(152,-46,l),
(190,-50.667,o),
(226.333,-53,o),
(261,-53,cs),
(282.333,-53,o),
(298.333,-52.667,o),
(309,-52,cs),
(464,-44,ls),
(493.333,-42.667,o),
(515,-41.333,o),
(529,-40,cs),
(637.477,-34.437,o),
(706.189,-30.393,o),
(735,-24.5,cs),
(749.667,-21.5,o),
(762.333,-16.667,o),
(773,-10,c),
(776.333,-8.667,o),
(779.333,-9,o),
(782,-11,cs),
(873,-63,l),
(870,-78,l),
(624.667,-83.333,o),
(555,-86.333,o),
(343,-101,cs)
);
},
{
closed = 1;
nodes = (
(639.333,525,o),
(688,489,o),
(716,469,cs),
(804,406.333,o),
(866.333,381,o),
(961,369,c),
(961,342,l),
(800,317,ls),
(797.333,316.333,o),
(793.667,316,o),
(789,316,cs),
(783,316,o),
(778.333,318,o),
(775,322,cs),
(662.333,435.333,o),
(561,530.333,o),
(471,607,c),
(493,635,l),
(570,577,l),
(570,577,l)
);
},
{
closed = 1;
nodes = (
(257.667,401.333,o),
(408,554.333,o),
(464,689,cs),
(470.667,703.667,o),
(474,720,o),
(474,738,cs),
(474,748,o),
(472.333,759,o),
(469,771,c),
(483,777,l),
(564,669,l),
(548,655.667,o),
(522.667,626.333,o),
(504,601,cs),
(406.667,466.333,o),
(248.333,336,o),
(75,248,c),
(59,276,l),
(59,276,l)
);
},
{
closed = 1;
nodes = (
(259,218.333,o),
(303,166.667,o),
(353,104,cs),
(357,98.667,o),
(358,91.667,o),
(356,83,cs),
(331,1,l),
(318,1,l),
(294,74.333,o),
(248.333,176,o),
(203,244,c),
(221,259,l),
(221,259,l)
);
},
{
closed = 1;
nodes = (
(607.667,58,o),
(652.667,152.667,o),
(666,218,cs),
(668,228,o),
(669,238,o),
(669,248,cs),
(669,263.333,o),
(666.667,278,o),
(662,292,c),
(675,301,l),
(753,214,l),
(700,130,ls),
(649.333,48,o),
(606,-13.333,o),
(570,-54,c),
(541,-46,l),
(541,-46,l)
);
}
);
width = 1000;
}
);
unicode = 101440;
}
{
glyphname = u18C55;
layers = (
{
layerId = master01;
shapes = (
{
closed = 1;
nodes = (
(242.333,451.667,o),
(201.333,445.667,o),
(164,439,c),
(89,495,l),
(94,508,l),
(137.333,504.667,o),
(172,503,o),
(198,503,cs),
(210,503,o),
(228,503.667,o),
(252,505,cs),
(330.667,511,o),
(400.333,516,o),
(461,520,cs),
(589.667,529.333,o),
(664.667,535,o),
(686,537,cs),
(750,542.333,o),
(783,548.667,o),
(815,566,cs),
(817.667,567.333,o),
(819.667,567.5,o),
(821,566.5,cs),
(822.333,565.5,o),
(823.333,565,o),
(824,565,c),
(915,514,l),
(912,499,l),
(658.667,487,o),
(495,477,o),
(287,457,cs)
);
},
{
closed = 1;
nodes = (
(462,695,o),
(514,651.667,o),
(548,617,cs),
(550.667,614.333,o),
(552,611,o),
(552,607,cs),
(550,595,l),
(529,514,l),
(514,515,l),
(484.667,584.333,o),
(428,674.667,o),
(376,732,c),
(392,747,l),
(392,747,l)
);
},
{
closed = 1;
nodes = (
(781,306.667,o),
(846,259.333,o),
(894,218,cs),
(900,213.333,o),
(902,207.667,o),
(900,201,cs),
(876,107,l),
(855,101,l),
(801.667,196.333,o),
(744.667,276.667,o),
(684,342,c),
(699,360,l),
(699,360,l)
);
},
{
closed = 1;
nodes = (
(240.667,198,o),
(179.333,110,o),
(142,70,c),
(124,72,l),
(92,158,ls),
(91.333,160,o),
(92.333,162.333,o),
(95,165,c),
(115.667,170.333,o),
(130.667,176.667,o),
(140,184,cs),
(193.333,232,o),
(230,284.667,o),
(226,354,c),
(250,356,l),
(258.667,321.333,o),
(263,295.333,o),
(263,278,cs),
(263,264,o),
(261.333,252,o),
(258,242,cs)
);
},
{
closed = 1;
nodes = (
(442.333,422,o),
(439,399,o),
(439,373,cs),
(439,342.333,o),
(438.667,318.333,o),
(438,301,cs),
(427.333,49,o),
(317.333,-91,o),
(72,-163,c),
(61,-136,l),
(275.667,-45.333,o),
(365.667,84.667,o),
(375,302,cs),
(376.333,316.667,o),
(377,332.667,o),
(377,350,cs),
(377,368.667,o),
(376.333,384,o),
(375,396,cs),
(372.333,434.667,o),
(364.667,466,o),
(352,490,c),
(389,493,l),
(449,442,l),
(449,442,l)
);
},
{
closed = 1;
nodes = (
(644,416.667,o),
(641,382.667,o),
(641,346,cs),
(641,273.333,o),
(643.333,162.333,o),
(648,13,cs),
(648.667,5.667,o),
(649,-6.667,o),
(649,-24,cs),
(649,-40.667,o),
(648.333,-52,o),
(647,-58,cs),
(643,-92.667,o),
(633,-113.667,o),
(617,-139,cs),
(612.333,-147,o),
(607.667,-151,o),
(603,-151,cs),
(599.667,-151,o),
(595.667,-148.667,o),
(591,-144,cs),
(537,-94.667,o),
(484.333,-54.667,o),
(433,-24,c),
(446,1,l),
(564,-38,ls),
(566,-38.667,o),
(568.333,-39,o),
(571,-39,cs),
(579,-39,o),
(581.667,-33,o),
(583,-21,cs),
(584.333,-7,o),
(585,35.333,o),
(585,106,cs),
(585,231.333,o),
(583.333,347,o),
(582,387,cs),
(580.667,423,o),
(571,471,o),
(551,503,c),
(585,505,l),
(650,448,l),
(650,448,l)
);
}
);
width = 1000;
}
);
unicode = 101461;
}
{
glyphname = u18C56;
layers = (
{
layerId = master01;
shapes = (
{
closed = 1;
nodes = (
(419.667,684,o),
(478.333,642,o),
(515,608,cs),
(518.333,605.333,o),
(520,601.667,o),
(520,597,cs),
(520,595,o),
(519.333,591.333,o),
(518,586,cs),
(492,503,l),
(477,503,l),
(443.667,571,o),
(381.333,659,o),
(324,715,c),
(339,734,l),
(339,734,l)
);
},
{
closed = 1;
nodes = (
(267,336,o),
(226.667,324.333,o),
(186,311,c),
(100,356,l),
(102,370,l),
(159.333,371.333,o),
(193.667,377,o),
(263,389,c),
(362.333,411.667,o),
(462.667,435.333,o),
(564,460,cs),
(651,481,ls),
(708.333,494.333,o),
(743.333,506.667,o),
(774,528,c),
(776,530,o),
(779,530.333,o),
(783,529,cs),
(885,490,l),
(884,476,l),
(718,441.333,o),
(540.333,401.333,o),
(351,356,cs),
(329,351.333,o),
(314.333,348,o),
(307,346,cs)
);
},
{
closed = 1;
nodes = (
(430,3.333,o),
(626.333,151.667,o),
(725,281,cs),
(751.667,315.667,o),
(757.667,345,o),
(759,381,c),
(774,382,l),
(818,271,l),
(793,247,ls),
(782.333,235,o),
(773.333,225.667,o),
(766,219,cs),
(600.667,63,o),
(420.667,-56.667,o),
(150,-138,c),
(138,-106,l),
(138,-106,l)
);
},
{
closed = 1;
nodes = (
(555.333,175.667,o),
(679.333,-11.667,o),
(846,-77,cs),
(852,-79,o),
(856.667,-80,o),
(860,-80,cs),
(865.333,-80,o),
(866,-76,o),
(866,-72,cs),
(872,115,l),
(896,116,l),
(905.333,10.667,o),
(925.667,-96,o),
(947,-152,cs),
(948,-155,l),
(948,-160.333,o),
(944.667,-163,o),
(938,-163,cs),
(867.333,-167,o),
(790,-143,o),
(722,-91,cs),
(580.667,19,o),
(491,185.333,o),
(453,408,c),
(514,425,l),
(514,425,l)
);
}
);
width = 1000;
}
);
unicode = 101462;
}
{
glyphname = u18C66;
layers = (
{
layerId = master01;
shapes = (
{
closed = 1;
nodes = (
(291,695.667,o),
(361.333,659,o),
(410,623,cs),
(416.667,618.333,o),
(420,611,o),
(420,601,cs),
(419,510,l),
(404,504,l),
(354.667,574.667,o),
(261,663.667,o),
(185,709,c),
(199,733,l),
(199,733,l)
);
},
{
closed = 1;
nodes = (
(578,581.667,o),
(654.333,659,o),
(681,703,cs),
(692.333,723,o),
(697,743.333,o),
(695,764,c),
(712,770,l),
(773,678,l),
(765.667,673.333,o),
(755,664.667,o),
(741,652,cs),
(726.333,638.667,o),
(716,630,o),
(710,626,cs),
(648.667,580.667,o),
(597,548.667,o),
(513,506,c),
(498,531,l),
(498,531,l)
);
},
{
closed = 1;
nodes = (
(186.667,212.333,o),
(317.333,311.667,o),
(376,397,cs),
(386.667,413,o),
(394,439.333,o),
(394,462,cs),
(394,468.667,o),
(393.667,473.667,o),
(393,477,c),
(410,481,l),
(462,360,l),
(446,350.667,o),
(418.333,328,o),
(409,320,cs),
(383,299,ls),
(283,223,o),
(185.333,164,o),
(52,104,c),
(36,135,l),
(36,135,l)
);
},
{
closed = 1;
nodes = (
(695.667,335.667,o),
(733,302.333,o),
(765,277,cs),
(841,215.667,o),
(893.667,191.667,o),
(959,185,c),
(960,159,l),
(824,139,l),
(819,139,ls),
(813,139,o),
(808.667,140.667,o),
(806,144,cs),
(758,199.333,o),
(688.667,273,o),
(598,365,cs),
(566,395.667,o),
(545,409.667,o),
(493,419,c),
(493,435,l),
(590,451,l),
(602,431,o),
(617,413,o),
(653,377,cs)
);
},
{
closed = 1;
nodes = (
(280.667,-51.667,o),
(400.667,75.667,o),
(450,185,cs),
(460.667,211,o),
(466,236,o),
(466,260,cs),
(466,268.667,o),
(465.667,275,o),
(465,279,c),
(478,284,l),
(537,165,l),
(531,159,o),
(521.333,148,o),
(508,132,cs),
(493,113,ls),
(399.667,-0.333,o),
(300,-87.667,o),
(160,-173,c),
(142,-145,l),
(142,-145,l)
);
},
{
closed = 1;
nodes = (
(597.667,61,o),
(676.333,16,o),
(775,-56,cs),
(777.667,-58,o),
(779,-61,o),
(779,-65,cs),
(774,-164,l),
(758,-167,l),
(674,-69.667,o),
(560.333,30.333,o),
(443,105,c),
(463,129,l),
(463,129,l)
);
}
);
width = 1000;
}
);
unicode = 101478;
}
{
glyphname = u18C68;
layers = (
{
layerId = master01;
shapes = (
{
closed = 1;
nodes = (
(558.333,456.333,o),
(662.333,615,o),
(681,679,cs),
(687,700.333,o),
(690,718.333,o),
(690,733,cs),
(690,744.333,o),
(688.667,754.333,o),
(686,763,c),
(701,769,l),
(780,667,l),
(768,655.667,o),
(750.667,634.333,o),
(728,603,cs),
(644,493.667,o),
(584.333,422,o),
(503,342,c),
(477,363,l),
(477,363,l)
);
},
{
closed = 1;
nodes = (
(233,329,o),
(231,302.333,o),
(231,271,cs),
(231,256.333,o),
(232,211,o),
(234,135,cs),
(242,-150,l),
(228,-157,l),
(165,-90,ls),
(163,-87.333,o),
(163,-84.333,o),
(165,-81,c),
(173.667,-59.667,o),
(178,-37.667,o),
(178,-15,cs),
(178,82.333,o),
(172.333,222.667,o),
(171,256,cs),
(169,297,ls),
(166.333,337,o),
(151,390,o),
(123,422,c),
(134,433,l),
(237,351,l),
(237,351,l)
);
},
{
closed = 1;
nodes = (
(385.667,366,o),
(660.333,387,o),
(703,395,cs),
(747,403.667,o),
(782.667,419.333,o),
(810,442,cs),
(813.333,445.333,o),
(816.333,445.333,o),
(819,442,cs),
(880,377,l),
(882.667,375,o),
(882.667,372.667,o),
(880,370,cs),
(855,348,ls),
(848.333,342,o),
(845,336.333,o),
(845,331,cs),
(840.333,221,o),
(836,137.667,o),
(832,81,cs),
(828,24.333,o),
(823,-20.333,o),
(817,-53,cs),
(810.333,-85,o),
(798.667,-121.333,o),
(788,-136,cs),
(784,-141.333,o),
(780.667,-142,o),
(778,-138,cs),
(712,-16,l),
(754,-23,l),
(764.667,21,o),
(774.333,141.667,o),
(783,339,cs),
(783,346.333,o),
(779.667,349.667,o),
(773,349,cs),
(726.333,344.333,o),
(592.667,333.333,o),
(372,316,cs),
(199,303,l),
(199,354,l),
(199,354,l)
);
},
{
closed = 1;
nodes = (
(413.333,126.333,o),
(382.333,121.333,o),
(349,114,c),
(281,161,l),
(286,173,l),
(309.333,171,o),
(330,170,o),
(348,170,cs),
(371.333,170,o),
(391.333,171,o),
(408,173,cs),
(496,179,o),
(554.667,184.667,o),
(584,190,cs),
(598.667,193.333,o),
(610.833,197.333,o),
(620.5,202,cs),
(630.167,206.667,o),
(636.667,209.667,o),
(640,211,cs),
(642.667,212.333,o),
(645.667,212.333,o),
(649,211,cs),
(731,171,l),
(728,154,l),
(670.667,152,o),
(584.667,144.667,o),
(470,132,cs),
(442,129,l),
(442,129,l)
);
},
{
closed = 1;
nodes = (
(305.333,-36.333,o),
(418.333,-29.333,o),
(523,-22,cs),
(569,-19,ls),
(639.667,-12.333,o),
(667,-9,o),
(699,7,c),
(699.667,7,o),
(701,7.167,o),
(703,7.5,cs),
(705,7.833,o),
(706.667,7.333,o),
(708,6,c),
(776,-32,l),
(764,-60,l),
(694,-63.333,o),
(545.333,-71.667,o),
(318,-85,cs),
(182,-94,l),
(184,-43,l),
(184,-43,l)
);
},
{
closed = 1;
nodes = (
(472,-34,l),
(472,336,l),
(532,341,l),
(532,-27,l),
(532,-27,l)
);
},
{
closed = 1;
nodes = (
(294.333,690.667,o),
(365.333,631.333,o),
(412,574,cs),
(414.667,571.333,o),
(416,566.667,o),
(416,560,cs),
(416,555.333,o),
(415.667,552,o),
(415,550,cs),
(395,450,l),
(379,447,l),
(348.333,543,o),
(283.333,642.667,o),
(206,716,c),
(221,736,l),
(221,736,l)
);
}
);
width = 1000;
}
);
unicode = 101480;
}
{
glyphname = u18C69;
layers = (
{
layerId = master01;
shapes = (
{
closed = 1;
nodes = (
(231.333,426.333,o),
(229,398,o),
(229,368,cs),
(229,290,o),
(231.333,117.333,o),
(236,-150,c),
(222,-156,l),
(160,-88,ls),
(158,-86,o),
(158,-83,o),
(160,-79,cs),
(169.333,-57,o),
(174,-35.333,o),
(174,-14,cs),
(174,22,ls),
(174,130,o),
(170.333,291.667,o),
(169,341,cs),
(167.667,367.667,o),
(167,387.333,o),
(167,400,cs),
(165.667,440,o),
(151,494,o),
(123,526,c),
(135,537,l),
(236,453,l),
(236,453,l)
);
},
{
closed = 1;
nodes = (
(365.667,465,o),
(656.333,488.667,o),
(703,498,cs),
(747,506.667,o),
(782.667,522.333,o),
(810,545,cs),
(813.333,548.333,o),
(816.333,548.333,o),
(819,545,cs),
(880,480,l),
(882.667,478,o),
(882.667,475.667,o),
(880,473,cs),
(855,451,ls),
(848.333,445,o),
(845,439.333,o),
(845,434,cs),
(839,282.667,o),
(834,174,o),
(830,108,cs),
(826,42,o),
(820.333,-10.333,o),
(813,-49,cs),
(806.333,-81,o),
(794.667,-117.333,o),
(784,-132,cs),
(780,-137.333,o),
(776.667,-138,o),
(774,-134,cs),
(708,-12,l),
(750,-19,l),
(756.667,11.667,o),
(762.5,64.333,o),
(767.5,139,cs),
(772.5,213.667,o),
(777.667,314.667,o),
(783,442,cs),
(783,449.333,o),
(779.667,452.667,o),
(773,452,cs),
(726.333,447.333,o),
(592.667,436.333,o),
(372,419,cs),
(199,406,l),
(199,457,l),
(199,457,l)
);
},
{
closed = 1;
nodes = (
(407.667,225.667,o),
(376.667,220.333,o),
(346,213,c),
(278,258,l),
(283,270,l),
(304.333,268,o),
(322.667,267,o),
(338,267,cs),
(357.333,267,o),
(379.667,268.333,o),
(405,271,cs),
(491,278.333,o),
(552.667,285,o),
(590,291,cs),
(606,294.333,o),
(618.667,298.5,o),
(628,303.5,cs),
(637.333,308.5,o),
(643,311.667,o),
(645,313,cs),
(647.667,314.333,o),
(650.667,314.333,o),
(654,313,cs),
(737,276,l),
(734,259,l),
(694,257,o),
(641.667,252.333,o),
(577,245,cs),
(512.333,237.667,o),
(473.333,233.333,o),
(460,232,cs),
(439,229,l),
(439,229,l)
);
},
{
closed = 1;
nodes = (
(327.333,-32.333,o),
(440.333,-25.333,o),
(545,-18,cs),
(591,-15,ls),
(661.667,-8.333,o),
(689,-5,o),
(721,11,c),
(721.667,11,o),
(723,11.167,o),
(725,11.5,cs),
(727,11.833,o),
(728.667,11.333,o),
(730,10,c),
(798,-28,l),
(786,-56,l),
(716,-59.333,o),
(567.333,-67.667,o),
(340,-81,cs),
(204,-90,l),
(206,-39,l),
(206,-39,l)
);
},
{
closed = 1;
nodes = (
(421.667,71.667,o),
(390.667,66.333,o),
(360,59,c),
(292,102,l),
(297,114,l),
(317.667,112,o),
(336,111,o),
(352,111,cs),
(371.333,111,o),
(393.667,112.333,o),
(419,115,cs),
(479.667,120.333,o),
(526.667,126,o),
(560,132,cs),
(576,135.333,o),
(588.667,139.5,o),
(598,144.5,cs),
(607.333,149.5,o),
(613,152.667,o),
(615,154,cs),
(617.667,155.333,o),
(620.667,155.333,o),
(624,154,cs),
(707,117,l),
(704,100,l),
(656.667,97.333,o),
(573,89,o),
(453,75,cs)
);
},
{
closed = 1;
nodes = (
(469.333,161.667,o),
(470,209.333,o),
(470,242,cs),
(470,288,ls),
(468.667,330.667,o),
(458.667,366.667,o),
(440,396,c),
(455,407,l),
(537,334,l),
(531,308.667,o),
(527.667,274.333,o),
(527,231,cs),
(524,104,l),
(468,99,l),
(468,99,l)
);
},
{
closed = 1;
nodes = (
(335.333,697.333,o),
(382,666,o),
(422,630,c),
(426,624.667,o),
(428,616.667,o),
(428,606,cs),
(424,506,l),
(408,502,l),
(369.333,576.667,o),
(304.667,669,o),
(250,721,c),
(266,740,l),
(266,740,l)
);
},
{
closed = 1;
nodes = (
(559,527.667,o),
(625.667,630.333,o),
(647,681,cs),
(656.333,705.667,o),
(661,727,o),
(661,745,cs),
(661,749.667,o),
(660.333,756,o),
(659,764,c),
(674,768,l),
(745,667,l),
(739.667,663,o),
(726,649,o),
(704,625,cs),
(688,607,ls),
(634.667,547.667,o),
(579,495,o),
(521,449,c),
(487,457,l),
(487,457,l)
);
}
);
width = 1000;
}
);
unicode = 101481;
}
{
glyphname = u18C6E;
layers = (
{
layerId = master01;
shapes = (
{
closed = 1;
nodes = (
(467.333,373.333,o),
(335,242.333,o),
(95,145,c),
(82,174,l),
(314,286,o),
(432,423.667,o),
(480,625,cs),
(482.667,635,o),
(484,647.667,o),
(484,663,cs),
(484,700.333,o),
(476,731.333,o),
(460,756,c),
(474,767,l),
(569,671,l),
(563,660.333,o),
(555,639,o),
(545,607,cs),
(534,572,l),
(534,572,l)
);
},
{
closed = 1;
nodes = (
(661.667,493.667,o),
(737.667,578.333,o),
(759,621,cs),
(771.667,645.667,o),
(778,672.667,o),
(778,702,c),
(793,705,l),
(846,588,l),
(836.667,582.667,o),
(821,571,o),
(799,553,cs),
(797,551,o),
(791,546,o),
(781,538,cs),
(713,482,o),
(654.667,439.667,o),
(606,411,c),
(587,435,l),
(587,435,l)
);
},
{
closed = 1;
nodes = (
(632.333,444,o),
(688.333,395.333,o),
(733,358,cs),
(799.667,303.333,o),
(830.333,280,o),
(873,264,cs),
(894.333,256,o),
(920,250.333,o),
(950,247,c),
(950,221,l),
(803,197,l),
(795,196,ls),
(789.667,196,o),
(784.333,198.667,o),
(779,204,cs),
(684.333,314.667,o),
(584,420.333,o),
(478,521,c),
(496,566,l),
(565,504,l),
(565,504,l)
);
},
{
closed = 1;
nodes = (
(368.333,97,o),
(335,93,o),
(307,85,c),
(233,137,l),
(239,149,l),
(261.667,143.667,o),
(308.667,141.667,o),
(338,143,cs),
(466,153,o),
(564.333,163,o),
(633,173,cs),
(657,176.333,o),
(679.333,188.333,o),
(700,209,cs),
(702.667,211.667,o),
(705.333,211.667,o),
(708,209,cs),
(762,156,ls),
(764.667,153.333,o),
(764.333,150.333,o),
(761,147,cs),
(737,126,ls),
(727.667,118,o),
(728.333,118.333,o),
(727,109,cs),
(717.667,21,o),
(700.333,-47.333,o),
(675,-96,cs),
(659,-128,o),
(634.667,-158.333,o),
(620,-169,cs),
(616.667,-171.667,o),
(614,-173,o),
(612,-173,cs),
(610,-173,o),
(608,-171.667,o),
(606,-169,cs),
(565.333,-121.667,o),
(520.667,-80.667,o),
(472,-46,c),
(485,-25,l),
(600,-80,ls),
(601.333,-80.667,o),
(603.333,-81,o),
(606,-81,cs),
(610.667,-81,o),
(614.333,-78.667,o),
(617,-74,cs),
(641,-30,o),
(662.667,49.667,o),
(664,115,cs),
(664,123,o),
(661,126.667,o),
(655,126,cs),
(613,121.333,o),
(574.667,117.667,o),
(540,115,cs),
(472.667,109,o),
(427,104.333,o),
(403,101,cs)
);
},
{
closed = 1;
nodes = (
(439.667,31.667,o),
(384.333,-41.833,o),
(299,-94.5,cs),
(256.333,-120.833,o),
(203,-143.667,o),
(139,-163,c),
(128,-135,l),
(248,-89.667,o),
(325.167,-33.5,o),
(376.5,52.5,cs),
(402.167,95.5,o),
(423.333,148.333,o),
(440,211,cs),
(445.333,230.333,o),
(448,252.667,o),
(448,278,cs),
(448,295.333,o),
(446.667,310.667,o),
(444,324,c),
(460,333,l),
(529,239,l),
(516.333,219.667,o),
(501.667,188.333,o),
(485,145,cs)
);
},
{
closed = 1;
nodes = (
(245.667,635.667,o),
(293.667,583,o),
(333,525,c),
(335,523,o),
(336,519.667,o),
(336,515,cs),
(336,511,o),
(335,506.333,o),
(333,501,cs),
(305,403,l),
(289,402,l),
(270.333,491.333,o),
(224.333,594,o),
(171,666,c),
(189,683,l),
(189,683,l)
);
}
);
width = 1000;
}
);
unicode = 101486;
}
{
glyphname = u18C72;
layers = (
{
layerId = master01;
shapes = (
{
closed = 1;
nodes = (
(467.333,372,o),
(335,241.333,o),
(91,144,c),
(78,173,l),
(312.667,286.333,o),
(431,423.667,o),
(479,625,cs),
(481.667,635,o),
(483,647.667,o),
(483,663,cs),
(483,700.333,o),
(475,731.333,o),
(459,756,c),
(473,767,l),
(569,671,l),
(563,660.333,o),
(555,639,o),
(545,607,cs),
(534,572,l),
(534,572,l)
);
},
{
closed = 1;
nodes = (
(657.667,490.667,o),
(726.333,570,o),
(757,618,cs),
(771,641.333,o),
(778,668.333,o),
(778,699,c),
(793,702,l),
(846,588,l),
(829.333,578,o),
(807.667,561.333,o),
(781,538,cs),
(727,493.333,o),
(668.667,451,o),
(606,411,c),
(587,432,l),
(587,432,l)
);
},
{
closed = 1;
nodes = (
(629.667,442.667,o),
(682.667,396.667,o),
(732,356,cs),
(797.333,301.333,o),
(828.333,278,o),
(871,262,cs),
(892.333,254,o),
(918,248,o),
(948,244,c),
(948,218,l),
(802,197,l),
(794,196,ls),
(788.667,196,o),
(783.333,199,o),
(778,205,cs),
(689.333,310.333,o),
(589.667,415.667,o),
(479,521,c),
(497,562,l),
(573,494,l),
(573,494,l)
);
},
{
closed = 1;
nodes = (
(793.333,174,o),
(789.667,147.667,o),
(785,107,cs),
(784.333,98.333,o),
(780.333,73,o),
(773,31,cs),
(767.667,-1.667,o),
(755.667,-26.667,o),
(737,-44,cs),
(733,-48,o),
(730,-48,o),
(728,-44,cs),
(689,36,l),
(715,52,l),
(722.333,86.667,o),
(726,120.333,o),
(726,153,cs),
(726,187.667,o),
(715,217.667,o),
(693,243,c),
(704,255,l),
(796,186,l),
(796,186,l)
);
},
{
closed = 1;
nodes = (
(303,164.667,o),
(300.333,152.667,o),
(299,138,cs),
(297.667,123.333,o),
(296.667,96.667,o),
(296,58,cs),
(296,46,o),
(297.667,43,o),
(307,43,cs),
(386.333,45,o),
(487,51,o),
(609,61,cs),
(677,67.667,o),
(709.667,71.333,o),
(739,86,c),
(739.667,86,o),
(741,86.833,o),
(743,88.5,cs),
(745,90.167,o),
(746.667,90.333,o),
(748,89,cs),
(752,86,l),
(738,16,l),
(715,15,ls),
(603.667,10.333,o),
(484.333,3.667,o),
(357,-5,cs),
(323.667,-7.667,o),
(302.667,-12.333,o),
(294,-19,cs),
(270,-37,ls),
(265.333,-40.333,o),
(262,-40.333,o),
(260,-37,c),
(213,21,ls),
(210.333,25,o),
(210.333,28.333,o),
(213,31,c),
(231.667,44.333,o),
(240.333,58.333,o),
(243,97,cs),
(244,132,ls),
(244,160,o),
(230.667,194.667,o),
(208,224,c),
(227,234,l),
(307,174,l),
(307,174,l)
);
},
{
closed = 1;
nodes = (
(539,279.667,o),
(535.667,245.333,o),
(535,202,cs),
(535,190.667,o),
(534.667,182.333,o),
(534,177,cs),
(532.667,107.667,o),
(530,-57.667,o),
(530,-163,c),
(518,-169,l),
(457,-101,ls),
(455.667,-99.667,o),
(455.667,-96.667,o),
(457,-92,cs),
(464.333,-74.667,o),
(469,-53,o),
(471,-27,cs),
(477,77,o),
(480,156.667,o),
(480,212,cs),
(480,234,o),
(479.667,249.667,o),
(479,259,cs),
(477.667,296.333,o),
(467.667,332.333,o),
(449,367,c),
(464,378,l),
(545,305,l),
(545,305,l)
);
},
{
closed = 1;
nodes = (
(252,633,o),
(300,582.333,o),
(336,529,c),
(338,527,o),
(339,523.667,o),
(339,519,cs),
(339,515,o),
(338,510.333,o),
(336,505,cs),
(308,407,l),
(292,406,l),
(273.333,494,o),
(227.333,593.333,o),
(174,664,c),
(192,681,l),
(192,681,l)
);
}
);
width = 1000;
}
);
unicode = 101490;
}
{
glyphname = u18C84;
layers = (
{
layerId = master01;
shapes = (
{
closed = 1;
nodes = (
(244,448,o),
(241.333,525,o),
(236,587,cs),
(232,628.333,o),
(218.333,675.667,o),
(189,705,c),
(199,718,l),
(304,637,l),
(300.667,619.667,o),
(299,595,o),
(299,563,cs),
(299,533,ls),
(300.333,463.667,o),
(301.667,406.333,o),
(303,361,c),
(244,356,l),
(244,356,l)
);
},
{
closed = 1;
nodes = (
(314,645.333,o),
(382.333,652.167,o),
(487,662.5,cs),
(591.667,672.833,o),
(650,679.333,o),
(662,682,cs),
(690.667,688,o),
(712.333,698.667,o),
(727,714,c),
(731,716.667,o),
(734.667,716.667,o),
(738,714,cs),
(796,671,ls),
(798.667,669,o),
(798.667,666,o),
(796,662,cs),
(782,643,ls),
(779.333,639.667,o),
(777,634.667,o),
(775,628,cs),
(769.667,609.333,o),
(756,532.333,o),
(734,397,c),
(679,393,l),
(692.333,499.667,o),
(701.333,592,o),
(704,624,cs),
(704,628,ls),
(704,630.667,o),
(701.667,632,o),
(697,632,cs),
(617,625.333,o),
(423.333,607,o),
(266,591,c),
(260,640,l),
(282,642,l),
(282,642,l)
);
},
{
closed = 1;
nodes = (
(215.333,318,o),
(183.333,313.667,o),
(142,307,cs),
(111,301,l),
(30,358,l),
(35,372,l),
(71,368,o),
(103,366,o),
(131,366,cs),
(155,366,o),
(178,367,o),
(200,369,cs),
(457,388,ls),
(489,390.667,o),
(527,393.5,o),
(571,396.5,cs),
(615,399.5,o),
(667.667,403.667,o),
(729,409,cs),
(799.667,415.667,o),
(834.333,422.333,o),
(869,441,c),
(871,443,o),
(873.667,443,o),
(877,441,cs),
(974,388,l),
(971,374,l),
(721.667,358.667,o),
(477.333,340.667,o),
(238,320,cs)
);
},
{
closed = 1;
nodes = (
(949,60,l),
(691,-103,ls),
(676.333,-112.333,o),
(660.333,-128,o),
(643,-150,cs),
(639,-154,o),
(635.333,-154.333,o),
(632,-151,cs),
(581,-99,ls),
(576.333,-94.333,o),
(575.667,-90.333,o),
(579,-87,cs),
(599,-69.667,o),
(608,-56,o),
(608,-40,cs),
(608.667,-18,o),
(609,22.667,o),
(609,82,cs),
(609,166.667,o),
(608.667,225.333,o),
(608,258,cs),
(608,299.333,o),
(595,347,o),
(567,379,c),
(578,391,l),
(682,304,l),
(674,274,o),
(670,239.667,o),
(670,201,cs),
(670,144.333,o),
(670.667,61.333,o),
(672,-48,c),
(934,88,l),
(934,88,l)
);
},
{
closed = 1;
nodes = (
(204,-36.333,o),
(310.667,104.333,o),
(344,275,cs),
(347.333,293.667,o),
(349,307.667,o),
(349,317,cs),
(349,331,o),
(346.667,344,o),
(342,356,c),
(356,364,l),
(430,271,l),
(414,251,o),
(407,235.333,o),
(395,206,cs),
(330.333,34.667,o),
(213.333,-87.333,o),
(44,-160,c),
(28,-131,l),
(28,-131,l)
);
}
);
width = 1000;
}
);
unicode = 101508;
}
{
glyphname = u18C8D;
layers = (
{
layerId = master01;
shapes = (
{
closed = 1;
nodes = (
(299.333,593,o),
(259.667,586.333,o),
(219,577,c),
(135,634,l),
(140,647,l),
(163.333,644.333,o),
(188,643,o),
(214,643,cs),
(234,643,o),
(262,644.333,o),
(298,647,cs),
(472.667,659,o),
(604.667,669.333,o),
(694,678,cs),
(742.667,683.333,o),
(785.333,694.667,o),
(822,712,cs),
(826.667,714,o),
(830,714,o),
(832,712,cs),
(893,632,l),
(895.667,629.333,o),
(894.667,623.333,o),
(892,622,c),
(844,578,o),
(750.333,493.333,o),
(689,440,c),
(665,463,l),
(717,517.667,o),
(786.667,602.333,o),
(800,625,cs),
(803.333,630.333,o),
(802.333,633,o),
(797,633,cs),
(770,631,ls),
(599.333,619,o),
(455.333,607.667,o),
(338,597,cs)
);
},
{
closed = 1;
nodes = (
(282,-104.333,o),
(241.333,-110.333,o),
(198,-119,c),
(122,-62,l),
(127,-49,l),
(157.667,-52.333,o),
(190.333,-54,o),
(225,-54,cs),
(238.333,-54,o),
(258.333,-53.333,o),
(285,-52,cs),
(421,-43,ls),
(539.667,-35,o),
(618.667,-29,o),
(658,-25,cs),
(724.667,-19.667,o),
(755,-14.667,o),
(787,4,c),
(790.333,5.333,o),
(793.333,5.333,o),
(796,4,cs),
(887,-48,l),
(884,-63,l),
(637.333,-77.667,o),
(449.333,-90.333,o),
(320,-101,cs)
);
},
{
closed = 1;
nodes = (
(472,40.667,o),
(472.333,120.333,o),
(473,179,cs),
(474,424,ls),
(474,474.667,o),
(473.667,505,o),
(473,515,cs),
(471.667,553.667,o),
(456.333,603,o),
(427,635,c),
(438,647,l),
(546,561,l),
(539.333,532.333,o),
(536,498,o),
(536,458,cs),
(536,410,o),
(535.667,363.667,o),
(535,319,cs),
(534,-53,l),
(472,-60,l),
(472,-60,l)
);
},
{
closed = 1;
nodes = (
(208.333,239,o),
(167.333,233.333,o),
(122,224,c),
(45,282,l),
(50,295,l),
(80.667,291.667,o),
(113.667,290,o),
(149,290,cs),
(163,290,o),
(183.333,290.667,o),
(210,292,cs),
(396,302,o),
(567.667,314,o),
(725,328,cs),
(793,334.667,o),
(823,338.333,o),
(855,357,cs),
(857.667,358.333,o),
(860.667,358,o),
(864,356,cs),
(956,303,l),
(953,288,l),
(732.333,277.333,o),
(496.333,261.667,o),
(245,241,cs)
);
}
);
width = 1000;
}
);
unicode = 101517;
}
{
glyphname = u18C8E;
layers = (
{
layerId = master01;
shapes = (
{
closed = 1;
nodes = (
(246.667,382.333,o),
(206,376.333,o),
(170,369,c),
(93,424,l),
(98,437,l),
(121.333,434.333,o),
(146,433,o),
(172,433,cs),
(191.333,433,o),
(219,434.333,o),
(255,437,cs),
(424.333,449,o),
(582,461.667,o),
(728,475,cs),
(776.667,480.333,o),
(819.333,491.667,o),
(856,509,cs),
(860.667,511,o),
(864,511,o),
(866,509,cs),
(927,430,ls),
(928.333,428,o),
(929,425.833,o),
(929,423.5,cs),
(929,421.167,o),
(928.333,419.333,o),
(927,418,cs),
(879,374,o),
(784.333,291.333,o),
(723,238,c),
(699,261,l),
(751,317,o),
(820.667,399.333,o),
(834,422,cs),
(837.333,427.333,o),
(836.333,430,o),
(831,430,cs),
(623.667,416,o),
(444,401.667,o),
(292,387,cs)
);
},
{
closed = 1;
nodes = (
(266.667,-35.333,o),
(382,93.167,o),
(430,272.5,cs),
(454,362.167,o),
(465,472.333,o),
(463,603,cs),
(461.667,661.667,o),
(455,714,o),
(423,750,c),
(434,762,l),
(546,678,l),
(540,660.667,o),
(536.333,636.333,o),
(535,605,cs),
(524.333,318.333,o),
(477.5,141.833,o),
(343.5,6.5,cs),
(276.5,-61.167,o),
(181.333,-119,o),
(58,-167,c),
(44,-138,l),
(44,-138,l)
);
},
{
closed = 1;
nodes = (
(605.667,244,o),
(687,121.333,o),
(753,34,cs),
(809,-40.667,o),
(854.333,-66.333,o),
(953,-89,c),
(952,-116,l),
(758,-125,ls),
(750.667,-125,o),
(746,-122.667,o),
(744,-118,cs),
(696.667,-18.667,o),
(614,133.333,o),
(496,338,c),
(509,402,l),
(509,402,l)
);
}
);
width = 1000;
}
);
unicode = 101518;
}
{
glyphname = u18C90;
layers = (
{
layerId = master01;
shapes = (
{
closed = 1;
nodes = (
(710,200.333,o),
(712.667,290,o),
(716,438,cs),
(716.667,444.667,o),
(717,454.333,o),
(717,467,cs),
(717,484.333,o),
(716,488.333,o),
(704,487,cs),
(561.333,477.667,o),
(372.333,464.333,o),
(267,455,cs),
(235,451.667,o),
(201.667,445.667,o),
(167,437,c),
(90,493,l),
(95,506,l),
(119.667,502.667,o),
(148.333,501,o),
(181,501,cs),
(196.333,501,o),
(218,501.667,o),
(246,503,cs),
(416,513,o),
(553,523,o),
(657,533,cs),
(690.333,535.667,o),
(715.667,547.667,o),
(741,573,cs),
(744.333,576.333,o),
(748,576.333,o),
(752,573,cs),
(803,529,ls),
(805.667,527,o),
(805.667,524,o),
(803,520,cs),
(784,496,ls),
(779.333,490.667,o),
(777,483.667,o),
(777,475,cs),
(775.667,449,o),
(774.667,423,o),
(774,397,cs),
(773.333,371,o),
(772.667,346.333,o),
(772,323,cs),
(768,173,l),
(708,169,l),
(708,169,l)
);
},
{
closed = 1;
nodes = (
(197.667,108.667,o),
(155.333,103.333,o),
(108,96,c),
(28,155,l),
(34,168,l),
(75.333,163.333,o),
(113.667,161,o),
(149,161,cs),
(171.667,161,o),
(188.333,161.333,o),
(199,162,cs),
(371.552,171.481,o),
(522.604,180.979,o),
(635,187,cs),
(730,193,ls),
(799.333,197,o),
(834,203.667,o),
(870,221,cs),
(872,222.333,o),
(874.667,222,o),
(878,220,cs),
(974,166,l),
(971,152,l),
(870,147,ls),
(598.667,134.333,o),
(387,122.667,o),
(235,112,cs)
);
},
{
closed = 1;
nodes = (
(481.333,657.333,o),
(478,623,o),
(478,583,cs),
(478,461,o),
(477,337,o),
(475,211,cs),
(473.667,43,o),
(473,-80.333,o),
(473,-159,c),
(460,-165,l),
(397,-97,ls),
(395.667,-95.667,o),
(395.667,-92.667,o),
(397,-88,cs),
(405,-70,o),
(409.667,-48.333,o),
(411,-23,cs),
(415,101,o),
(417,248,o),
(417,418,cs),
(417,523.333,o),
(416.333,597.333,o),
(415,640,cs),
(413.667,681.333,o),
(401.333,728,o),
(372,760,c),
(383,772,l),
(488,686,l),
(488,686,l)
);
}
);
width = 1000;
}
);
unicode = 101520;
}
{
glyphname = u18C91;
layers = (
{
layerId = master01;
shapes = (
{
closed = 1;
nodes = (
(333.333,237.667,o),
(597,401,o),
(693,493,cs),
(697.667,497.667,o),
(700,501,o),
(700,503,cs),
(700,505.667,o),
(696.333,506.333,o),
(689,505,c),
(554.333,495,o),
(432.333,483.667,o),
(323,471,cs),
(287,466.333,o),
(246.333,458.333,o),
(201,447,c),
(121,499,l),
(126,512,l),
(160,511,ls),
(201.333,511,o),
(251.333,514.667,o),
(266,516,cs),
(286,518,ls),
(446,531.333,o),
(565.667,543,o),
(645,553,cs),
(691.667,559.667,o),
(726.667,574.667,o),
(750,598,cs),
(754,602,o),
(757.667,602,o),
(761,598,cs),
(835,525,ls),
(839,521,o),
(840.333,515.333,o),
(835,514,c),
(810,502,ls),
(796.667,495.333,o),
(787.333,490,o),
(782,486,cs),
(639.333,372.667,o),
(366.667,204.333,o),
(208,127,c),
(809,169,l),
(820,136,l),
(191,57,ls),
(172.333,54.333,o),
(152.333,48.667,o),
(131,40,cs),
(127,38.667,o),
(123.667,40,o),
(121,44,cs),
(78,114,l),
(76.667,115.333,o),
(76,117,o),
(76,119,cs),
(76,123,o),
(78,125.333,o),
(82,126,cs),
(100,128.667,o),
(119,135,o),
(139,145,cs),
(159,155,o),
(170.667,160.667,o),
(174,162,cs),
(192,171,l),
(192,171,l)
);
},
{
closed = 1;
nodes = (
(792.333,238,o),
(855.333,177.667,o),
(922,103,cs),
(926,97.667,o),
(927.333,91.667,o),
(926,85,cs),
(902,-11,l),
(880,-16,l),
(837.333,85.333,o),
(770,198.333,o),
(690,289,c),
(707,306,l),
(707,306,l)
);
},
{
closed = 1;
nodes = (
(539.333,657.333,o),
(536,623,o),
(536,583,cs),
(536,423,o),
(534.333,296.667,o),
(533,210,cs),
(531,84,o),
(530,-39.667,o),
(530,-161,c),
(517,-167,l),
(454,-99,ls),
(452.667,-97.667,o),
(452.667,-94.667,o),
(454,-90,cs),
(462,-72,o),
(466.667,-50.333,o),
(468,-25,cs),
(472.667,88.333,o),
(475,243.667,o),
(475,441,cs),
(475,497.667,o),
(474.333,564,o),
(473,640,cs),
(471.667,681.333,o),
(459.333,728,o),
(430,760,c),
(441,772,l),
(546,686,l),
(546,686,l)
);
}
);
width = 1000;
}
);
unicode = 101521;
}
{
glyphname = u18C96;
layers = (
{
layerId = master01;
shapes = (
{
closed = 1;
nodes = (
(596.667,702.667,o),
(631.667,717.667,o),
(655,741,cs),
(659,745,o),
(662.667,745,o),
(666,741,cs),
(728,679,ls),
(732,675.667,o),
(732,672,o),
(728,668,cs),
(708,650,ls),
(698.667,642,o),
(692.333,635.333,o),
(689,630,cs),
(526.333,383.333,o),
(344.667,215,o),
(66,103,c),
(50,135,l),
(308.667,264.333,o),
(478.667,429.667,o),
(608,635,cs),
(611.333,640.333,o),
(613,644.333,o),
(613,647,cs),
(613,651,o),
(608.333,652.333,o),
(599,651,cs),
(472,635,ls),
(430.667,630.333,o),
(384,624.667,o),
(332,618,cs),
(296,614.667,o),
(255.333,607,o),
(210,595,c),
(130,649,l),
(135,662,l),
(169,661,ls),
(210.333,661,o),
(260.333,664.667,o),
(275,666,cs),
(295,668,ls),
(361.667,673.333,o),
(446.667,682.667,o),
(550,696,cs)
);
},
{
closed = 1;
nodes = (
(541.667,74.667,o),
(545,198,o),
(545,314,cs),
(545,346.667,o),
(544.667,369.667,o),
(544,383,cs),
(542.667,420.333,o),
(532.667,456.333,o),
(514,491,c),
(529,502,l),
(614,429,l),
(608,403.667,o),
(604.667,369.333,o),
(604,326,cs),
(601.333,219.333,o),
(599.667,92,o),
(599,-56,c),
(535,-56,l),
(535,-56,l)
);
},
{
closed = 1;
nodes = (
(311.667,-103.667,o),
(270.667,-109,o),
(230,-117,c),
(156,-59,l),
(162,-46,l),
(200,-50.667,o),
(236.333,-53,o),
(271,-53,cs),
(292.333,-53,o),
(308.333,-52.667,o),
(319,-52,cs),
(474,-44,l),
(550,-40,ls),
(695.141,-33.089,o),
(784.187,-28.406,o),
(817,-22.5,cs),
(833.667,-19.5,o),
(847.333,-14.667,o),
(858,-8,c),
(861.333,-6.667,o),
(864.333,-7,o),
(867,-9,cs),
(958,-61,l),
(955,-76,l),
(673.667,-81.333,o),
(594.333,-83.667,o),
(353,-101,cs)
);
},
{
closed = 1;
nodes = (
(459.333,142.333,o),
(418.667,136,o),
(370,126,c),
(294,180,l),
(299,193,l),
(337.667,189.667,o),
(368.333,188,o),
(391,188,cs),
(413,188,o),
(435,189,o),
(457,191,cs),
(513,193.667,o),
(561.667,197,o),
(603,201,cs),
(629,203,ls),
(686.333,207,o),
(729,217.667,o),
(757,235,c),
(760.333,236.333,o),
(763.333,236,o),
(766,234,c),
(858,185,l),
(855,170,l),
(705.667,163.333,o),
(657.333,159.667,o),
(492,145,cs)
);
}
);
width = 1000;
}
);
unicode = 101526;
}
{
glyphname = u18C9A;
layers = (
{
layerId = master01;
shapes = (
{
closed = 1;
nodes = (
(368.333,676,o),
(434,682.333,o),
(506,691,cs),
(564.667,699,o),
(595,713,o),
(627,741,cs),
(630.333,744.333,o),
(633.667,744.333,o),
(637,741,cs),
(690,681,l),
(693.333,678.333,o),
(693.333,675.333,o),
(690,672,cs),
(669,650,ls),
(663,644,o),
(658.333,637.333,o),
(655,630,cs),
(527,355.333,o),
(353.667,179.333,o),
(63,26,c),
(43,59,l),
(304.333,217.667,o),
(471,390.333,o),
(575,629,cs),
(576.333,631.667,o),
(577,634.667,o),
(577,638,cs),
(577,641.333,o),
(575.667,643.333,o),
(573,644,cs),
(570.333,644.667,o),
(566,644.667,o),
(560,644,cs),
(461.333,636,o),
(385.333,629.333,o),
(332,624,cs),
(278.667,618.667,o),
(235.333,612.667,o),
(202,606,c),
(127,662,l),
(133,674,l),
(161.667,670,o),
(192,668,o),
(224,668,cs),
(254,668,o),
(282.333,669.333,o),
(309,672,cs)
);
},
{
closed = 1;
nodes = (
(377,426.333,o),
(557.667,444.667,o),
(655,458,cs),
(713.667,466,o),
(744,480,o),
(776,508,cs),
(779.333,511.333,o),
(782.667,511.333,o),
(786,508,cs),
(838,448,l),
(841.333,445.333,o),
(841.333,442.333,o),
(838,439,cs),
(817,417,ls),
(811,411,o),
(806.333,404.333,o),
(803,397,cs),
(685.667,137,o),
(510.333,-22.333,o),
(217,-157,c),
(200,-124,l),
(468,21.333,o),
(630.667,170.667,o),
(724,396,cs),
(725.333,398.667,o),
(726,401.667,o),
(726,405,cs),
(726,408.333,o),
(724.667,410.333,o),
(722,411,cs),
(719.333,411.667,o),
(715,411.667,o),
(709,411,cs),
(543.667,397,o),
(407,383,o),
(299,369,cs),
(255.667,363.667,o),
(210,355.667,o),
(162,345,c),
(87,405,l),
(93,417,l),
(113.667,413.667,o),
(139.333,412,o),
(170,412,cs),
(199.333,412,o),
(232.333,413.667,o),
(269,417,cs)
);
},
{
closed = 1;
nodes = (
(472.667,232,o),
(625.667,85.333,o),
(699,24,cs),
(788.333,-50.667,o),
(860.333,-83,o),
(967,-99,c),
(967,-128,l),
(769,-144,l),
(766,-144,ls),
(758.667,-144,o),
(752,-140.667,o),
(746,-134,cs),
(663.333,-35.333,o),
(470,177.667,o),
(370,271,c),
(414,296,l),
(414,296,l)
);
}
);
width = 1000;
}
);
unicode = 101530;
}
{
glyphname = u18C9D;
layers = (
{
layerId = master01;
shapes = (
{
closed = 1;
nodes = (
(639.333,700,o),
(675,713.333,o),
(699,736,cs),
(703,740,o),
(706.667,740,o),
(710,736,cs),
(769,671,l),
(773,667.667,o),
(773,664,o),
(769,660,cs),
(748,643,ls),
(746.667,641.667,o),
(743.833,639.5,o),
(739.5,636.5,cs),
(735.167,633.5,o),
(731.333,629.333,o),
(728,624,cs),
(570.667,381.333,o),
(369.333,221.667,o),
(60,127,c),
(46,160,l),
(335.333,270.667,o),
(525.333,429.333,o),
(648,632,cs),
(651.333,638.667,o),
(653,642.667,o),
(653,644,cs),
(653,648.667,o),
(648.333,650.333,o),
(639,649,cs),
(607.667,645.667,o),
(558.667,642,o),
(492,638,cs),
(353,627,ls),
(309,624.333,o),
(268.667,617,o),
(230,609,c),
(153,666,l),
(158,679,l),
(188,677,o),
(215,676,o),
(239,676,cs),
(257,676,o),
(283.333,676.667,o),
(318,678,cs),
(400.667,681.333,o),
(492,687.333,o),
(592,696,cs)
);
},
{
closed = 1;
nodes = (
(469.333,-14.667,o),
(470,25.667,o),
(470,49,cs),
(469,120,ls),
(467.667,157.333,o),
(457.667,193.333,o),
(439,228,c),
(454,239,l),
(540,166,l),
(534,140.667,o),
(530.667,106.333,o),
(530,63,cs),
(528.667,15,o),
(528,-28.333,o),
(528,-67,c),
(468,-72,l),
(468,-72,l)
);
},
{
closed = 1;
nodes = (
(238.667,-110.667,o),
(197.667,-116,o),
(157,-124,c),
(83,-66,l),
(89,-53,l),
(127,-57.667,o),
(163.333,-60,o),
(198,-60,cs),
(219.333,-60,o),
(235.333,-59.667,o),
(246,-59,cs),
(401,-51,l),
(491,-46,ls),
(646.851,-39.104,o),
(741.842,-32.412,o),
(776,-26.5,cs),
(793.333,-23.5,o),
(807.333,-18.667,o),
(818,-12,c),
(821.333,-10.667,o),
(824.333,-11,o),
(827,-13,cs),
(918,-68,l),
(915,-83,l),
(898.333,-83,o),
(885.667,-83.333,o),
(877,-84,cs),
(609,-88,o),
(521.333,-90.667,o),
(280,-108,cs)
);
},
{
closed = 1;
nodes = (
(310.333,474,o),
(283.667,482,o),
(255,482,cs),
(243,482,o),
(227.667,480.333,o),
(209,477,c),
(203,489,l),
(301,547,l),
(318.333,529.667,o),
(340,512.667,o),
(366,496,cs),
(420,461.333,o),
(494.333,415.667,o),
(589,359,cs),
(702.333,291,o),
(771.667,260.333,o),
(837,247,cs),
(869.667,240.333,o),
(909.333,235.667,o),
(956,233,c),
(957,203,l),
(750,171,l),
(746,171,ls),
(738.667,171,o),
(732.667,173,o),
(728,177,cs),
(616,266.333,o),
(467,372.667,o),
(335,458,cs)
);
}
);
width = 1000;
}
);
unicode = 101533;
}
{
glyphname = u18CA4;
layers = (
{
layerId = master01;
shapes = (
{
closed = 1;
nodes = (
(254.667,388.667,o),
(220.333,383.333,o),
(187,376,c),
(111,438,l),
(116,451,l),
(146,446.333,o),
(178.333,444,o),
(213,444,cs),
(231,444,o),
(252,444.667,o),
(276,446,cs),
(440,456.667,o),
(669.667,480,o),
(719,488,cs),
(757.667,494.667,o),
(793,510,o),
(817,534,cs),
(820.333,537.333,o),
(823.333,537.333,o),
(826,534,cs),
(890,465,ls),
(893.333,461.667,o),
(893.333,458.333,o),
(890,455,cs),
(866,435,ls),
(857.178,427.942,o),
(856,422.957,o),
(856,418,c),
(822.667,235.333,o),
(765,25.667,o),
(709,-81,cs),
(691,-116.333,o),
(674,-141.333,o),
(658,-156,cs),
(656.667,-157.333,o),
(654.667,-158,o),
(652,-158,cs),
(649.333,-158,o),
(647,-156.333,o),
(645,-153,c),
(589,-83.667,o),
(534.667,-25.667,o),
(482,21,c),
(501,44,l),
(634,-46,l),
(635.333,-47.333,o),
(637.667,-48,o),
(641,-48,cs),
(644.333,-48,o),
(647.667,-45.333,o),
(651,-40,cs),
(702.681,40.393,o),
(760.244,248.519,o),
(785,428,cs),
(785,431,ls),
(785,438.333,o),
(781.667,441.333,o),
(775,440,c),
(634.333,426.667,o),
(472.667,410.667,o),
(290,392,cs)
);
},
{
closed = 1;
nodes = (
(227.333,-16.333,o),
(342,121.167,o),
(406,292.5,cs),
(438,378.167,o),
(462,479.333,o),
(478,596,cs),
(480,609.333,o),
(481,624.667,o),
(481,642,cs),
(481,688,o),
(471.333,723.333,o),
(452,748,c),
(464,760,l),
(569,669,l),
(563,651.667,o),
(557.333,628,o),
(552,598,cs),
(505.333,331.333,o),
(441.5,161.667,o),
(311.5,23,cs),
(246.5,-46.333,o),
(159.333,-109.667,o),
(50,-167,c),
(34,-139,l),
(34,-139,l)
);
}
);
width = 1000;
}
);
unicode = 101540;
}
{
glyphname = u18CA5;
layers = (
{
layerId = master01;
shapes = (
{
closed = 1;
nodes = (
(212.667,390,o),
(165.333,378.667,o),
(156,376,c),
(79,436,l),
(83,449,l),
(105,445.667,o),
(132,444,o),
(164,444,cs),
(194.667,444,o),
(221,445,o),
(243,447,cs),
(399,457.667,o),
(615.333,480,o),
(658,488,cs),
(696.667,494.667,o),
(732,510,o),
(756,534,cs),
(759.333,537.333,o),
(762.333,537.333,o),
(765,534,cs),
(827,465,ls),
(830.333,461.667,o),
(830.333,458.333,o),
(827,455,cs),
(803,435,ls),
(794.178,427.942,o),
(793,422.957,o),
(793,418,c),
(759.667,235.333,o),
(702,25.667,o),
(646,-81,cs),
(628,-116.333,o),
(611,-141.333,o),
(595,-156,cs),
(593.667,-157.333,o),
(591.667,-158,o),
(589,-158,cs),
(586.333,-158,o),
(584,-156.333,o),
(582,-153,c),
(526,-83.667,o),
(483.667,-33.667,o),
(421,21,c),
(440,44,l),
(573,-46,l),
(574.333,-47.333,o),
(576.667,-48,o),
(580,-48,cs),
(583.333,-48,o),
(586.667,-45.333,o),
(590,-40,cs),
(641.681,40.393,o),
(699.244,248.519,o),
(724,428,cs),
(724,431,ls),
(724,438.333,o),
(720.667,441.333,o),
(714,440,c),
(587.333,428.667,o),
(435.333,413.333,o),
(258,394,cs)
);
},
{
closed = 1;
nodes = (
(207,-16.333,o),
(310.333,121.333,o),
(369,292,cs),
(398.333,377.333,o),
(421,478.667,o),
(437,596,cs),
(439,609.333,o),
(440,624.667,o),
(440,642,cs),
(440,688,o),
(430.333,723.333,o),
(411,748,c),
(423,760,l),
(528,669,l),
(522,651.667,o),
(516.333,628,o),
(511,598,cs),
(464.333,328.667,o),
(405.833,161.833,o),
(286.5,22.5,cs),
(226.833,-47.167,o),
(147,-110.333,o),
(47,-167,c),
(31,-139,l),
(31,-139,l)
);
},
{
closed = 1;
nodes = (
(643.667,182.333,o),
(714.333,120,o),
(785,64,cs),
(869,-1.333,o),
(906,-14.667,o),
(982,-24,c),
(984,-55,l),
(845,-79,l),
(840,-79,ls),
(834,-79,o),
(829.333,-77.333,o),
(826,-74,cs),
(769,-16,ls),
(652.333,104,o),
(568.333,188.333,o),
(517,237,cs),
(483.667,269,o),
(459.333,282.667,o),
(406,284,c),
(403,300,l),
(509,330,l),
(526.333,300.667,o),
(538.333,283,o),
(573,251,cs)
);
}
);
width = 1000;
}
);
unicode = 101541;
}
{
glyphname = u18CA6;
layers = (
{
layerId = master01;
shapes = (
{
closed = 1;
nodes = (
(237.667,460.333,o),
(203.333,455,o),
(164,447,c),
(88,509,l),
(93,522,l),
(123,517.333,o),
(155.333,515,o),
(190,515,cs),
(208,515,o),
(229,515.667,o),
(253,517,cs),
(411.667,527.667,o),
(674,552.333,o),
(714,559,cs),
(752.667,565.667,o),
(788,581,o),
(812,605,cs),
(815.333,608.333,o),
(818.333,608.333,o),
(821,605,cs),
(885,536,ls),
(888.333,532.667,o),
(888.333,529.333,o),
(885,526,cs),
(861,506,ls),
(851.667,498,o),
(852.333,498.333,o),
(851,489,cs),
(848,461,ls),
(824,207.667,o),
(807,67.333,o),
(771,-58,cs),
(761,-92.667,o),
(747.667,-119.667,o),
(731,-139,cs),
(727,-143.667,o),
(722.667,-143.667,o),
(718,-139,cs),
(652.667,-77.667,o),
(589.333,-26.333,o),
(528,15,c),
(543,40,l),
(691,-35,l),
(695,-36.333,o),
(697.333,-37,o),
(698,-37,cs),
(702,-37,o),
(705,-33.333,o),
(707,-26,cs),
(736.333,51.333,o),
(769.333,277.667,o),
(780,499,cs),
(780,507.667,o),
(776.667,511.667,o),
(770,511,cs),
(744.667,508.333,o),
(725,506.667,o),
(711,506,cs),
(596.333,495.333,o),
(437.667,480.333,o),
(267,463,cs)
);
},
{
closed = 1;
nodes = (
(461.333,657.333,o),
(458,623,o),
(458,583,cs),
(458,461,o),
(457,337,o),
(455,211,cs),
(453.667,43,o),
(453,-80.333,o),
(453,-159,c),
(440,-165,l),
(377,-97,ls),
(375.667,-95.667,o),
(375.667,-92.667,o),
(377,-88,cs),
(385,-70,o),
(389.667,-48.333,o),
(391,-23,cs),
(395,101,o),
(397,248,o),
(397,418,cs),
(397,523.333,o),
(396.333,597.333,o),
(395,640,cs),
(393.667,681.333,o),
(381.333,728,o),
(352,760,c),
(363,772,l),
(468,686,l),
(468,686,l)
);
},
{
closed = 1;
nodes = (
(523,352,o),
(600.667,307,o),
(666,259,c),
(673.333,255,o),
(677,247.667,o),
(677,237,cs),
(681,128,l),
(666,122,l),
(608.667,199.333,o),
(522.667,283.333,o),
(432,354,c),
(433,394,l),
(433,394,l)
);
},
{
closed = 1;
nodes = (
(350.667,234.667,o),
(219,83.667,o),
(63,-35,c),
(43,-10,l),
(213.667,154.667,o),
(334.667,324,o),
(406,498,c),
(428,376,l),
(428,376,l)
);
}
);
width = 1000;
}
);
unicode = 101542;
}
{
glyphname = u18CA7;
layers = (
{
layerId = master01;
shapes = (
{
closed = 1;
nodes = (
(340,509,o),
(339.667,474.333,o),
(339,445,cs),
(332.333,174.333,o),
(248.333,-7,o),
(55,-155,c),
(36,-132,l),
(205.333,20,o),
(276,193.667,o),
(276,451,cs),
(276,593,ls),
(276,634.333,o),
(263.333,682,o),
(234,714,c),
(245,726,l),
(351,640,l),
(345.509,612.544,o),
(340,605.11,o),
(340,549,cs)
);
},
{
closed = 1;
nodes = (
(440,443.667,o),
(552,452.667,o),
(650,462,cs),
(718,468.667,o),
(748,472.333,o),
(780,491,cs),
(782.667,492.333,o),
(785.667,492,o),
(789,490,cs),
(881,437,l),
(878,422,l),
(708,412,o),
(520.333,399,o),
(315,383,c),
(314,435,l),
(314,435,l)
);
},
{
closed = 1;
nodes = (
(774,485.333,o),
(780.667,525.667,o),
(786,561,cs),
(791.333,596.333,o),
(794,618.333,o),
(794,627,cs),
(794,629,ls),
(794,633,o),
(792,635,o),
(788,635,cs),
(745.333,633.667,o),
(467,607.667,o),
(319,593,c),
(321,645,l),
(466.333,657,o),
(723.333,681.333,o),
(762,688,cs),
(792,692.667,o),
(814,701.667,o),
(828,715,cs),
(832,718.333,o),
(835.667,718.333,o),
(839,715,cs),
(884,668,ls),
(886,666,o),
(885.667,663,o),
(883,659,cs),
(869,643,ls),
(865.667,638.333,o),
(863.333,633.333,o),
(862,628,cs),
(855.333,605.333,o),
(832.667,487.667,o),
(822,425,c),
(766,440,l),
(766,440,l)
);
},
{
closed = 1;
nodes = (
(501.333,126,o),
(459.333,119.667,o),
(412,111,c),
(331,169,l),
(336,182,l),
(366,178.667,o),
(398.333,177,o),
(433,177,cs),
(449,177,o),
(471.667,177.667,o),
(501,179,cs),
(541,181.667,o),
(606,186.333,o),
(696,193,cs),
(717,195,ls),
(785,200.333,o),
(821.333,207.333,o),
(856,226,cs),
(858,227.333,o),
(860.667,227,o),
(864,225,cs),
(961,172,l),
(958,158,l),
(816.667,150,o),
(678,142,o),
(538,130,cs)
);
},
{
closed = 1;
nodes = (
(668,327.667,o),
(664.667,293.333,o),
(664,250,cs),
(663,176,ls),
(660.333,56,o),
(659,-34.667,o),
(659,-96,cs),
(659,-160,l),
(646,-166,l),
(586,-98,ls),
(584.667,-96.667,o),
(584.667,-93.667,o),
(586,-89,cs),
(594,-71,o),
(598.667,-49.333,o),
(600,-24,cs),
(603.333,61.333,o),
(605,144,o),
(605,224,cs),
(605,263.333,o),
(604.667,291,o),
(604,307,cs),
(602.667,348.333,o),
(590.333,395,o),
(561,427,c),
(572,439,l),
(674,353,l),
(674,353,l)
);
}
);
width = 1000;
}
);
unicode = 101543;
}
{
glyphname = u18CB0;
layers = (
{
layerId = master01;
shapes = (
{
closed = 1;
nodes = (
(543.667,433.667,o),
(542.667,416.667,o),
(544,378,cs),
(548.667,245.333,o),
(551,127.667,o),
(551,25,cs),
(551,-17,ls),
(551,-39.667,o),
(549.667,-58.667,o),
(547,-74,cs),
(540.333,-111.333,o),
(528.333,-127.667,o),
(507,-157,cs),
(503,-161.667,o),
(498.667,-162,o),
(494,-158,cs),
(423.333,-92.667,o),
(352.667,-42,o),
(254,22,c),
(266,46,l),
(463,-42,l),
(467,-43,l),
(471.667,-43,o),
(474.667,-38,o),
(476,-28,cs),
(481.333,22.667,o),
(484,84.667,o),
(484,158,cs),
(484,252.667,o),
(479.667,348.667,o),
(477,382,cs),
(473,438,o),
(463.333,480,o),
(434,512,c),
(445,524,l),
(549,455,l),
(549,455,l)
);
},
{
closed = 1;
nodes = (
(298.667,611.667,o),
(262.333,604.333,o),
(235,595,c),
(156,656,l),
(162,668,l),
(192,664,o),
(219,662,o),
(243,662,cs),
(263,662,o),
(284,663,o),
(306,665,cs),
(458,677,o),
(559,686.333,o),
(679,701,cs),
(711,705,o),
(736.667,714,o),
(770,742,c),
(773.333,744,o),
(776,743.667,o),
(778,741,cs),
(839,671,ls),
(843,667,o),
(842,663.333,o),
(838,662,cs),
(815.508,656.81,o),
(797.734,643.489,o),
(779,631,cs),
(700,575,ls),
(602.667,505,o),
(542.333,462,o),
(519,446,c),
(493,464,l),
(570.333,524,o),
(637,584.333,o),
(693,645,cs),
(694.333,646.333,o),
(695,648,o),
(695,650,cs),
(695,652.667,o),
(692,655.333,o),
(688,654,c),
(600.667,646,o),
(496.667,635,o),
(376,621,cs),
(344,617,l),
(344,617,l)
);
},
{
closed = 1;
nodes = (
(191.333,245.667,o),
(150.333,239.333,o),
(109,230,c),
(31,287,l),
(36,300,l),
(66,298,o),
(93.333,297,o),
(118,297,cs),
(145.333,297,o),
(171.333,298,o),
(196,300,cs),
(425.333,316,o),
(547,326,o),
(739,346,cs),
(805.667,352.667,o),
(837,358.333,o),
(869,377,cs),
(871.667,378.333,o),
(874.667,378,o),
(878,376,cs),
(971,325,l),
(968,310,l),
(748,295.333,o),
(502.667,275,o),
(232,249,cs)
);
}
);
width = 1000;
}
);
unicode = 101552;
}
{
glyphname = u18CBC;
layers = (
{
layerId = master01;
shapes = (
{
closed = 1;
nodes = (
(627,482,o),
(624.667,485,o),
(620,485,cs),
(503.333,475.667,o),
(391,465,o),
(283,453,cs),
(245,447.667,o),
(211.333,442,o),
(182,436,c),
(105,492,l),
(110,505,l),
(132,502.333,o),
(157,501,o),
(185,501,cs),
(209,501,o),
(236.333,502.333,o),
(267,505,cs),
(535,528,ls),
(592.333,534.667,o),
(627,544.333,o),
(659,571,cs),
(662.333,574.333,o),
(665.333,574.333,o),
(668,571,cs),
(726,514,ls),
(728.667,511.333,o),
(728.333,508.333,o),
(725,505,cs),
(701,483,ls),
(700.333,482.333,o),
(698.5,480.667,o),
(695.5,478,cs),
(692.5,475.333,o),
(691,471.333,o),
(691,466,cs),
(685.667,294,o),
(744.667,191.667,o),
(838,161,cs),
(846,159,l),
(850,159,o),
(853,160.833,o),
(855,164.5,cs),
(857,168.167,o),
(858.667,174.333,o),
(860,183,cs),
(886,355,l),
(910,352,l),
(907.333,297.333,o),
(906,257,o),
(906,231,cs),
(906,167,o),
(909.667,116.333,o),
(917,79,c),
(917,75,ls),
(917,69.667,o),
(914.333,67,o),
(909,67,cs),
(809,67,o),
(716.333,122.333,o),
(663,245,cs),
(636.333,306.333,o),
(624.333,383.333,o),
(627,476,cs)
);
},
{
closed = 1;
nodes = (
(217.667,-33.667,o),
(314.833,63,o),
(371.5,239,cs),
(399.833,327,o),
(419.667,445.667,o),
(431,595,cs),
(431.667,601.667,o),
(432,612.667,o),
(432,628,cs),
(432,681.333,o),
(421.333,721,o),
(400,747,c),
(410,758,l),
(519,672,l),
(511,650,o),
(506,626,o),
(504,600,cs),
(476,284,o),
(413.333,108.667,o),
(292,-6,cs),
(231.333,-63.333,o),
(148,-114.333,o),
(42,-159,c),
(27,-131,l),
(27,-131,l)
);
},
{
closed = 1;
nodes = (
(189,267.333,o),
(162,277,o),
(122,277,cs),
(116.667,277,o),
(106.667,276.333,o),
(92,275,c),
(87,288,l),
(189,337,l),
(209,315.667,o),
(229.333,297.333,o),
(250,282,cs),
(346,210,o),
(494,102.333,o),
(566,53,cs),
(678,-23,o),
(741.333,-59.167,o),
(804,-78.5,cs),
(835.333,-88.167,o),
(872,-95.333,o),
(914,-100,c),
(914,-130,l),
(718,-149,l),
(714,-149,ls),
(707.333,-149,o),
(701.333,-147,o),
(696,-143,cs),
(582,-41.667,o),
(422.333,88,o),
(217,246,cs)
);
}
);
width = 1000;
}
);
unicode = 101564;
}
{
glyphname = u18CC7;
layers = (
{
layerId = master01;
shapes = (
{
closed = 1;
nodes = (
(658,502,ls),
(726,508.667,o),
(756,512.333,o),
(788,531,cs),
(790.667,532.333,o),
(793.667,532,o),
(797,530,cs),
(889,474,l),
(886,459,l),
(647.333,448.333,o),
(534.333,441,o),
(285,421,cs),
(251.667,418.333,o),
(230.667,413.667,o),
(222,407,cs),
(191,384,ls),
(186.333,380.667,o),
(183,380.667,o),
(181,384,cs),
(136,447,ls),
(133.333,451,o),
(133.333,454.333,o),
(136,457,c),
(162.667,476.333,o),
(180.333,504.333,o),
(189,541,cs),
(194.333,563.667,o),
(198.667,585.333,o),
(202,606,cs),
(202.667,609.333,o),
(203,614.667,o),
(203,622,cs),
(203,655.333,o),
(190.667,701,o),
(172,729,c),
(185,739,l),
(285,636,l),
(266.354,598.709,o),
(261.296,598.533,o),
(239,483,cs),
(238,478,ls),
(238,472.667,o),
(241,471.667,o),
(249,473,c),
(494,490,l),
(494,490,l)
);
},
{
closed = 1;
nodes = (
(537.667,677.667,o),
(535,649,o),
(535,617,cs),
(536,-15,ls),
(536,-37.667,o),
(534.667,-56.667,o),
(532,-72,cs),
(525.333,-109.333,o),
(514.667,-125.667,o),
(496,-155,c),
(492,-159.667,o),
(487.667,-160,o),
(483,-156,cs),
(440.333,-119.333,o),
(376.333,-72.333,o),
(291,-15,c),
(303,9,l),
(450,-52,ls),
(451.333,-52.667,o),
(453.333,-53,o),
(456,-53,cs),
(462,-53,o),
(465.667,-48.667,o),
(467,-40,cs),
(473,58,o),
(476,186.667,o),
(476,346,cs),
(476,462.667,o),
(475,558,o),
(473,632,cs),
(471.667,688,o),
(457,731,o),
(429,761,c),
(440,773,l),
(543,703,l),
(543,703,l)
);
},
{
closed = 1;
nodes = (
(508.667,384.667,o),
(516.667,374.333,o),
(528,361,cs),
(585.333,291.667,o),
(693.333,170.333,o),
(744,121,cs),
(814.667,53,o),
(882,19,o),
(962,3,c),
(962,-25,l),
(788,-40,l),
(784,-40,ls),
(776.667,-40,o),
(772,-38,o),
(770,-34,c),
(688.667,84.667,o),
(605.333,193.333,o),
(520,292,cs),
(517,296,l),
(504,392,l),
(504,392,l)
);
},
{
closed = 1;
nodes = (
(418,219,o),
(259,44.667,o),
(51,-94,c),
(32,-71,l),
(232,86.333,o),
(368.333,251.333,o),
(479,462,c),
(518,395,l),
(518,395,l)
);
}
);
width = 1000;
}
);
unicode = 101575;
}
{
glyphname = u18CCA;
layers = (
{
layerId = master01;
shapes = (
{
closed = 1;
nodes = (
(274.333,513.667,o),
(320,590,o),
(348,650,cs),
(356.667,668.667,o),
(361,690.333,o),
(361,715,cs),
(361,725,o),
(360,736,o),
(358,748,c),
(373,753,l),
(424,629,l),
(409.333,617,o),
(395.333,600.333,o),
(382,579,cs),
(295,440,l),
(294,436,ls),
(294,432,o),
(297,430.667,o),
(303,432,cs),
(399.667,450,o),
(492.333,468.333,o),
(581,487,cs),
(615.667,493.667,o),
(626.667,502.667,o),
(652,532,cs),
(654.667,536,o),
(661.333,536.667,o),
(664,534,cs),
(728,478,ls),
(730.667,476,o),
(732,474.333,o),
(732,473,cs),
(732,471.667,o),
(730.667,469.667,o),
(728,467,cs),
(712,452,ls),
(708,448,o),
(703.333,440.333,o),
(698,429,cs),
(570,166.333,o),
(378.667,-27,o),
(52,-167,c),
(37,-135,l),
(334.333,17,o),
(503,194.667,o),
(611,420,c),
(612.333,424,o),
(613,426.333,o),
(613,427,cs),
(613,433,o),
(607.667,434.667,o),
(597,432,cs),
(477,409.333,o),
(393,392.333,o),
(281,367,cs),
(270.333,365,o),
(258.667,357.667,o),
(246,345,cs),
(240.667,339.667,o),
(235.667,339,o),
(231,343,cs),
(183,394,ls),
(175,402,o),
(174.333,404.667,o),
(181,410,c),
(198.528,420.517,o),
(220.093,437.253,o),
(233,455,cs)
);
},
{
closed = 1;
nodes = (
(595.333,168.333,o),
(694.667,57.667,o),
(744,11,cs),
(814.667,-57,o),
(882,-91,o),
(962,-107,c),
(962,-135,l),
(788,-150,l),
(784,-150,ls),
(776.667,-150,o),
(772,-148,o),
(770,-144,c),
(688.667,-25.333,o),
(605.333,83.333,o),
(520,182,cs),
(517,186,l),
(514,209,l),
(538,239,l),
(538,239,l)
);
}
);
width = 1000;
}
);
unicode = 101578;
}
{
glyphname = u18CCC;
layers = (
{
layerId = master01;
shapes = (
{
closed = 1;
nodes = (
(304.667,183.333,o),
(424.333,415.333,o),
(483,590,cs),
(490.333,612,o),
(494,633.667,o),
(494,655,cs),
(494,672.333,o),
(491.333,690,o),
(486,708,c),
(502,717,l),
(592,592,l),
(574,574,o),
(562.667,560,o),
(558,550,cs),
(452.667,329.333,o),
(339.333,138.333,o),
(218,-23,c),
(802,30,l),
(808,-1,l),
(213,-92,ls),
(194.333,-94.667,o),
(174.333,-100.333,o),
(153,-109,cs),
(149,-110.333,o),
(145.667,-109,o),
(143,-105,cs),
(100,-32,l),
(98.667,-30.667,o),
(98,-29,o),
(98,-27,cs),
(98,-23.667,o),
(100,-21.333,o),
(104,-20,c),
(143.333,-13.333,o),
(170.667,-0.667,o),
(186,18,c)
);
},
{
closed = 1;
nodes = (
(724.333,240.333,o),
(815.667,115,o),
(897,-21,cs),
(898.333,-23.667,o),
(898.333,-27.333,o),
(897,-32,cs),
(859,-146,l),
(842,-147,l),
(791.333,10.333,o),
(698,191.333,o),
(602,338,c),
(623,355,l),
(623,355,l)
);
}
);
width = 1000;
}
);
unicode = 101580;
}
{
glyphname = u18CD5;
layers = (
{
layerId = master01;
shapes = (
{
closed = 1;
nodes = (
(543,126.667,o),
(683,54.333,o),
(809,-23,cs),
(812.333,-25.667,o),
(814.667,-30.667,o),
(816,-38,cs),
(834,-143,l),
(821,-151,l),
(698.333,-33.667,o),
(569.333,48,o),
(396,140,cs),
(366.667,157.333,o),
(322.333,173,o),
(297,177,c),
(299,212,l),
(317.667,209.333,o),
(343,221.667,o),
(351,239,cs),
(404.333,345.667,o),
(453,509,o),
(469,625,cs),
(472.333,651.667,o),
(474,671.667,o),
(474,685,cs),
(474,713.667,o),
(469.333,737,o),
(460,755,c),
(475,765,l),
(569,649,l),
(553.667,625.667,o),
(538,590.333,o),
(522,543,cs),
(482,421,o),
(437.667,304.667,o),
(389,194,c)
);
},
{
closed = 1;
nodes = (
(617.667,109.667,o),
(436.333,-68.333,o),
(115,-167,c),
(102,-136,l),
(415.333,-16,o),
(583.333,168.333,o),
(666,463,cs),
(671.333,480.333,o),
(674,499.333,o),
(674,520,cs),
(674,545.333,o),
(669.333,571,o),
(660,597,c),
(676,607,l),
(760,505,l),
(745.333,479.667,o),
(736.333,459,o),
(719,407,cs)
);
},
{
closed = 1;
nodes = (
(248.333,281.333,o),
(188.667,184.333,o),
(146,135,c),
(127,136,l),
(90,221,ls),
(88,225,o),
(89.333,227.667,o),
(94,229,cs),
(108.667,233,o),
(126,238.667,o),
(138,248,cs),
(192.417,293.347,o),
(241.398,393.831,o),
(235,477,c),
(256,479,l),
(268,433.667,o),
(273,407.333,o),
(273,382,cs),
(273,368,o),
(271,354,o),
(267,340,cs)
);
},
{
closed = 1;
nodes = (
(765.667,379.667,o),
(834.667,315.667,o),
(902,241,cs),
(906.667,236.333,o),
(908.333,231,o),
(907,225,cs),
(887,116,l),
(872,113,l),
(829.333,207,o),
(765.667,305,o),
(681,407,c),
(695,433,l),
(695,433,l)
);
}
);
width = 1000;
}
);
unicode = 101589;
}
